<?xml version="1.0" encoding="utf-8"?>

<svg width="800px" height="800px" xmlns="http://www.w3.org/2000/svg"
  xmlns:xlink="http://www.w3.org/1999/xlink" viewBox="0 0 800 800" >

<defs>

<style><![CDATA[
path {
    cursor: pointer;
    pointer-events : visibleStroke;
    fill: none;
    stroke-width: 20;
    stroke: lightblue;
    stroke-linecap: round;
    -webkit-transition: all 0.5s;
    -moz-transition: all 0.5s;
    transition: all 0.5s;
}
path:hover {
    stroke         : lightgreen;;
}
]]></style>

<path id="frame1" d="M 115,169 S 149,424 460,555 S 608,367 568,157 S 438,108 174,57 S 97,90 115,169"/>
<path id="frame2" d="M 284,81 S 117,248 91,478 S 240,595 547,608 S 608,349 588,140 S 420,48 284,81"/>
<path id="frame3" d="M 360,313 S 413,253 475,308 S 491,422 464,508 S 293,511 217,424 S 254,297 360,313"/>
<path id="frame4" d="M 381,643 S 574,490 580,225 S 468,133 297,38 S 103,144 62,382 S 172,641 381,643"/>
<path id="frame5" d="M 456,56 S 579,221 603,479 S 449,595 196,636 S 64,367 96,111 S 371,28 456,56"/>
<path id="frame6" d="M 552,89 S 326,83 111,219 S 66,407 104,623 S 426,653 605,503 S 655,263 552,89"/>
<path id="frame7" d="M 628,355 S 563,183 397,79 S 199,79 65,270 S 65,464 258,650 S 467,623 628,355"/>
<path id="frame8" d="M 84,239 S 223,528 336,620 S 516,606 630,347 S 587,153 325,70 S 76,87 84,239"/>

</defs>

<path
   d                    = "M 115,169 S 149,424 460,555 S 608,367 568,157 S 438,108 174,57 S 97,90 115,169"
   id                   = "shape"
>
    <animate
       attributeName    = "d"
       from             = "M 115,169 S 149,424 460,555 S 608,367 568,157 S 438,108 174,57 S 97,90 115,169"
       to               = "M 115,169 S 149,424 460,555 S 608,367 568,157 S 438,108 174,57 S 97,90 115,169"
       begin            = "shape.click;0s"
       dur              = "20s"
       keySplines       = "0.5 0 0.5 1"
       repeatCount      = "indefinite"
       values           = "M 115,169 S 149,424 460,555 S 608,367 568,157 S 438,108 174,57 S 97,90 115,169;M 284,81 S 117,248 91,478 S 240,595 547,608 S 608,349 588,140 S 420,48 284,81;M 360,313 S 413,253 475,308 S 491,422 464,508 S 293,511 217,424 S 254,297 360,313;M 381,643 S 574,490 580,225 S 468,133 297,38 S 103,144 62,382 S 172,641 381,643;M 456,56 S 579,221 603,479 S 449,595 196,636 S 64,367 96,111 S 371,28 456,56;M 552,89 S 326,83 111,219 S 66,407 104,623 S 426,653 605,503 S 655,263 552,89;M 628,355 S 563,183 397,79 S 199,79 65,270 S 65,464 258,650 S 467,623 628,355;M 84,239 S 223,528 336,620 S 516,606 630,347 S 587,153 325,70 S 76,87 84,239;M 115,169 S 149,424 460,555 S 608,367 568,157 S 438,108 174,57 S 97,90 115,169"
       />
</path>

<script><![CDATA[

var app = new Function;

app.dur = 10;
app.deviation = 10;
app.frameCount = 10;

window.onload = function() {
    return(false);
    app.path = document.querySelector('#shape');
    app.d = app.path.getAttribute('d');
    app.data = app.d.split(/ +/);

    var cacheArr = [];
    var cacheStr = '';

    app.anim = document.querySelector('#anim');
    app.anim.setAttribute('dur', app.dur + 's');
    app.anim.setAttribute('from', app.d);
    app.anim.setAttribute('to', app.d);

    for (f = 0; f < app.frameCount ; f++) {
        for (i = 0; i < app.data.length; i++) {
            if (app.data[i].match(/([A-Z])/i)) {
                cacheArr.push(app.data[i]);
            } else {
                cacheArr.push(app.displace(app.data[i]));
            }
        }
        cacheArr[cacheArr.length - 2] = cacheArr[1];
        cacheArr[cacheArr.length - 1] = cacheArr[2];
        cacheStr += ';' + cacheArr.join(' ');
        cacheArr = [];
    }

    app.anim.setAttribute('values', app.d + cacheStr);
    app.anim.beginElement();
    console.log(app.anim);
}

app.displace = function(n) {
    n *= 1;
    d = Math.floor((Math.random() * (app.deviation * 2)) - app.deviation);
    return (n + d);
}

]]></script>

</svg>
