<?xml version="1.0" encoding="utf-8"?>

<svg
   version           = "1.1" 
   xmlns             = "http://www.w3.org/2000/svg"
   xmlns:xlink       = "http://www.w3.org/1999/xlink"
   width             = "300px"
   height            = "300px"
   viewBox           = "0 0 300 300"
   enable-background = "new 0 0 300 300"
   xml:space         = "preserve"
>

<defs>

<path id="shirtShape" fill="#010101"
d="M533.011,345.749c2.828,1.308,5.656,2.616,8.485,3.924
c1.975,1.509,4.315,2.499,6.077,4.308c0.017,0.713,0.047,1.426,0.047,2.139c0.003,29.746,0.003,59.491,0.003,89.237
c-48.678,0-97.354,0-146.031,0c-0.229-1.555,0.138-3.069,0.324-4.592c0.482-3.964,0.481-7.936,0.409-11.921
c-0.048-2.607,0.165-5.222,0.331-7.828c0.358-5.611-0.561-11.127-1.111-16.678c-0.692-6.969-1.396-13.949-0.262-20.952
c0.336-2.079,0.076-4.276,1.537-6.091c0.404-0.503,0.318-1.254,0.262-1.906c-0.045-0.507,0.032-0.833,0.647-0.68
c1.719,0.387,3.358,0.998,5.196,0.989c2.524-0.013,4.781-0.714,6.993-1.806c5.462-2.701,10.454-6.048,14.938-10.211
c4.701-4.363,9.925-8.104,14.937-12.099c3.685-2.938,7.413-5.843,10.83-9.15c3.572-3.458,7.351-6.719,10.959-10.157
c3.113-2.967,5.837-6.25,8.283-9.761c1.854-2.663,1.325-6.329-1.192-8.604c-2.144-1.938-3.776-4.419-6.198-6.105
c-0.415-0.29-0.789-0.764-0.422-1.377c3.186,1.803,6.911,1.396,10.268,2.512c2.661,0.886,4.723,2.447,6.667,4.543
c3.379,3.643,6.602,7.648,11.617,9.274c2.454,0.796,4.974,1.361,7.096,2.983c1.216,0.929,2.222,2.038,3.044,3.271
c1.221,1.83,2.78,3.157,4.836,3.873c4.932,1.717,8.731,5.189,12.835,8.194C527.066,343.029,529.975,344.506,533.011,345.749z"
/>

<path id="headShape" 
d="M468.054,306.428c0.118,0.623,0.557,0.974,1.042,1.325c2.962,2.146,5.029,5.158,7.512,7.771
c1.056,1.109,0.433,2.483,0.716,3.699c0.424,1.821-0.552,3.174-1.491,4.363c-3.808,4.817-7.975,9.291-12.616,13.358
c-3.758,3.294-7.221,6.938-11.077,10.125c-4.622,3.822-9.414,7.434-14.174,11.086c-3.797,2.914-7.17,6.376-10.908,9.373
c-4.295,3.443-8.973,6.394-14.242,8.072c-3.008,0.958-6.235,1.198-9.085-0.892c-0.337-0.748-0.931-1.391-1.668-1.509
c-2.935-0.471-4.858-2.56-7.016-4.243c-4.556-3.555-9.415-6.578-14.704-8.916c-1.913-0.845-3.509-2.193-5.181-3.43
c-2.779-2.057-3.251-1.979-6.072-0.041c-6.022,4.136-12.252,7.811-19.22,10.271c-3.883,1.372-7.762,2.002-11.783,2.089
c-4.423,0.095-8.097-2.627-9.789-6.748c-1.242-3.027-1.5-6.06-0.709-9.19c0.809-3.203-0.534-5.729-2.701-7.771
c-2.067-1.947-2.64-4.34-2.082-6.772c0.568-2.475,1.729-4.885,3.51-6.824c1.352-1.473,2.24-3.281,2.872-5.031
c0.851-2.356,2.189-4.542,2.564-7.109c0.162-1.113,0.158-2.113-0.191-3.102c-0.814-2.304-1.659-4.601-2.612-6.848
c-0.577-1.361-2.21-1.438-3.253-2.277c-1.151-0.928-2.182-1.117-2.907,0.699c-0.472,1.179-1.643,0.793-2.564,0.376
c-0.991-0.449-1.886-0.747-3.092-0.604c-1.642,0.193-3.344-0.188-4.882-1.037c-1.031-0.57-0.865-1.553-1.122-2.435
c-0.414-1.415-0.563-2.949-0.121-4.209c0.558-1.591-0.269-2.184-1.238-2.801c-0.948-0.604-1.647-1.414-2.323-2.267
c-1.034-1.306-0.879-2.733-0.345-4.169c0.695-1.864-0.49-3.398-1.071-4.927c-0.645-1.693-2.273-2.368-4.228-2.314
c-1.513,0.041-2.742-0.918-3.885-1.872c-1.162-0.97-2.318-1.949-3.521-2.867c-3.775-2.883-4.233-8.564-1.112-12.148
c1.52-1.746,3.422-3.007,5.18-4.411c1.207-0.964,1.685-2.348,2.776-3.383c1.466-1.389,2.941-3.039,3.793-4.993
c0.45-1.033-0.155-2.093-0.41-3.085c-0.816-3.172-1.383-6.38-1.86-9.624c1.213-0.168,1.388,1.128,2.254,1.362
c0.409,0.111,1.14,0.646,1.062-0.1c-0.186-1.81,1.116-2.958,1.729-4.349c1.862-4.233,2.054-8.85,3.409-13.184
c1.346-4.307,1.881-8.77,2.344-13.239c0.042-0.411,0.271-0.885-0.058-1.196c-0.865-0.822-0.96-1.37-0.197-2.544
c0.918-1.412,0.965-3.539,1.731-4.866c1.149-1.991,1.979-4.163,3.27-6.086c2.257-3.359,5.104-6.25,7.476-9.524
c0.547-0.754,1.823-1.485,2.824-2.148c3.323-2.2,6.82-4.084,10.31-5.992c2.7-1.477,5.556-2.557,8.437-3.599
c0.874-0.317,1.639-0.991,2.525-1.213c2.135-0.534,4.215-1.254,6.373-1.743c2.676-0.607,5.533-0.511,8.072-1.86
c1.097-0.583,2.517-0.548,3.729-0.713c3.606-0.49,7.224-1.067,10.919-0.948c1.865,0.061,3.844-0.284,5.684-0.325
c2.62-0.058,5.221-0.666,7.85-0.377c0.736,0.081,1.428-0.014,1.606-0.937c0.175-0.247,0.291-0.587,0.709-0.455
c0.524,0.916,1.162,1.4,2.262,0.797c0.92-0.504,1.577,0.52,2.577,0.535c2.395,0.037,4.913-0.289,7.183,0.358
c1.276,0.364,2.106,0.284,3.194-0.148c0.474-0.188,1.188-0.273,1.666,0.265c1.549,1.739,3.875,1.675,5.83,2.455
c2.221,0.886,4.559,1.479,6.847,2.198c4.874,1.531,9.279,4.062,13.771,6.416c4.61,2.416,8.126,6.077,11.621,9.808
c2.118,2.261,3.898,4.75,5.63,7.301c2.211,3.256,3.905,6.766,5.567,10.322c2.386,5.107,3.351,10.614,4.341,16.033
c0.887,4.851,0.84,9.888,0.429,14.883c-0.243,2.952,0.021,5.956,0.181,8.93c0.133,2.477-0.591,4.705-1.841,6.737
c-0.944,1.536-0.856,3.004-0.312,4.552c0.39,1.109,0.863,2.19,1.302,3.283c1.408,3.508,0.899,6.014-2.012,8.349
c-1.462,1.173-1.642,2.083-0.629,3.71c1.443,2.32,2.984,4.643,2.814,7.664c-0.166,2.958-1.101,5.447-3.537,7.159
c-1.197,0.842-1.297,1.513-0.546,2.733c2.127,3.46,3.266,7.322,3.925,11.283c0.205,1.239,0.437,2.055,1.611,2.568
C467.202,305.564,467.768,305.858,468.054,306.428z"/>

<clipPath id="headClip">
    <use xlink:href="#headShape"/>
</clipPath>

<g id="tileRects">
  <rect id="tileRectBlack" x="0"   y="0"   width="0"  height="5"   fill="#000000" >
    <animate
       attributeName = "width" 
       attributeType = "XML"
       from          = "0" 
       to            = "10" 
       begin         = "2s"
       dur           = "10s"
       repeatCount   = "0"
       fill          = "freeze"
       />
    </rect>
  <rect id="tileRectWhite" x="0.5" y="0.5" width="9.0" height="4.0" fill="#E1BC9B" />
</g>

<g id="tileSquare">
  <use xlink:href="#tileRects" />
  <use xlink:href="#tileRects" transform="translate(0,5)"/>
</g>

<g id="tilePatternUnit">
  <use xlink:href="#tileSquare" />
  <g id="shiftDown" transform="translate(10,10) rotate(90)">
      <use xlink:href="#tileSquare"/>
  </g>
  <g id="shiftOver" transform="translate(10,10) rotate(-90)">
      <use xlink:href="#tileSquare"/>
  </g>
  <g id="shiftDownAndOver" transform="translate(10,10) skewX(0)">
    <use xlink:href="#tileSquare"/>
  </g>
</g>

<pattern
   id                    = "tilePattern"
   x                     = "0"
   y                     = "0"
   width                 = "20"
   height                = "20"
   patternContentUnits   = "userSpaceOnUse"
   patternUnits          = "userSpaceOnUse"
   data-patternTransform = "scale(1.5) skewY(15) rotate(30)"
>
  <use xlink:href="#tilePatternUnit" />
</pattern>

<pattern
   id                    = "tilePatternSimple"
   x                     = "0"
   y                     = "0"
   width                 = "12"
   height                = "7"
   patternContentUnits   = "userSpaceOnUse"
   patternUnits          = "userSpaceOnUse"
>
  <use xlink:href="#tileRect" />
</pattern>

<g id="G" transform="translate(-280,-150)">
  <use xlink:href="#headShape" fill="url(#tilePattern)" />
  <use xlink:href="#shirtShape" />
</g>



<use xlink:href="#tilePatternUnit" transform="scale(10) translate(1,1)"/>

</defs>

<use xlink:href="#G"/>
</svg>
