<?xml version="1.0" encoding="utf-8"?>

<svg version="1.1" 
xmlns="http://www.w3.org/2000/svg" xmlns:xlink="http://www.w3.org/1999/xlink" x="0px" y="0px" width="792px" height="612px"
viewBox="0 0 792 612" enable-background="new 0 0 792 612" xml:space="preserve">

<g>

<g id="background">

<rect opacity="0.1" fill="#6162AC" width="238.576" height="311.471" />

</g>

<g id="Waves_Pos2">

<path id="wave_2_1_" opacity="0.1" fill="#6162AC"
d="M203.402,29.5c-4.731-13.72-65.816,61.318-90.5,53.5
c-24.684-7.817-27.75-39.974-54.75-27C32.808,68.178,0,44,0,44v267.465h238.568V83.25C223.525,85.373,208.402,44,203.402,29.5z"
>

</path>

<g id="wave_1_1_" opacity="0.1">

<path fill="#6162AC"
d="M238.568,227.718V46.5c-7.145-1.102-10.592,23.399-17.916,29c-4.25,3.25-1.342,2.971-17.25,7.5
l-12.25-2.25c-7.564,6.4-20.168-2.861-34.25-10.5c-16.159-8.766-13.731-38.171-30.75-36.25
c-11.819,1.28-32.376,44.261-43.25,38.5c-17.02-10.24-22.762-14.72-36-32C41.229,33.459,7.092,71.419,0,69.5v241.966h238.568
v-0.001V227.718z" >

</path>

</g>

</g>

<g id="Large_Pos2">

<path id="weed01" opacity="0.25" fill="#3D3F99" d="M63.652,209.437c0,0-13.782-11.722-17.833-7.937 c-4.43,4.139-12.167,13.437-12,21.5c0.394,19.014,12.858,20.944,18.69,32.18c5.832,11.235,16.611-3.057,19.644,5.653 c3.032,8.709,3.167,8.333-7.662,50.631H42.035c0,0,5.718-8.013,13.284-14.298c6.925-5.753,11.773-20.716,11.208-27.418 s-7.437,6.508-17.374-4.416c-9.939-10.923-15.542-16.127-19.167-22.833c-3.333-6.167-2.481-17.667,0-26.167 c1.868-6.4,2.888-11.043,11-16.167c9.5-6,9.471-4.224,17.167-0.5C63.319,202.167,63.652,209.437,63.652,209.437z" >

<animate repeatCount="indefinite" id="weed01anim01" attributeType="XML" attributeName="d" begin="0s" dur="2s" from="M63.652,209.437c0,0-13.782-11.722-17.833-7.937 c-4.43,4.139-12.167,13.437-12,21.5c0.394,19.014,12.858,20.944,18.69,32.18c5.832,11.235,16.611-3.057,19.644,5.653 c3.032,8.709,3.167,8.333-7.662,50.631H42.035c0,0,5.718-8.013,13.284-14.298c6.925-5.753,11.773-20.716,11.208-27.418 c-7.437,6.508-17.374-4.416c-9.939-10.923-15.542-16.127-19.167-22.833c-3.333-6.167-2.481-17.667,0-26.167 c1.868-6.4,2.888-11.043,11-16.167c9.5-6,9.471-4.224,17.167-0.5C63.319,202.167,63.652,209.437,63.652,209.437z" to="M48.547,202.035c0,0,6.583,4.913,8.351,10.711 c1.768,5.799,4.675,7.65,0.888,14.034c-16.451,15.669-10.619,26.905c5.832,11.235,17.768,24.901,20.8,33.611 c3.032,8.709-1.649,22.656-3.476,24.168H42.035c0,0-3.246,0.032,3.025-7.545c6.271-7.578,12.402-6.943,11.837-13.646 c-1.022-8.716-10.96-19.64c-9.939-10.923-12.215-22.685-7.577-28.734c4.638-6.049,12.599-8.537,13.452-16.366 c0.853-7.829,5.47-13.038-1.839-19.255c-7.309-6.218-12.235-10.418-7.938-8.402C46.332,199.895,48.547,202.035,48.547,202.035z" />

<animate repeatCount="indefinite" id="weed01anim02" attributeType="XML" attributeName="d" begin="weed01anim02.end" dur="2s" from="M48.547,202.035c0,0,6.583,4.913,8.351,10.711 c1.768,5.799,4.675,7.65,0.888,14.034c-16.451,15.669-10.619,26.905c5.832,11.235,17.768,24.901,20.8,33.611 c3.032,8.709-1.649,22.656-3.476,24.168H42.035c0,0-3.246,0.032,3.025-7.545c6.271-7.578,12.402-6.943,11.837-13.646 c-1.022-8.716-10.96-19.64c-9.939-10.923-12.215-22.685-7.577-28.734c4.638-6.049,12.599-8.537,13.452-16.366 c0.853-7.829,5.47-13.038-1.839-19.255c-7.309-6.218-12.235-10.418-7.938-8.402C46.332,199.895,48.547,202.035,48.547,202.035z" to="M63.652,209.437c0,0-13.782-11.722-17.833-7.937 c-4.43,4.139-12.167,13.437-12,21.5c0.394,19.014,12.858,20.944,18.69,32.18c5.832,11.235,16.611-3.057,19.644,5.653 c3.032,8.709,3.167,8.333-7.662,50.631H42.035c0,0,5.718-8.013,13.284-14.298c6.925-5.753,11.773-20.716,11.208-27.418 c-7.437,6.508-17.374-4.416c-9.939-10.923-15.542-16.127-19.167-22.833c-3.333-6.167-2.481-17.667,0-26.167 c1.868-6.4,2.888-11.043,11-16.167c9.5-6,9.471-4.224,17.167-0.5C63.319,202.167,63.652,209.437,63.652,209.437z" />

</path>

<path id="weed02" opacity="0.25" fill="#3D3F99" d="M62.486,149.278c0,0-14.633,3.376-22.333,10.055 c-7.161,6.211-18.867,33.224-13.833,43.333s28.042,10.908,37,25.5c10.155,16.542-1.028,14.189-5.059,27.982 c-4.029,13.795-11.941,28.518-35.844,55.315h29.845c0,0-6.455-6.358,1.725-18.465c8.333-12.333,9.276-25.192,12.5-35.333 c2.715-8.542,17.412-14.346,11.394-26.5c-8.505-17.177-16.563-13.92-22.728-23.5c-6.164-9.579-18.033-5.768-19.167-18.167 s22.012-43.508,31.83-33.765c7.557,7.5,37.446,13.9,6.003-5.568C68.255,146.722,62.486,149.278,62.486,149.278z" >

<animate repeatCount="indefinite" id="weed02anim01" attributeType="XML" attributeName="d" begin="0s" dur="1.5s" from="M62.486,149.278c0,0-14.633,3.376-22.333,10.055 c-7.161,6.211-18.867,33.224-13.833,43.333s28.042,10.908,37,25.5c10.155,16.542-1.028,14.189-5.059,27.982 c-4.029,13.795-11.941,28.518-35.844,55.315h29.845c0,0-6.455-6.358,1.725-18.465c8.333-12.333,9.276-25.192,12.5-35.333 c2.715-8.542,17.412-14.346,11.394-26.5c-8.505-17.177-16.563-13.92-22.728-23.5c-6.164-9.579-18.033-5.768-19.167-18.167 s22.012-43.508,31.83-33.765c7.557,7.5,37.446,13.9,6.003-5.568C68.255,146.722,62.486,149.278,62.486,149.278z" to="M43.606,138.153c0,0-8.749,7.781-11.099,16.964 c-2.35,9.184-6.214,12.117-1.181,22.227s21.864,24.815,14.113,42.611c-7.751,17.795-23.613,39.439-27.644,53.232 c-4.029,13.795,2.192,35.883,4.619,38.277h29.845c0,0,4.314,0.051-4.021-11.949c-8.336-12.002-16.484-10.997-15.732-21.611 c0.752-10.615,1.358-13.805,14.567-31.104s16.233-35.929,10.069-45.509C50.98,191.712,40.4,187.77,39.267,175.37 s-7.271-20.649,2.443-30.496s16.262-16.499,10.551-13.306C46.55,134.762,43.606,138.153,43.606,138.153z" />

<animate repeatCount="indefinite" id="weed02anim02" attributeType="XML" attributeName="d" begin="weed02anim02.end" dur="1.5s" from="M43.606,138.153c0,0-8.749,7.781-11.099,16.964 c-2.35,9.184-6.214,12.117-1.181,22.227s21.864,24.815,14.113,42.611c-7.751,17.795-23.613,39.439-27.644,53.232 c-4.029,13.795,2.192,35.883,4.619,38.277h29.845c0,0,4.314,0.051-4.021-11.949c-8.336-12.002-16.484-10.997-15.732-21.611 c0.752-10.615,1.358-13.805,14.567-31.104s16.233-35.929,10.069-45.509C50.98,191.712,40.4,187.77,39.267,175.37 s-7.271-20.649,2.443-30.496s16.262-16.499,10.551-13.306C46.55,134.762,43.606,138.153,43.606,138.153z" to="M62.486,149.278c0,0-14.633,3.376-22.333,10.055 c-7.161,6.211-18.867,33.224-13.833,43.333s28.042,10.908,37,25.5c10.155,16.542-1.028,14.189-5.059,27.982 c-4.029,13.795-11.941,28.518-35.844,55.315h29.845c0,0-6.455-6.358,1.725-18.465c8.333-12.333,9.276-25.192,12.5-35.333 c2.715-8.542,17.412-14.346,11.394-26.5c-8.505-17.177-16.563-13.92-22.728-23.5c-6.164-9.579-18.033-5.768-19.167-18.167 s22.012-43.508,31.83-33.765c7.557,7.5,37.446,13.9,6.003-5.568C68.255,146.722,62.486,149.278,62.486,149.278z" />

</path>

<path id="weed03" opacity="0.25" fill="#3D3F99" d="M50.986,131.5c0,0,13.418,5.497,15.186,17s8.601,22.67,4.814,35.333 s-21.831,21.21-16,43.5c5.833,22.29,19.467,25.056,22.5,42.333c3.033,17.279,2.494,38.798,0.668,41.798H55.698 c0,0-3.246,0.064,3.025-14.968s8.014-10.201,7.448-23.497s-6.515-12.998-16.455-34.667c-9.938-21.669,1.963-34,6.602-46 s17.085-10.728,9.853-24.5c-6.353-12.098-3.479-16.464-11.52-28.333c-7-10.333-64.479,10.796-20-7.167 C44.607,128.313,50.986,131.5,50.986,131.5z" >

<animate repeatCount="indefinite" id="weed03anim01" attributeType="XML" attributeName="d" begin="0s" dur="2s" from="" to="" />

<animate repeatCount="indefinite" id="weed03anim02" attributeType="XML" attributeName="d" begin="weed03anim02.end" dur="2s" from="" to="" />

</path>

<path id="weed04" opacity="0.25" fill="#3D3F99"
d="M73.986,124.167c0,0,6.919,4.626,10.03,14.833s20.347,21.069,23.136,33.833 c4.333,19.833-0.1,14.554,10.167,34.333S78.678,255.169,84.016,270.5c5.337,15.333,12.803,19.667,21.091,40.965H65.579 c0,0,1.651-2.619,13.073-15.631c7.915-9.017-12.078-18.035-13.073-29.833c-0.996-11.797,55.461-40.852,42.407-63.333 c-9-15.5-0.906-16.276-8-27.667c-6.583-10.571-7.826-4.667-17.197-14.802c-9.412-10.18,1.396-20.42-11.47-31.365 c-12.866-10.944,35.455-27.328,30-21C95.107,115.041,73.986,124.167,73.986,124.167z" >

<animate repeatCount="indefinite" id="weed04anim01" attributeType="XML" attributeName="d" begin="0s" dur="2s" from="" to="" />

<animate repeatCount="indefinite" id="weed04anim02" attributeType="XML" attributeName="d" begin="weed04anim02.end" dur="2s" from="" to="" />

</path>

<path id="weed05" opacity="0.25" fill="#3D3F99"
d="M96.521,115.757c0,0,14.523,8.787,18.423,19.156 s10.313,13.682,1.959,25.099c-8.354,11.415-36.291,28.022-23.426,48.117s39.194,44.537,45.884,60.112 c6.689,15.578-3.639,40.519-7.667,43.224H82.156c0,0-7.161,0.058,6.674-13.494c13.836-13.552,27.36-12.418,26.113-24.404 c-1.248-11.986-2.255-15.587-24.18-35.123c-21.924-19.536-26.945-40.572-16.714-51.39c10.231-10.818,27.794-15.27,29.675-29.271 c1.882-14.002,12.067-23.317-4.056-34.438c-16.123-11.119-26.991-18.631-17.513-15.024 C91.635,111.927,96.521,115.757,96.521,115.757z" >

<animate repeatCount="indefinite" id="weed05anim01" attributeType="XML" attributeName="d" begin="0s" dur="2s" from="" to="" />

<animate repeatCount="indefinite" id="weed05anim02" attributeType="XML" attributeName="d" begin="weed05anim02.end" dur="2s" from="" to="" />

</path>

</g>

<g id="Smaller_Pos2">

<path id="weed06" opacity="0.25" fill="#3D3F99"
d="M185.5,258.232c0,0-7.19-6.116-9.305-4.141 c-2.312,2.16-6.348,7.011-6.261,11.218c0.205,9.92,6.708,10.927,9.751,16.79c3.043,5.862,8.667-1.595,10.249,2.949 s1.652,4.348-3.997,26.417h-11.716c0,0,2.982-4.181,6.93-7.46c3.614-3.001,6.144-10.809,5.849-14.305 c-0.296-3.497-3.881,3.396-9.065-2.304c-5.186-5.699-8.108-8.415-10-11.914c-1.739-3.217-1.294-9.217,0-13.652 c0.975-3.339,1.507-5.762,5.739-8.435c4.957-3.13,4.941-2.204,8.957-0.261C185.326,254.438,185.5,258.232,185.5,258.232z" >

<animate repeatCount="indefinite" id="weed06anim01" attributeType="XML" attributeName="d" begin="0s" dur="2s" from="" to="" />

<animate repeatCount="indefinite" id="weed06anim02" attributeType="XML" attributeName="d" begin="weed06anim02.end" dur="2s" from="" to="" />

</path>

<path id="weed07" opacity="0.25" fill="#3D3F99"
d="M184.892,226.844c0,0-7.635,1.762-11.652,5.247 c-3.736,3.24-9.844,17.334-7.218,22.609c2.626,5.275,14.631,5.691,19.305,13.305c5.298,8.63-0.536,7.403-2.64,14.6 c-2.103,7.198-6.23,14.879-18.701,28.861h15.571c0,0-3.367-3.317,0.9-9.634c4.347-6.435,4.839-13.144,6.521-18.435 c1.417-4.457,9.085-7.485,5.944-13.826c-4.438-8.962-8.642-7.263-11.857-12.261c-3.217-4.998-9.409-3.009-10-9.479 c-0.592-6.469,11.484-22.701,16.606-17.617c3.943,3.913,19.538,7.252,3.132-2.905 C187.902,225.511,184.892,226.844,184.892,226.844z" >

<animate repeatCount="indefinite" id="weed07anim01" attributeType="XML" attributeName="d" begin="0s" dur="2s" from="" to="" />

<animate repeatCount="indefinite" id="weed07anim02" attributeType="XML" attributeName="d" begin="weed07anim02.end" dur="2s" from="" to="" />

</path>

<path id="weed08" opacity="0.25" fill="#3D3F99"
d="M178.892,217.569c0,0,7.001,2.868,7.923,8.87 c0.922,6.001,4.488,11.828,2.512,18.435c-1.976,6.607-11.391,11.066-8.348,22.696c3.043,11.63,10.156,13.073,11.739,22.087 c1.583,9.016,1.301,20.243,0.349,21.808H181.35c0,0-1.693,0.033,1.579-7.81c3.271-7.843,4.181-5.322,3.886-12.259 s-3.399-6.782-8.585-18.087c-5.185-11.306,1.023-17.739,3.444-24c2.42-6.261,8.914-5.598,5.141-12.783 c-3.314-6.312-1.814-8.59-6.01-14.783c-3.652-5.391-33.643,5.633-10.436-3.739C175.563,215.906,178.892,217.569,178.892,217.569z" >

<animate repeatCount="indefinite" id="weed08anim01" attributeType="XML" attributeName="d" begin="0s" dur="2s" from="" to="" />

<animate repeatCount="indefinite" id="weed08anim02" attributeType="XML" attributeName="d" begin="weed08anim02.end" dur="2s" from="" to="" />

</path>

<path id="weed09" opacity="0.25" fill="#3D3F99"
d="M190.892,213.743c0,0,3.609,2.414,5.232,7.739 c1.624,5.325,10.617,10.992,12.072,17.652c2.261,10.348-0.052,7.593,5.305,17.913s-20.161,25.045-17.377,33.044 c2.785,8,6.681,10.261,11.005,21.373h-20.624c0,0,0.862-1.366,6.821-8.156c4.13-4.704-6.302-9.409-6.821-15.565 c-0.52-6.155,28.937-21.314,22.126-33.044c-4.695-8.087-0.473-8.492-4.174-14.435c-3.436-5.516-4.083-2.435-8.973-7.723 c-4.91-5.312,0.729-10.654-5.984-16.365c-6.713-5.71,18.498-14.258,15.652-10.957 C201.912,208.981,190.892,213.743,190.892,213.743z" >

<animate repeatCount="indefinite" id="weed09anim01" attributeType="XML" attributeName="d" begin="0s" dur="2s" from="" to="" />

<animate repeatCount="indefinite" id="weed09anim02" attributeType="XML" attributeName="d" begin="weed09anim02.end" dur="2s" from="" to="" />

</path>

<path id="weed10" opacity="0.25" fill="#3D3F99"
d="M202.648,209.355c0,0,7.578,4.584,9.612,9.995 c2.035,5.41,5.381,7.138,1.022,13.095c-4.358,5.956-18.935,14.621-12.223,25.105c6.713,10.484,20.449,23.237,23.939,31.363 c3.49,8.128-1.898,21.141-4,22.552h-25.846c0,0-3.736,0.03,3.482-7.041s14.275-6.479,13.624-12.732 c-0.651-6.254-1.177-8.133-12.615-18.326c-11.438-10.192-14.059-21.168-8.721-26.812s14.501-7.967,15.482-15.272 c0.982-7.306,6.297-12.166-2.115-17.968c-8.413-5.801-14.083-9.721-9.138-7.839C200.1,207.356,202.648,209.355,202.648,209.355z"
>

<animate repeatCount="indefinite" id="weed10anim01" attributeType="XML" attributeName="d" begin="0s" dur="2s" from="" to="" />

<animate repeatCount="indefinite" id="weed10anim02" attributeType="XML" attributeName="d" begin="weed10anim02.end" dur="2s" from="" to="" />

</path>

</g>

<g id="SAND">

<g>

<g>

<path fill="#6162AC"
d="M238.566,299.51c-7.143-0.393-14.207-1.184-20.879-2.116c-20.801-2.959-44.912-10.017-52.477-20.487 v0.228c-7.564,2.276-16.074,8.65-23.639,11.837c-11.819,5.008-26.947,11.154-43.967,11.838 c-11.819,0.455-26.003-1.821-36.877-3.87c-17.02-3.642-30.256-10.017-43.494-16.162c-5.673-2.505-10.143-2.96-17.234-3.643 v34.332h238.568" >

</path>

</g>

</g>

</g>

</g>

</svg>
