<?xml version="1.0" encoding="utf-8"?>

<svg version="1.1" 
xmlns="http://www.w3.org/2000/svg" xmlns:xlink="http://www.w3.org/1999/xlink" x="0px" y="0px" width="792px" height="612px"
viewBox="0 0 792 612" enable-background="new 0 0 792 612" xml:space="preserve">

<g>

<filter  id="F">

<feTurbulence  type="fractalNoise" seed="1" baseFrequency="0.01" stitchTiles="noStitch" numOctaves="4">

<animate  fill="remove" attributeType="XML" repeatCount="indefinite" to="40" restart="always" id="makeNoise" calcMode="linear" additive="replace" from="1" accumulate="none" dur="1s" begin="0s" attributeName="seed">

</animate>

</feTurbulence>

</filter>

<g filter="url(#F)">

<rect x="75.586" y="65.064" fill="#FFFFFF" width="178" height="85.133"/>

</g>

<g>

<polygon fill="#513742" points="98.399,129.521 96.956,134.536 99.86,134.536 98.436,129.521 "/>

<path fill="#513742" d="M139.12,127.762c-0.389-0.796-0.555-0.777-1.406-0.777h-0.223v10.698h0.354
c0.777,0,0.961-0.092,1.295-0.777l1.629-3.294c0.203-0.426,0.352-0.74,0.352-1.203c0-0.629-0.203-0.981-0.463-1.518
L139.12,127.762z"/>

<path fill="#513742" d="M328.145,163.754c-2.868-9.755-6.312-19.222-10.041-28.404c-4.017-11.188-6.025-23.812-10.043-35.287
c-7.744-22.666-12.812-47.004-33.756-60.774c-1.723-1.131-3.729-1.481-5.643-2.63c-18.743-8.798-38.062-19.414-56.806-28.21
c-2.486-1.436-7.268-3.97-9.562-6.265c-23.909,10.232-57.667,9.804-77.366-1.005c-4.877,0.574-5.785,4.783-8.797,6.022
C111.827,9.21,95.474,18.873,89.45,22.314C76.616,29.647,61.477,36.086,49.428,42.11c-10.902,4.877-20.227,21.23-23.096,32.133
c-2.869,11.188-6.312,22.091-7.173,33.279c-0.573,7.747-0.86,15.779-2.868,22.666c-2.869,10.327-6.887,20.082-9.182,30.697
c-0.859,4.303-4.447,12.193-4.159,15.349c2.773,1.052,5.308,3.873,7.603,5.881c5.738,5.739,13.307,10.25,21.518,12.911
c6.789,2.199,23.525,5.547,30.41,2.057c1.531-5.547,3.928-11.787,4.783-16.593c2.801-5.763,2.246-8.416,2.965-15.686
c0.859,6.41-0.002,17.886-0.575,22.763c-2.868,10.04-2.583,28.402-2.009,38.729c0.287,6.026,0.395,9.109,1.148,15.206
c0,12.91-0.574,35.861-0.288,44.756c0.288,12.05-1.72,23.531-2.868,35.293c-0.574,5.738-1.291,11.621-1.578,17.07
c9.324,12.625,31.415,20.514,49.203,22.809c7.566,0.977,15.226,1.57,22.843,1.988c7.181,0.396,14.243-0.08,21.454,0.314
c5.52,0.301,11.158-0.15,16.667-0.15c10.615,0,20.8-1.004,31.128-2.439c19.795-2.008,49.92-6.455,63.689-21.947
c-2.295-8.318-2.867-17.07-4.877-25.391c-5.163-24.393-1.721-50.498-3.154-75.459c-1.435-24.1,0.86-46.333,0.86-70.288
c0-7.465-1.22-13.843-0.073-21.303c-1.004,16.498,5.668,30.339,8.823,44.111c2.296,3.586,12.192,2.152,15.923,1.577
c5.451-0.86,10.902-2.294,15.779-4.016c9.754-3.442,21.422-7.747,28.307-15.78C329.77,170.352,328.719,166.049,328.145,163.754z
M82.647,127.744l6.367,8.162c0.369,0.481,0.648,0.907,0.648,1.537c0,1.388-1.057,2.091-2.334,2.091h-4.07
c-0.703,0-1.314-0.129-1.871-0.592c-0.498-0.407-0.869-1.074-0.869-1.721c0-0.592,0.334-1.111,0.98-1.111
c0.537,0,0.871,0.444,0.871,0.944c0,0.555,0.295,0.629,0.814,0.629H87.2c0.148,0,0.611,0.056,0.611-0.222
c0-0.148-0.26-0.426-0.334-0.537l-6.348-8.162c-0.389-0.5-0.611-0.87-0.611-1.518c0-0.74,0.352-1.37,0.98-1.777
c0.52-0.333,0.945-0.333,1.537-0.333h3.924c0.703,0,1.295,0.148,1.832,0.611c0.482,0.426,0.871,1.11,0.871,1.758
c0,0.592-0.297,1.073-0.963,1.073c-0.557,0-0.889-0.352-0.889-0.87c0-0.629-0.314-0.722-0.889-0.722h-3.924
c-0.203,0-0.629-0.056-0.629,0.259C82.37,127.41,82.573,127.632,82.647,127.744z M102.063,139.534c-0.574,0-0.869-0.481-1-0.925
l-0.684-2.221h-3.943l-0.703,2.221c-0.129,0.444-0.426,0.925-1,0.925c-0.518,0-1.018-0.481-0.887-0.925l3.627-12.531
c0.148-0.5,0.352-0.944,0.943-0.944c0.611,0,0.834,0.463,0.963,0.944l3.572,12.531
C103.081,139.052,102.583,139.534,102.063,139.534z M116.317,128.983c0,0.241-0.02,0.5-0.111,0.722l-3.535,9.014
c-0.186,0.463-0.352,0.814-0.926,0.814s-0.74-0.352-0.926-0.814l-3.535-9.014c-0.092-0.222-0.111-0.481-0.111-0.722v-2.924
c0-0.592,0.26-0.925,0.926-0.925s0.926,0.333,0.926,0.925v2.961l2.721,7.07l2.721-7.07v-2.961c0-0.592,0.26-0.925,0.926-0.925
s0.926,0.333,0.926,0.925V128.983z M125.071,131.408c0.482,0,0.926,0.259,0.926,0.925c0,0.667-0.443,0.926-0.926,0.926h-2.721
v4.423h6.367c0.482,0,0.926,0.259,0.926,0.926c0,0.666-0.443,0.925-0.926,0.925H120.5v-14.4h8.217
c0.482,0,0.926,0.259,0.926,0.925c0,0.667-0.443,0.926-0.926,0.926h-6.367v4.423H125.071z M119.11,117.303
c-2.132,0-3.983-0.393-5.666-1.795c-1.516-1.234-2.638-3.254-2.638-5.218c0-1.795,1.01-3.367,2.974-3.367
c1.627,0,2.638,1.347,2.638,2.862c0,1.683,0.897,1.907,2.468,1.907h12.176c0.448,0,1.852,0.168,1.852-0.673
c0-0.449-0.786-1.291-1.01-1.627l-19.245-24.743c-1.178-1.515-1.852-2.637-1.852-4.601c0-2.244,1.066-4.152,2.974-5.386
c1.571-1.01,2.861-1.01,4.657-1.01h11.895c2.132,0,3.928,0.449,5.555,1.852c1.459,1.291,2.637,3.366,2.637,5.33
c0,1.795-0.897,3.254-2.918,3.254c-1.683,0-2.692-1.066-2.692-2.637c0-1.908-0.954-2.188-2.693-2.188h-11.895
c-0.617,0-1.907-0.168-1.907,0.785c0,0.505,0.616,1.178,0.841,1.515l19.301,24.743c1.122,1.459,1.964,2.75,1.964,4.657
c0,4.208-3.198,6.34-7.069,6.34H119.11z M142.434,134.425l-1.686,3.369c-0.646,1.314-1.48,1.74-2.924,1.74h-3.072
c-0.48,0-0.926-0.259-0.926-0.925c0-0.667,0.445-0.926,0.926-0.926h0.889v-10.698h-0.686c-0.611,0-1.129-0.222-1.129-0.926
c0-0.666,0.5-0.925,1.074-0.925h3.09c1.443,0,2.166,0.592,2.795,1.851l1.629,3.257c0.371,0.759,0.557,1.296,0.557,2.147
C142.971,133.129,142.766,133.759,142.434,134.425z M151.534,87.511c-0.28-0.673-0.337-1.459-0.337-2.188v-8.865
c0-1.795,0.786-2.805,2.806-2.805s2.806,1.01,2.806,2.805v8.977l8.247,21.433l8.248-21.433v-8.977
c0-1.795,0.785-2.805,2.805-2.805c2.021,0,2.806,1.01,2.806,2.805v8.865c0,0.729-0.056,1.515-0.337,2.188l-10.716,27.324
c-0.562,1.403-1.066,2.469-2.806,2.469s-2.244-1.066-2.806-2.469L151.534,87.511z M169.625,138.608
c0,0.592-0.26,0.925-0.926,0.925s-0.926-0.333-0.926-0.925v-10.92h-0.037l-1.758,2.61v0.296c0,0.574-0.223,1.111-0.926,1.111
c-0.666,0-0.926-0.537-0.926-1.111v-0.296l-1.758-2.61h-0.037v10.92c0,0.592-0.26,0.925-0.926,0.925s-0.926-0.333-0.926-0.925
v-13.475h2.314l2.258,3.257l2.258-3.257h2.314V138.608z M182.952,127.947l-3.646,4.738v5.923c0,0.592-0.26,0.925-0.926,0.925
s-0.926-0.333-0.926-0.925v-5.923l-3.645-4.738v-1.888c0-0.592,0.258-0.925,0.924-0.925c0.668,0,0.926,0.333,0.926,0.925v1.259
l2.721,3.535l2.721-3.535v-1.259c0-0.592,0.26-0.925,0.926-0.925s0.926,0.333,0.926,0.925V127.947z M208.68,139.534h-8.217
v-13.475c0-0.592,0.258-0.925,0.924-0.925c0.668,0,0.926,0.333,0.926,0.925v11.624h6.367c0.482,0,0.926,0.259,0.926,0.926
C209.606,139.274,209.163,139.534,208.68,139.534z M200.678,117.303c-2.581,0-4.489-0.449-6.453-2.244
c-2.244-2.02-2.637-4.096-2.637-6.901V94.131c0-3.591,0.786-5.442,2.918-8.192l6.62-8.472c2.244-2.862,4.208-3.815,7.855-3.815
h7.518c1.459,0,2.806,0.786,2.806,2.805c0,2.02-1.347,2.806-2.806,2.806h-6.732c-3.086,0-2.861-0.056-4.713,2.3l-6.115,7.799
c-1.739,2.188-1.739,4.544-1.739,7.294v10.997c0,3.086,0.673,4.04,3.871,4.04h8.921c2.02,0,3.703-0.449,3.703-2.917v-5.723
h-5.442c-1.459,0-2.806-0.786-2.806-2.805c0-2.02,1.347-2.806,2.806-2.806h11.053v11.053c0,5.442-3.646,8.809-8.977,8.809
H200.678z M222.008,137.683c0.48,0,0.926,0.259,0.926,0.926c0,0.666-0.445,0.925-0.926,0.925h-7.293
c-0.48,0-0.926-0.259-0.926-0.925c0-0.667,0.445-0.926,0.926-0.926h2.721v-10.698h-2.721c-0.48,0-0.926-0.259-0.926-0.926
c0-0.666,0.445-0.925,0.926-0.925h7.293c0.48,0,0.926,0.259,0.926,0.925c0,0.667-0.445,0.926-0.926,0.926h-2.721v10.698H222.008z
M235.334,126.985h-6.367v2.85h4.553c0.48,0,0.926,0.259,0.926,0.925c0,0.667-0.445,0.926-0.926,0.926h-4.553v6.922
c0,0.592-0.26,0.925-0.926,0.925s-0.926-0.333-0.926-0.925v-13.475h8.219c0.48,0,0.926,0.259,0.926,0.925
C236.26,126.726,235.815,126.985,235.334,126.985z M245.014,131.408c0.482,0,0.926,0.259,0.926,0.925
c0,0.667-0.443,0.926-0.926,0.926h-2.721v4.423h6.367c0.482,0,0.926,0.259,0.926,0.926c0,0.666-0.443,0.925-0.926,0.925h-8.217
v-14.4h8.217c0.482,0,0.926,0.259,0.926,0.925c0,0.667-0.443,0.926-0.926,0.926h-6.367v4.423H245.014z"/>

</g>

<linearGradient id="SVGID_1_" gradientUnits="userSpaceOnUse" x1="166.312" y1="4.377" x2="166.312" y2="364.0339">

<stop  offset="0.1" style="stop-color:#1A1A1A"/>

<stop  offset="0.3329" style="stop-color:#151414"/>

<stop  offset="0.6371" style="stop-color:#010101"/>

<stop  offset="0.65" style="stop-color:#000000"/>

<stop  offset="1" style="stop-color:#000000"/>

</linearGradient>

<path fill="url(#SVGID_1_)" d="M266.76,328.525l-0.955,0.961c-0.164,0.164-0.16,0.432,0.006,0.6
c0.166,0.166,0.438,0.164,0.605-0.004l0.975-0.982c0.168-0.168,0.162-0.432-0.016-0.59
C267.198,328.355,266.922,328.361,266.76,328.525z M265.211,330.082l-0.954,0.961c-0.163,0.166-0.169,0.439-0.017,0.611
c0.162,0.18,0.426,0.188,0.592,0.02l0.979-0.982c0.168-0.168,0.168-0.439,0-0.605
C265.643,329.918,265.375,329.918,265.211,330.082z M263.627,331.6l-1.052,0.854c-0.18,0.146-0.207,0.414-0.06,0.598
c0.148,0.184,0.418,0.213,0.602,0.062l1.075-0.871c0.185-0.15,0.206-0.414,0.048-0.588
C264.083,331.479,263.809,331.453,263.627,331.6z M261.921,332.984l-1.052,0.852c-0.176,0.154-0.229,0.404-0.088,0.598
c0.135,0.188,0.414,0.246,0.594,0.092l1.076-0.871c0.185-0.15,0.213-0.42,0.064-0.604
C262.369,332.869,262.102,332.838,261.921,332.984z M260.18,334.318l-1.133,0.748c-0.194,0.129-0.246,0.391-0.117,0.59
c0.128,0.197,0.393,0.252,0.591,0.121l1.153-0.764c0.197-0.131,0.245-0.391,0.107-0.58
C260.643,334.242,260.373,334.189,260.18,334.318z M258.346,335.531l-1.135,0.748c-0.197,0.119-0.271,0.369-0.15,0.572
c0.119,0.201,0.387,0.281,0.591,0.16l1.153-0.762c0.198-0.131,0.253-0.398,0.125-0.594
C258.799,335.459,258.538,335.402,258.346,335.531z M256.474,336.686l-1.192,0.65c-0.205,0.111-0.281,0.369-0.17,0.576
c0.111,0.209,0.369,0.287,0.578,0.172l1.213-0.658c0.207-0.113,0.279-0.369,0.158-0.574
C256.941,336.648,256.678,336.574,256.474,336.686z M254.541,337.738l-1.197,0.643c-0.212,0.096-0.301,0.346-0.198,0.559
c0.102,0.213,0.361,0.307,0.576,0.207l1.217-0.652c0.207-0.113,0.285-0.373,0.174-0.582
C255,337.707,254.745,337.627,254.541,337.738z M252.575,338.729l-1.239,0.561c-0.212,0.096-0.308,0.35-0.212,0.564
c0.095,0.217,0.348,0.312,0.562,0.215l1.256-0.568c0.215-0.098,0.305-0.348,0.203-0.561
C253.042,338.727,252.787,338.633,252.575,338.729z M250.565,339.637l-1.244,0.547c-0.219,0.084-0.324,0.328-0.235,0.547
c0.087,0.219,0.339,0.328,0.56,0.244l1.262-0.555c0.215-0.096,0.312-0.35,0.217-0.566
C251.028,339.639,250.778,339.541,250.565,339.637z M248.53,340.484l-1.271,0.482c-0.219,0.084-0.328,0.332-0.248,0.553
c0.082,0.221,0.328,0.332,0.549,0.248l1.287-0.488c0.221-0.086,0.328-0.332,0.239-0.549
C248.997,340.512,248.749,340.402,248.53,340.484z M246.468,341.27l-1.28,0.465c-0.223,0.074-0.34,0.312-0.265,0.537
c0.075,0.223,0.319,0.346,0.544,0.273l1.293-0.473c0.221-0.084,0.333-0.332,0.25-0.553
C246.928,341.299,246.685,341.186,246.468,341.27z M244.383,341.998l-1.297,0.42c-0.223,0.072-0.345,0.312-0.274,0.539
c0.071,0.223,0.31,0.348,0.534,0.275l1.309-0.426c0.225-0.072,0.344-0.312,0.269-0.535S244.605,341.924,244.383,341.998z
M242.282,342.68l-1.305,0.402c-0.224,0.062-0.354,0.299-0.285,0.523c0.064,0.227,0.303,0.359,0.531,0.295l1.312-0.406
c0.224-0.072,0.348-0.314,0.276-0.537C242.741,342.73,242.502,342.607,242.282,342.68z M240.163,343.312l-1.314,0.371
c-0.224,0.062-0.355,0.299-0.293,0.525c0.062,0.229,0.297,0.359,0.523,0.297l1.322-0.373c0.227-0.064,0.355-0.301,0.291-0.527
C240.624,343.381,240.387,343.248,240.163,343.312z M238.034,343.912l-1.32,0.346c-0.229,0.055-0.365,0.283-0.305,0.512
c0.059,0.229,0.291,0.369,0.521,0.316l1.328-0.35c0.227-0.064,0.359-0.301,0.297-0.527S238.258,343.85,238.034,343.912z
M235.889,344.453l-1.33,0.316c-0.229,0.053-0.367,0.283-0.311,0.512s0.288,0.371,0.518,0.316l1.334-0.316
c0.23-0.055,0.367-0.283,0.309-0.512C236.348,344.541,236.116,344.4,235.889,344.453z M233.733,344.965l-1.33,0.314
c-0.227,0.055-0.367,0.285-0.314,0.514c0.055,0.23,0.284,0.371,0.514,0.318l1.335-0.316c0.228-0.055,0.368-0.285,0.312-0.514
S233.961,344.91,233.733,344.965z M231.579,345.477l-1.33,0.314c-0.229,0.053-0.37,0.283-0.318,0.514
c0.051,0.23,0.277,0.373,0.506,0.32l1.336-0.318c0.229-0.053,0.371-0.283,0.316-0.514
C232.036,345.564,231.806,345.42,231.579,345.477z M229.423,345.986l-1.329,0.314c-0.229,0.055-0.373,0.285-0.324,0.516
s0.273,0.375,0.502,0.318l1.336-0.314c0.229-0.055,0.373-0.285,0.322-0.516C229.878,346.074,229.651,345.932,229.423,345.986z
M227.268,346.49l-1.344,0.25c-0.231,0.043-0.381,0.266-0.334,0.496s0.271,0.385,0.503,0.342l1.35-0.25
c0.231-0.045,0.375-0.283,0.327-0.512C227.721,346.584,227.499,346.449,227.268,346.49z M225.09,346.896l-1.345,0.248
c-0.229,0.043-0.381,0.266-0.337,0.498c0.044,0.23,0.268,0.385,0.498,0.342l1.35-0.25c0.231-0.043,0.383-0.268,0.334-0.498
C225.543,347.006,225.32,346.852,225.09,346.896z M222.911,347.299l-1.343,0.25c-0.23,0.043-0.384,0.266-0.341,0.498
c0.041,0.232,0.263,0.385,0.494,0.342l1.349-0.25c0.231-0.043,0.383-0.266,0.339-0.496
C223.364,347.41,223.143,347.256,222.911,347.299z M220.735,347.703l-1.345,0.25c-0.23,0.043-0.385,0.266-0.345,0.498
c0.037,0.232,0.258,0.387,0.489,0.344l1.35-0.25c0.229-0.043,0.384-0.266,0.343-0.498
C221.184,347.814,220.963,347.662,220.735,347.703z M218.555,348.107l-1.344,0.246c-0.232,0.031-0.39,0.248-0.353,0.48
c0.036,0.232,0.255,0.396,0.489,0.361l1.35-0.244c0.232-0.043,0.385-0.268,0.348-0.5
C219.004,348.219,218.786,348.066,218.555,348.107z M216.372,348.473l-1.354,0.189c-0.232,0.035-0.393,0.25-0.357,0.482
c0.036,0.232,0.253,0.396,0.486,0.363l1.357-0.191c0.232-0.033,0.391-0.25,0.354-0.482
C216.821,348.602,216.603,348.439,216.372,348.473z M214.177,348.783l-1.354,0.189c-0.232,0.035-0.394,0.25-0.36,0.482
c0.033,0.234,0.248,0.396,0.482,0.363l1.357-0.191c0.233-0.033,0.394-0.25,0.357-0.482
C214.625,348.912,214.41,348.75,214.177,348.783z M211.983,349.092l-1.354,0.191c-0.232,0.033-0.395,0.25-0.363,0.484
c0.031,0.232,0.246,0.396,0.479,0.361l1.357-0.191c0.234-0.031,0.395-0.248,0.361-0.482
C212.43,349.223,212.215,349.059,211.983,349.092z M209.79,349.402l-1.354,0.191c-0.232,0.033-0.396,0.25-0.367,0.484
c0.029,0.232,0.242,0.396,0.475,0.363l1.358-0.191c0.233-0.033,0.396-0.25,0.364-0.482
C210.235,349.533,210.022,349.369,209.79,349.402z M207.596,349.713l-1.359,0.158c-0.232,0.023-0.398,0.232-0.372,0.467
c0.028,0.234,0.239,0.404,0.473,0.379l1.362-0.156c0.232-0.033,0.398-0.25,0.369-0.482
C208.04,349.844,207.827,349.68,207.596,349.713z M205.393,349.957l-1.361,0.141c-0.23,0.025-0.4,0.236-0.374,0.469
c0.026,0.236,0.235,0.406,0.47,0.383l1.364-0.143c0.233-0.023,0.401-0.234,0.373-0.469
C205.838,350.104,205.626,349.934,205.393,349.957z M203.19,350.188l-1.361,0.141c-0.232,0.025-0.402,0.236-0.379,0.469
c0.024,0.236,0.232,0.406,0.467,0.383l1.364-0.145c0.233-0.023,0.403-0.232,0.377-0.469
C203.631,350.334,203.422,350.164,203.19,350.188z M200.985,350.416l-1.359,0.143c-0.234,0.023-0.404,0.232-0.383,0.469
c0.021,0.234,0.23,0.404,0.463,0.381l1.365-0.143c0.234-0.023,0.403-0.232,0.379-0.469
C201.426,350.564,201.218,350.393,200.985,350.416z M198.78,350.646l-1.359,0.141c-0.232,0.025-0.406,0.234-0.385,0.469
c0.02,0.236,0.227,0.406,0.461,0.383l1.363-0.143c0.233-0.025,0.404-0.234,0.383-0.469
C199.221,350.791,199.014,350.621,198.78,350.646z M196.575,350.859l-1.364,0.098c-0.233,0.016-0.407,0.219-0.39,0.455
c0.02,0.234,0.226,0.412,0.459,0.396l1.369-0.098c0.232-0.016,0.406-0.219,0.387-0.455
C197.014,351.021,196.809,350.844,196.575,350.859z M194.364,351.018l-1.365,0.096c-0.234,0.018-0.408,0.221-0.392,0.457
c0.019,0.234,0.223,0.412,0.457,0.395l1.368-0.096c0.234-0.018,0.408-0.223,0.389-0.457
C194.802,351.176,194.598,351,194.364,351.018z M192.152,351.174l-1.364,0.096c-0.234,0.016-0.41,0.221-0.394,0.455
c0.016,0.236,0.219,0.412,0.454,0.396l1.367-0.096c0.234-0.018,0.41-0.221,0.392-0.455
C192.59,351.334,192.385,351.158,192.152,351.174z M189.942,351.328l-1.365,0.098c-0.233,0.016-0.412,0.221-0.396,0.457
c0.016,0.234,0.217,0.412,0.451,0.396l1.367-0.098c0.234-0.018,0.411-0.221,0.396-0.457
C190.377,351.49,190.175,351.312,189.942,351.328z M187.729,351.484l-1.364,0.098c-0.233,0.016-0.412,0.221-0.399,0.457
c0.014,0.234,0.215,0.412,0.449,0.395l1.369-0.096c0.232-0.016,0.412-0.221,0.396-0.455
C188.165,351.646,187.963,351.469,187.729,351.484z M185.518,351.643l-1.365,0.078c-0.234,0.01-0.414,0.207-0.402,0.443
c0.014,0.234,0.213,0.42,0.447,0.412l1.367-0.082c0.234-0.018,0.414-0.221,0.4-0.455
C185.953,351.803,185.752,351.625,185.518,351.643z M183.305,351.752l-1.367,0.049c-0.234,0.01-0.416,0.207-0.406,0.443
c0.012,0.234,0.21,0.418,0.445,0.41l1.371-0.049c0.233-0.008,0.416-0.207,0.402-0.441
C183.739,351.928,183.54,351.744,183.305,351.752z M181.09,351.832l-1.367,0.049c-0.234,0.008-0.418,0.207-0.408,0.441
c0.01,0.236,0.207,0.422,0.441,0.412l1.37-0.049c0.235-0.008,0.417-0.207,0.405-0.441
C181.522,352.008,181.325,351.824,181.09,351.832z M178.875,351.912l-1.368,0.049c-0.233,0.008-0.417,0.207-0.408,0.441
c0.006,0.236,0.203,0.42,0.438,0.412l1.371-0.051c0.234-0.008,0.418-0.205,0.408-0.441
C179.305,352.088,179.108,351.902,178.875,351.912z M176.659,351.99l-1.366,0.051c-0.235,0.008-0.419,0.205-0.414,0.441
c0.007,0.234,0.202,0.42,0.437,0.412l1.37-0.049c0.235-0.01,0.419-0.207,0.413-0.443
C177.089,352.168,176.893,351.982,176.659,351.99z M174.444,352.07l-1.366,0.051c-0.235,0.008-0.421,0.205-0.417,0.441
s0.199,0.42,0.434,0.412l1.371-0.051c0.234-0.008,0.42-0.207,0.413-0.441C174.874,352.246,174.678,352.062,174.444,352.07z
M172.229,352.15l-1.369,0.021c-0.234,0.004-0.422,0.197-0.418,0.434s0.197,0.424,0.432,0.422l1.371-0.023
c0.234-0.008,0.42-0.205,0.416-0.441S172.463,352.141,172.229,352.15z M170.01,352.186l-1.369,0.021
c-0.234,0.004-0.422,0.197-0.418,0.434s0.196,0.426,0.432,0.422l1.369-0.021c0.235-0.006,0.422-0.199,0.418-0.436
S170.245,352.182,170.01,352.186z M167.792,352.221l-1.37,0.021c-0.233,0.004-0.422,0.197-0.418,0.434
c0.003,0.236,0.195,0.424,0.43,0.42l1.371-0.021c0.234-0.004,0.422-0.197,0.418-0.434S168.026,352.217,167.792,352.221z
M165.574,352.256l-1.368,0.014c-0.236,0.002-0.424,0.195-0.421,0.432s0.195,0.426,0.43,0.424l1.37-0.016
c0.234-0.004,0.423-0.197,0.42-0.434C166,352.439,165.808,352.252,165.574,352.256z M163.355,352.279l-1.368,0.012
c-0.235,0.002-0.424,0.195-0.422,0.432s0.194,0.426,0.43,0.422l1.369-0.012c0.234-0.002,0.424-0.195,0.421-0.432
S163.59,352.275,163.355,352.279z M161.137,352.299l-1.369,0.014c-0.234,0-0.422,0.195-0.422,0.432
c0.002,0.234,0.193,0.424,0.428,0.422l1.37-0.014c0.235-0.002,0.423-0.193,0.421-0.43S161.372,352.297,161.137,352.299z
M158.918,352.32l-1.369,0.004c-0.234-0.002-0.423,0.191-0.422,0.426c0,0.236,0.191,0.426,0.426,0.428l1.37-0.004
c0.235-0.002,0.425-0.195,0.423-0.43C159.344,352.508,159.154,352.318,158.918,352.32z M156.702,352.322h-1.369
c-0.234,0-0.424,0.191-0.425,0.426c0,0.236,0.19,0.428,0.425,0.428h1.37c0.235,0,0.425-0.189,0.425-0.426
C157.126,352.516,156.935,352.322,156.702,352.322z M154.485,352.322h-1.369c-0.236-0.002-0.426,0.189-0.428,0.426
c-0.001,0.236,0.189,0.426,0.424,0.428h1.371c0.234,0,0.425-0.191,0.425-0.428C154.909,352.514,154.717,352.322,154.485,352.322z
M152.266,352.32l-1.369-0.008c-0.234-0.004-0.426,0.186-0.428,0.42c-0.002,0.236,0.188,0.43,0.422,0.434l1.371,0.008
c0.234,0,0.425-0.189,0.426-0.426C152.69,352.512,152.5,352.32,152.266,352.32z M150.049,352.299l-1.369-0.02
c-0.234-0.002-0.427,0.186-0.43,0.422c-0.004,0.236,0.185,0.43,0.42,0.432l1.369,0.021c0.235,0.004,0.428-0.186,0.43-0.422
C150.471,352.498,150.282,352.303,150.049,352.299z M147.831,352.268l-1.367-0.02c-0.234-0.002-0.428,0.186-0.434,0.422
c-0.003,0.236,0.184,0.43,0.418,0.434l1.371,0.02c0.236,0.004,0.428-0.186,0.432-0.422
C148.253,352.465,148.065,352.271,147.831,352.268z M145.614,352.236l-1.367-0.023c-0.234-0.008-0.428,0.178-0.435,0.414
c-0.005,0.234,0.18,0.432,0.415,0.439l1.371,0.025c0.234,0.002,0.429-0.186,0.432-0.422
C146.036,352.434,145.85,352.24,145.614,352.236z M143.399,352.186l-1.369-0.043c-0.232-0.008-0.429,0.18-0.436,0.414
c-0.008,0.236,0.178,0.434,0.412,0.441l1.371,0.043c0.234,0.006,0.43-0.18,0.435-0.414
C143.819,352.391,143.631,352.193,143.399,352.186z M141.182,352.115l-1.367-0.041c-0.234-0.008-0.431,0.178-0.439,0.414
c-0.008,0.234,0.174,0.432,0.41,0.438l1.371,0.045c0.234,0.008,0.43-0.178,0.438-0.414
C141.601,352.322,141.417,352.125,141.182,352.115z M138.967,352.047l-1.367-0.043c-0.234-0.012-0.433,0.17-0.441,0.404
c-0.011,0.236,0.172,0.438,0.406,0.449l1.37,0.043c0.235,0.008,0.433-0.178,0.44-0.412
C139.383,352.252,139.202,352.055,138.967,352.047z M136.752,351.961l-1.365-0.072c-0.234-0.012-0.434,0.17-0.445,0.404
c-0.012,0.236,0.168,0.438,0.404,0.449l1.369,0.07c0.234,0.012,0.433-0.168,0.443-0.404
C137.167,352.174,136.987,351.973,136.752,351.961z M134.54,351.844l-1.366-0.07c-0.233-0.014-0.435,0.17-0.448,0.404
s0.166,0.436,0.4,0.449l1.369,0.07c0.234,0.012,0.436-0.168,0.447-0.404C134.954,352.059,134.773,351.857,134.54,351.844z
M132.327,351.729l-1.367-0.07c-0.233-0.012-0.435,0.166-0.451,0.4c-0.014,0.234,0.163,0.441,0.398,0.451l1.369,0.072
c0.234,0.012,0.436-0.17,0.449-0.404S132.559,351.742,132.327,351.729z M130.114,351.6l-1.363-0.105
c-0.234-0.018-0.438,0.158-0.453,0.395c-0.02,0.234,0.158,0.439,0.393,0.459l1.367,0.104c0.234,0.018,0.438-0.158,0.451-0.393
C130.524,351.824,130.348,351.617,130.114,351.6z M127.905,351.43l-1.363-0.105c-0.234-0.018-0.438,0.158-0.459,0.393
c-0.018,0.236,0.156,0.441,0.391,0.459l1.368,0.105c0.233,0.018,0.437-0.158,0.456-0.393
C128.313,351.652,128.139,351.447,127.905,351.43z M125.694,351.258l-1.363-0.104c-0.232-0.018-0.438,0.158-0.459,0.393
c-0.021,0.234,0.15,0.439,0.385,0.459l1.367,0.105c0.235,0.018,0.441-0.158,0.459-0.395
C126.103,351.482,125.928,351.277,125.694,351.258z M123.487,351.08l-1.359-0.145c-0.232-0.023-0.44,0.146-0.465,0.381
c-0.022,0.234,0.147,0.443,0.381,0.469l1.365,0.146c0.234,0.025,0.441-0.146,0.463-0.385
C123.891,351.314,123.719,351.105,123.487,351.08z M121.284,350.848l-1.358-0.145c-0.233-0.023-0.444,0.145-0.469,0.381
c-0.026,0.232,0.142,0.443,0.376,0.467l1.364,0.146c0.235,0.023,0.443-0.146,0.466-0.381
C121.687,351.082,121.516,350.871,121.284,350.848z M119.082,350.615l-1.358-0.145c-0.234-0.025-0.445,0.145-0.475,0.379
c-0.027,0.234,0.139,0.445,0.373,0.469l1.365,0.145c0.232,0.025,0.443-0.146,0.47-0.379
C119.481,350.848,119.313,350.639,119.082,350.615z M116.879,350.379l-1.354-0.188c-0.231-0.031-0.445,0.131-0.477,0.365
c-0.03,0.234,0.133,0.449,0.365,0.48l1.361,0.188c0.232,0.031,0.445-0.143,0.473-0.375
C117.278,350.615,117.112,350.408,116.879,350.379z M114.686,350.074l-1.354-0.186c-0.231-0.031-0.447,0.131-0.481,0.365
c-0.034,0.232,0.126,0.447,0.36,0.48l1.36,0.188c0.233,0.033,0.447-0.131,0.478-0.365
C115.081,350.322,114.918,350.107,114.686,350.074z M112.493,349.771l-1.352-0.197c-0.23-0.039-0.447,0.117-0.484,0.35
s0.119,0.455,0.352,0.494l1.359,0.199c0.232,0.033,0.449-0.131,0.483-0.363C112.885,350.02,112.725,349.805,112.493,349.771z
M110.307,349.428l-1.346-0.236c-0.23-0.039-0.449,0.117-0.49,0.35c-0.041,0.23,0.113,0.451,0.346,0.494l1.352,0.236
c0.232,0.041,0.451-0.115,0.488-0.348S110.538,349.469,110.307,349.428z M108.127,349.045l-1.346-0.236
c-0.229-0.039-0.453,0.115-0.497,0.348c-0.045,0.23,0.106,0.453,0.339,0.492l1.353,0.238c0.232,0.039,0.454-0.115,0.495-0.346
C108.512,349.309,108.358,349.086,108.127,349.045z M105.948,348.662l-1.332-0.291c-0.229-0.049-0.453,0.096-0.503,0.326
c-0.048,0.232,0.099,0.461,0.329,0.512l1.342,0.293c0.232,0.041,0.457-0.113,0.501-0.346S106.178,348.705,105.948,348.662z
M103.789,348.189l-1.332-0.295c-0.229-0.051-0.456,0.094-0.511,0.324c-0.053,0.229,0.091,0.457,0.32,0.508l1.343,0.297
c0.229,0.053,0.456-0.094,0.504-0.326C104.163,348.467,104.016,348.24,103.789,348.189z M101.629,347.713l-1.332-0.297
c-0.226-0.062-0.454,0.072-0.512,0.301s0.079,0.465,0.306,0.527l1.341,0.299c0.23,0.051,0.461-0.096,0.514-0.324
C101.999,347.988,101.858,347.762,101.629,347.713z M99.481,347.189l-1.314-0.363c-0.225-0.062-0.457,0.072-0.521,0.299
c-0.062,0.227,0.07,0.463,0.299,0.525l1.326,0.367c0.227,0.062,0.458-0.072,0.516-0.301
C99.842,347.488,99.708,347.252,99.481,347.189z M97.352,346.602l-1.314-0.363c-0.226-0.062-0.463,0.07-0.53,0.295
c-0.067,0.227,0.062,0.461,0.288,0.523l1.326,0.367c0.227,0.062,0.461-0.072,0.523-0.299
C97.708,346.898,97.577,346.662,97.352,346.602z M95.221,346.012c-0.441-0.109-0.864-0.277-1.297-0.42
c-0.221-0.076-0.459,0.045-0.531,0.27c-0.073,0.225,0.049,0.467,0.271,0.545c0.436,0.143,0.863,0.314,1.309,0.424
c0.227,0.062,0.467-0.07,0.534-0.297C95.575,346.309,95.446,346.074,95.221,346.012z M93.125,345.318l-1.289-0.443
c-0.221-0.074-0.464,0.043-0.543,0.266c-0.078,0.223,0.039,0.465,0.262,0.541l1.301,0.447c0.225,0.076,0.464-0.043,0.537-0.268
C93.465,345.637,93.346,345.395,93.125,345.318z M91.037,344.602l-1.29-0.443c-0.222-0.07-0.465,0.037-0.549,0.252
c-0.085,0.223,0.023,0.475,0.248,0.547l1.301,0.447c0.225,0.076,0.469-0.041,0.547-0.264
C91.373,344.918,91.256,344.676,91.037,344.602z M88.961,343.848l-1.253-0.531c-0.215-0.092-0.463,0.01-0.554,0.229
c-0.091,0.217,0.01,0.469,0.229,0.561l1.269,0.537c0.218,0.094,0.462-0.012,0.546-0.232
C89.282,344.191,89.176,343.938,88.961,343.848z M86.93,342.986l-1.254-0.533c-0.214-0.09-0.468,0.01-0.564,0.225
c-0.098,0.215-0.002,0.463,0.217,0.557l1.27,0.539c0.215,0.09,0.466-0.012,0.557-0.229
C87.245,343.326,87.145,343.076,86.93,342.986z M84.899,342.125c-0.424-0.166-0.834-0.361-1.23-0.582
c-0.205-0.109-0.457-0.023-0.562,0.188s-0.019,0.473,0.19,0.582c0.402,0.223,0.816,0.42,1.245,0.588
c0.217,0.092,0.472-0.008,0.569-0.223C85.208,342.463,85.114,342.217,84.899,342.125z M82.921,341.15l-1.206-0.629
c-0.207-0.107-0.464-0.027-0.575,0.182c-0.11,0.207-0.031,0.465,0.178,0.574l1.222,0.639c0.209,0.109,0.464,0.025,0.567-0.186
S83.127,341.26,82.921,341.15z M80.967,340.131l-1.205-0.631c-0.207-0.107-0.471-0.031-0.589,0.174
c-0.118,0.203-0.046,0.457,0.165,0.568l1.221,0.639c0.211,0.109,0.471,0.029,0.581-0.178
C81.25,340.494,81.173,340.238,80.967,340.131z M79.028,339.082l-1.142-0.738c-0.196-0.125-0.456-0.064-0.581,0.135
c-0.127,0.197-0.067,0.465,0.131,0.594l1.16,0.748c0.197,0.131,0.457,0.062,0.577-0.146
C79.289,339.473,79.221,339.213,79.028,339.082z M77.177,337.889l-1.143-0.736c-0.194-0.127-0.462-0.072-0.595,0.123
c-0.134,0.193-0.081,0.455,0.117,0.584l1.158,0.748c0.199,0.129,0.463,0.07,0.59-0.129
C77.43,338.277,77.373,338.016,77.177,337.889z M75.326,336.693c-0.38-0.246-0.769-0.48-1.12-0.768
c-0.185-0.141-0.449-0.102-0.59,0.088c-0.141,0.188-0.104,0.459,0.086,0.602c0.357,0.291,0.751,0.529,1.138,0.781
c0.198,0.127,0.467,0.072,0.601-0.121C75.573,337.08,75.521,336.82,75.326,336.693z M73.535,335.414l-1.079-0.822
c-0.189-0.137-0.451-0.111-0.6,0.07c-0.15,0.182-0.125,0.457,0.066,0.596l1.098,0.838c0.188,0.145,0.455,0.107,0.596-0.082
S73.721,335.555,73.535,335.414z M71.805,334.057l-1.031-0.885c-0.176-0.152-0.447-0.131-0.604,0.045s-0.139,0.443,0.041,0.598
l1.051,0.898c0.179,0.154,0.445,0.131,0.594-0.051C72.004,334.479,71.981,334.207,71.805,334.057z M70.134,332.623l-0.985-0.934
c-0.166-0.162-0.436-0.156-0.6,0.014c-0.164,0.168-0.16,0.439,0.011,0.604l1.001,0.951c0.181,0.154,0.453,0.135,0.609-0.041
S70.311,332.773,70.134,332.623z M68.543,331.104c-0.318-0.32-0.666-0.613-0.961-0.959c-0.155-0.17-0.422-0.18-0.594-0.02
c-0.172,0.162-0.183,0.436-0.023,0.611l0.979,0.977c0.17,0.162,0.441,0.158,0.605-0.01
C68.713,331.533,68.71,331.264,68.543,331.104z M67.016,329.523l-0.914-1.004c-0.156-0.17-0.428-0.188-0.608-0.033
c-0.181,0.15-0.196,0.418-0.036,0.594l0.932,1.021c0.158,0.176,0.428,0.188,0.6,0.023
C67.161,329.965,67.172,329.695,67.016,329.523z M265.787,326.006l0.978-0.994c0.168-0.17,0.162-0.436-0.016-0.592
c-0.176-0.156-0.451-0.148-0.617,0.018l-0.959,0.975c-0.162,0.166-0.16,0.436,0.008,0.602S265.62,326.176,265.787,326.006z
M264.202,327.617l0.979-0.994c0.168-0.17,0.168-0.443,0-0.609c-0.168-0.164-0.438-0.164-0.602,0.002l-0.959,0.975
c-0.16,0.172-0.174,0.439-0.018,0.609C263.764,327.777,264.038,327.791,264.202,327.617z M262.485,329.084l1.072-0.893
c0.184-0.152,0.203-0.418,0.045-0.592c-0.159-0.174-0.434-0.193-0.613-0.045l-1.053,0.875c-0.181,0.148-0.205,0.418-0.057,0.6
C262.03,329.213,262.299,329.236,262.485,329.084z M260.747,330.525l1.073-0.891c0.184-0.15,0.21-0.424,0.06-0.605
c-0.148-0.182-0.416-0.207-0.596-0.059l-1.053,0.873c-0.184,0.146-0.232,0.396-0.091,0.59
C260.278,330.619,260.559,330.674,260.747,330.525z M258.887,331.807l1.15-0.785c0.197-0.137,0.243-0.398,0.103-0.588
c-0.142-0.188-0.411-0.236-0.604-0.104l-1.13,0.771c-0.192,0.133-0.243,0.398-0.112,0.594
C258.424,331.893,258.69,331.941,258.887,331.807z M257.014,333.066l1.16-0.771c0.197-0.135,0.25-0.402,0.119-0.6
c-0.131-0.193-0.395-0.246-0.588-0.115l-1.139,0.76c-0.203,0.115-0.27,0.371-0.148,0.574
C256.54,333.115,256.807,333.184,257.014,333.066z M255.051,334.176l1.213-0.684c0.207-0.117,0.276-0.377,0.154-0.578
c-0.123-0.201-0.387-0.273-0.59-0.158l-1.193,0.676c-0.203,0.113-0.278,0.375-0.164,0.582
C254.583,334.221,254.843,334.295,255.051,334.176z M253.071,335.254c0.426-0.184,0.823-0.426,1.229-0.652
c0.208-0.117,0.283-0.381,0.172-0.588c-0.114-0.207-0.371-0.281-0.576-0.166c-0.398,0.225-0.788,0.461-1.209,0.643
c-0.212,0.1-0.299,0.352-0.195,0.562C252.596,335.266,252.855,335.354,253.071,335.254z M251.032,336.211l1.258-0.592
c0.217-0.102,0.307-0.354,0.201-0.566c-0.104-0.211-0.361-0.301-0.574-0.201l-1.24,0.584c-0.213,0.1-0.307,0.354-0.211,0.57
C250.561,336.221,250.815,336.312,251.032,336.211z M248.973,337.123l1.277-0.545c0.215-0.102,0.312-0.357,0.215-0.572
c-0.097-0.215-0.347-0.309-0.559-0.209l-1.262,0.539c-0.219,0.084-0.323,0.332-0.235,0.549
C248.499,337.104,248.75,337.211,248.973,337.123z M246.879,337.947l1.291-0.508c0.223-0.088,0.33-0.336,0.239-0.555
c-0.088-0.217-0.339-0.324-0.558-0.238l-1.277,0.502c-0.219,0.086-0.328,0.334-0.246,0.557
C246.411,337.926,246.657,338.033,246.879,337.947z M244.766,338.719c0.438-0.152,0.883-0.275,1.311-0.457
c0.221-0.086,0.334-0.336,0.252-0.557c-0.083-0.223-0.327-0.33-0.547-0.244c-0.42,0.178-0.863,0.299-1.297,0.451
c-0.223,0.074-0.342,0.314-0.266,0.537C244.295,338.674,244.541,338.793,244.766,338.719z M242.633,339.426l1.316-0.436
c0.226-0.076,0.346-0.316,0.27-0.541c-0.076-0.223-0.32-0.342-0.542-0.27l-1.305,0.434c-0.224,0.074-0.347,0.316-0.276,0.541
S242.407,339.502,242.633,339.426z M240.485,340.084l1.33-0.387c0.227-0.074,0.352-0.318,0.281-0.543
c-0.07-0.223-0.309-0.348-0.531-0.271l-1.322,0.383c-0.227,0.064-0.355,0.301-0.291,0.525
C240.018,340.02,240.256,340.148,240.485,340.084z M238.325,340.699l1.333-0.379c0.229-0.064,0.36-0.301,0.294-0.529
c-0.065-0.225-0.303-0.355-0.529-0.291l-1.322,0.375c-0.227,0.066-0.361,0.303-0.301,0.531
C237.862,340.633,238.096,340.764,238.325,340.699z M236.151,341.254l1.347-0.32c0.229-0.062,0.364-0.301,0.302-0.527
c-0.061-0.229-0.293-0.359-0.521-0.297l-1.34,0.316c-0.229,0.055-0.368,0.283-0.311,0.512
C235.686,341.168,235.92,341.309,236.151,341.254z M233.969,341.77l1.348-0.318c0.23-0.055,0.369-0.285,0.311-0.514
s-0.291-0.369-0.521-0.314l-1.341,0.316c-0.229,0.057-0.37,0.285-0.316,0.516C233.506,341.684,233.739,341.826,233.969,341.77z
M231.788,342.287l1.346-0.32c0.231-0.053,0.374-0.283,0.316-0.512c-0.055-0.23-0.287-0.373-0.516-0.318l-1.341,0.318
c-0.229,0.055-0.372,0.285-0.319,0.516C231.327,342.199,231.557,342.342,231.788,342.287z M229.606,342.805l1.347-0.32
c0.229-0.053,0.374-0.285,0.321-0.514c-0.053-0.23-0.283-0.373-0.512-0.318l-1.341,0.318c-0.229,0.053-0.374,0.285-0.325,0.516
C229.147,342.717,229.375,342.857,229.606,342.805z M227.422,343.314l1.348-0.312c0.23-0.055,0.377-0.285,0.326-0.516
c-0.049-0.23-0.277-0.373-0.506-0.318l-1.344,0.312c-0.23,0.041-0.381,0.264-0.333,0.494
C226.961,343.207,227.189,343.357,227.422,343.314z M225.219,343.725l1.359-0.252c0.233-0.043,0.383-0.266,0.335-0.498
c-0.048-0.23-0.274-0.383-0.506-0.34l-1.355,0.25c-0.232,0.045-0.384,0.268-0.339,0.498
C224.76,343.613,224.987,343.768,225.219,343.725z M223.014,344.133l1.361-0.252c0.232-0.043,0.385-0.268,0.338-0.498
c-0.045-0.23-0.27-0.383-0.502-0.34l-1.355,0.25c-0.232,0.043-0.385,0.266-0.342,0.498
C222.558,344.023,222.782,344.176,223.014,344.133z M220.811,344.541l1.36-0.252c0.232-0.043,0.387-0.266,0.343-0.498
c-0.043-0.232-0.266-0.385-0.498-0.342l-1.355,0.252c-0.23,0.043-0.387,0.266-0.346,0.498S220.579,344.586,220.811,344.541z
M218.607,344.951l1.36-0.252c0.232-0.045,0.389-0.268,0.348-0.5s-0.263-0.387-0.494-0.344l-1.355,0.254
c-0.232,0.043-0.389,0.266-0.35,0.498C218.154,344.84,218.374,344.994,218.607,344.951z M216.396,345.314l1.368-0.207
c0.23-0.043,0.39-0.268,0.352-0.5c-0.039-0.232-0.258-0.387-0.49-0.344l-1.363,0.207c-0.234,0.033-0.395,0.248-0.357,0.48
C215.942,345.186,216.161,345.348,216.396,345.314z M214.177,345.629l1.368-0.195c0.235-0.031,0.396-0.248,0.359-0.482
c-0.037-0.232-0.256-0.395-0.49-0.359l-1.363,0.191c-0.234,0.033-0.396,0.25-0.361,0.482S213.942,345.662,214.177,345.629z
M211.958,345.941l1.369-0.193c0.236-0.033,0.397-0.25,0.363-0.482c-0.035-0.232-0.253-0.396-0.486-0.361l-1.365,0.191
c-0.232,0.033-0.396,0.25-0.364,0.484C211.506,345.812,211.723,345.975,211.958,345.941z M209.739,346.256l1.369-0.193
c0.235-0.033,0.399-0.25,0.366-0.482c-0.032-0.234-0.248-0.396-0.481-0.363l-1.365,0.191c-0.233,0.033-0.398,0.25-0.368,0.484
C209.29,346.125,209.504,346.289,209.739,346.256z M207.52,346.57l1.369-0.195c0.235-0.031,0.4-0.25,0.37-0.482
c-0.03-0.234-0.245-0.396-0.479-0.363l-1.364,0.193c-0.234,0.035-0.402,0.242-0.373,0.477
C207.071,346.434,207.286,346.605,207.52,346.57z M205.292,346.811l1.376-0.143c0.234-0.025,0.402-0.234,0.375-0.469
c-0.029-0.232-0.242-0.404-0.479-0.379l-1.371,0.143c-0.234,0.023-0.402,0.234-0.377,0.469
C204.844,346.666,205.057,346.836,205.292,346.811z M203.065,347.043l1.375-0.145c0.235-0.023,0.404-0.234,0.377-0.467
c-0.025-0.234-0.238-0.404-0.473-0.381l-1.371,0.143c-0.234,0.025-0.405,0.234-0.381,0.469
C202.618,346.896,202.829,347.066,203.065,347.043z M200.836,347.273l1.375-0.143c0.234-0.023,0.406-0.234,0.381-0.469
c-0.024-0.234-0.235-0.404-0.471-0.381l-1.371,0.143c-0.234,0.025-0.406,0.234-0.383,0.471
C200.391,347.129,200.6,347.299,200.836,347.273z M198.607,347.506l1.376-0.143c0.236-0.025,0.408-0.234,0.385-0.469
c-0.023-0.236-0.232-0.406-0.469-0.383l-1.37,0.145c-0.235,0.023-0.408,0.234-0.387,0.469
C198.163,347.359,198.372,347.531,198.607,347.506z M196.377,347.715l1.377-0.121c0.236-0.023,0.408-0.234,0.388-0.469
c-0.021-0.234-0.229-0.404-0.464-0.381l-1.373,0.121c-0.236,0.016-0.411,0.219-0.393,0.455
C195.932,347.555,196.141,347.732,196.377,347.715z M194.142,347.873l1.38-0.098c0.236-0.018,0.41-0.221,0.391-0.455
c-0.019-0.236-0.227-0.412-0.463-0.396l-1.375,0.098c-0.235,0.016-0.412,0.221-0.393,0.455
C193.7,347.713,193.907,347.889,194.142,347.873z M191.909,348.031l1.379-0.098c0.236-0.018,0.412-0.221,0.395-0.457
c-0.02-0.234-0.225-0.412-0.461-0.395l-1.375,0.098c-0.236,0.016-0.414,0.221-0.396,0.455
C191.467,347.871,191.672,348.049,191.909,348.031z M189.674,348.189l1.379-0.098c0.236-0.018,0.414-0.221,0.396-0.457
c-0.018-0.234-0.222-0.412-0.457-0.395l-1.377,0.096c-0.234,0.018-0.413,0.223-0.397,0.457
C189.233,348.027,189.438,348.205,189.674,348.189z M187.44,348.346l1.379-0.096c0.236-0.018,0.414-0.223,0.399-0.457
c-0.016-0.234-0.22-0.412-0.454-0.396l-1.375,0.098c-0.237,0.016-0.416,0.221-0.402,0.455
C187,348.186,187.204,348.363,187.44,348.346z M185.206,348.504l1.379-0.098c0.236-0.016,0.416-0.221,0.402-0.457
c-0.014-0.234-0.217-0.412-0.453-0.396l-1.375,0.1c-0.236,0.016-0.416,0.219-0.404,0.455
C184.768,348.342,184.969,348.521,185.206,348.504z M182.968,348.604l1.38-0.051c0.238-0.006,0.42-0.209,0.406-0.445
c-0.012-0.232-0.214-0.414-0.449-0.408l-1.379,0.051c-0.236,0.008-0.418,0.207-0.406,0.441
C182.53,348.428,182.731,348.611,182.968,348.604z M180.729,348.684l1.381-0.051c0.238-0.008,0.42-0.205,0.41-0.441
c-0.013-0.234-0.213-0.418-0.449-0.41l-1.378,0.049c-0.236,0.008-0.419,0.207-0.409,0.441
C180.292,348.508,180.493,348.693,180.729,348.684z M178.491,348.764l1.381-0.049c0.236-0.01,0.421-0.207,0.412-0.443
c-0.01-0.234-0.209-0.42-0.445-0.41l-1.379,0.049c-0.235,0.008-0.42,0.207-0.413,0.443
C178.055,348.588,178.254,348.771,178.491,348.764z M176.252,348.844l1.381-0.049c0.237-0.008,0.422-0.207,0.413-0.441
c-0.007-0.236-0.205-0.422-0.441-0.414l-1.378,0.051c-0.236,0.008-0.422,0.207-0.416,0.441
C175.818,348.668,176.014,348.852,176.252,348.844z M174.014,348.924l1.381-0.049c0.236-0.01,0.423-0.207,0.416-0.443
c-0.006-0.234-0.203-0.418-0.439-0.41l-1.379,0.049c-0.234,0.008-0.422,0.207-0.417,0.441
C173.581,348.75,173.776,348.934,174.014,348.924z M171.775,348.996l1.382-0.041c0.236-0.008,0.425-0.205,0.419-0.443
c-0.005-0.234-0.2-0.42-0.437-0.41l-1.379,0.041c-0.236,0.002-0.425,0.197-0.421,0.434
C171.344,348.811,171.539,348.998,171.775,348.996z M169.537,349.031l1.381-0.023c0.237-0.002,0.427-0.197,0.422-0.432
c-0.004-0.236-0.199-0.426-0.436-0.422l-1.38,0.021c-0.236,0.006-0.426,0.199-0.422,0.436
C169.106,348.846,169.299,349.035,169.537,349.031z M167.299,349.066l1.381-0.021c0.236-0.004,0.426-0.199,0.422-0.434
c-0.004-0.236-0.198-0.426-0.435-0.422l-1.38,0.021c-0.236,0.006-0.426,0.199-0.423,0.436S167.063,349.07,167.299,349.066z
M165.061,349.1l1.382-0.02c0.237-0.004,0.425-0.197,0.422-0.434s-0.198-0.424-0.435-0.422l-1.379,0.021
c-0.236,0.002-0.426,0.195-0.424,0.43C164.631,348.912,164.826,349.102,165.061,349.1z M162.823,349.121l1.383-0.014
c0.235-0.002,0.426-0.195,0.422-0.432c-0.002-0.234-0.197-0.426-0.434-0.422l-1.379,0.014c-0.236,0-0.426,0.193-0.425,0.43
C162.393,348.934,162.586,349.123,162.823,349.121z M160.585,349.141l1.38-0.012c0.238-0.002,0.428-0.195,0.425-0.432
c-0.001-0.236-0.196-0.426-0.432-0.422l-1.38,0.012c-0.236,0.002-0.428,0.195-0.426,0.43
C160.155,348.955,160.348,349.145,160.585,349.141z M158.346,349.16l1.383-0.012c0.236,0,0.426-0.193,0.424-0.432
c-0.002-0.234-0.193-0.424-0.43-0.422l-1.381,0.012c-0.236,0-0.428,0.193-0.426,0.428
C157.917,348.971,158.11,349.16,158.346,349.16z M156.107,349.16h1.383c0.235,0,0.428-0.189,0.427-0.426
c-0.002-0.234-0.193-0.428-0.43-0.428h-1.38c-0.236,0-0.429,0.191-0.429,0.426C155.678,348.969,155.871,349.16,156.107,349.16z
M153.869,349.158l1.382,0.002c0.236,0,0.428-0.191,0.428-0.428c0-0.234-0.191-0.426-0.428-0.426l-1.379-0.002
c-0.236,0-0.428,0.191-0.43,0.426C153.441,348.967,153.633,349.158,153.869,349.158z M151.63,349.158h1.382
c0.236,0,0.43-0.191,0.43-0.428c0.002-0.234-0.19-0.426-0.426-0.426l-1.381-0.002c-0.236,0.002-0.428,0.188-0.43,0.424
C151.204,348.961,151.393,349.158,151.63,349.158z M149.391,349.127l1.382,0.021c0.237,0.002,0.431-0.186,0.433-0.422
s-0.189-0.43-0.426-0.434l-1.379-0.02c-0.236-0.002-0.43,0.186-0.434,0.422C148.965,348.93,149.155,349.125,149.391,349.127z
M147.153,349.098l1.382,0.018c0.235,0.004,0.431-0.186,0.433-0.42c0.004-0.236-0.186-0.43-0.422-0.434l-1.381-0.02
c-0.234-0.004-0.43,0.186-0.434,0.42C146.727,348.898,146.915,349.092,147.153,349.098z M144.914,349.064l1.381,0.02
c0.237,0.004,0.433-0.186,0.437-0.422c0.004-0.234-0.185-0.43-0.421-0.432l-1.378-0.02c-0.238-0.004-0.434,0.186-0.438,0.42
C144.489,348.867,144.676,349.061,144.914,349.064z M142.674,349.002l1.381,0.043c0.238,0.006,0.434-0.18,0.438-0.414
s-0.182-0.432-0.418-0.441l-1.378-0.043c-0.236-0.006-0.434,0.18-0.44,0.414S142.438,348.994,142.674,349.002z M140.436,348.932
l1.381,0.043c0.238,0.008,0.435-0.18,0.44-0.414c0.007-0.234-0.179-0.432-0.416-0.439l-1.378-0.043
c-0.236-0.008-0.434,0.176-0.442,0.412C140.014,348.727,140.198,348.924,140.436,348.932z M138.197,348.861l1.382,0.043
c0.236,0.008,0.436-0.178,0.442-0.414c0.009-0.236-0.177-0.432-0.413-0.439l-1.377-0.043c-0.237-0.008-0.436,0.178-0.445,0.414
C137.776,348.656,137.959,348.854,138.197,348.861z M135.959,348.758l1.381,0.072c0.236,0.012,0.436-0.174,0.445-0.408
c0.01-0.236-0.176-0.432-0.411-0.447l-1.376-0.07c-0.236-0.012-0.438,0.168-0.447,0.404
C135.54,348.543,135.723,348.744,135.959,348.758z M133.721,348.641l1.381,0.072c0.236,0.012,0.438-0.17,0.449-0.404
c0.01-0.236-0.172-0.438-0.408-0.449l-1.377-0.072c-0.234-0.012-0.438,0.17-0.449,0.404
C133.303,348.426,133.485,348.629,133.721,348.641z M131.483,348.525l1.382,0.07c0.235,0.012,0.438-0.168,0.452-0.404
c0.012-0.234-0.168-0.436-0.404-0.449l-1.377-0.07c-0.236-0.012-0.438,0.168-0.453,0.404
C131.067,348.311,131.247,348.51,131.483,348.525z M129.249,348.373l1.379,0.105c0.234,0.014,0.439-0.168,0.455-0.402
c0.016-0.236-0.166-0.436-0.4-0.449l-1.375-0.105c-0.235-0.02-0.439,0.156-0.457,0.393
C128.833,348.148,129.012,348.354,129.249,348.373z M127.014,348.201l1.379,0.105c0.236,0.02,0.439-0.158,0.457-0.393
c0.018-0.236-0.16-0.441-0.396-0.459l-1.374-0.105c-0.236-0.02-0.441,0.158-0.46,0.393S126.778,348.182,127.014,348.201z
M124.78,348.029l1.379,0.105c0.236,0.02,0.443-0.158,0.462-0.393s-0.157-0.439-0.394-0.459l-1.374-0.107
c-0.235-0.016-0.443,0.16-0.464,0.395C124.368,347.807,124.542,348.012,124.78,348.029z M122.547,347.824l1.376,0.139
c0.237,0.02,0.445-0.156,0.466-0.393c0.021-0.234-0.153-0.439-0.389-0.457l-1.371-0.141c-0.234-0.025-0.443,0.146-0.467,0.381
S122.312,347.799,122.547,347.824z M120.319,347.588l1.375,0.145c0.236,0.025,0.445-0.145,0.469-0.379s-0.148-0.445-0.383-0.471
l-1.371-0.145c-0.234-0.025-0.445,0.145-0.471,0.379S120.083,347.562,120.319,347.588z M118.09,347.352l1.375,0.146
c0.234,0.023,0.447-0.146,0.473-0.381s-0.145-0.445-0.379-0.469l-1.371-0.145c-0.234-0.025-0.447,0.145-0.475,0.379
C117.685,347.115,117.854,347.326,118.09,347.352z M115.864,347.084l1.373,0.176c0.234,0.025,0.448-0.145,0.477-0.377
c0.027-0.234-0.141-0.445-0.375-0.469l-1.365-0.178c-0.234-0.033-0.449,0.131-0.479,0.365S115.627,347.051,115.864,347.084z
M113.642,346.777l1.372,0.188c0.234,0.033,0.449-0.129,0.479-0.363s-0.134-0.449-0.368-0.482l-1.363-0.188
c-0.234-0.033-0.451,0.131-0.485,0.363C113.243,346.529,113.407,346.744,113.642,346.777z M111.42,346.471l1.371,0.188
c0.234,0.035,0.453-0.129,0.485-0.363c0.033-0.232-0.128-0.449-0.362-0.48l-1.363-0.188c-0.234-0.035-0.451,0.115-0.488,0.352
C111.026,346.209,111.185,346.438,111.42,346.471z M109.208,346.088l1.364,0.238c0.234,0.041,0.453-0.115,0.49-0.348
s-0.121-0.455-0.354-0.496l-1.356-0.238c-0.232-0.041-0.454,0.115-0.493,0.348C108.819,345.824,108.975,346.045,109.208,346.088z
M106.999,345.699l1.363,0.238c0.234,0.041,0.457-0.113,0.498-0.346c0.039-0.232-0.115-0.455-0.348-0.494l-1.355-0.238
c-0.232-0.041-0.457,0.113-0.501,0.346S106.764,345.656,106.999,345.699z M104.795,345.27l1.357,0.279
c0.234,0.043,0.459-0.111,0.503-0.344s-0.108-0.453-0.341-0.494l-1.348-0.277c-0.23-0.051-0.455,0.096-0.504,0.326
S104.564,345.219,104.795,345.27z M102.603,344.785l1.354,0.301c0.231,0.049,0.458-0.096,0.507-0.326s-0.1-0.459-0.329-0.51
l-1.343-0.299c-0.23-0.049-0.459,0.096-0.514,0.326C102.226,344.506,102.372,344.734,102.603,344.785z M100.411,344.301
l1.354,0.299c0.232,0.051,0.463-0.094,0.514-0.322c0.053-0.23-0.09-0.459-0.32-0.51l-1.344-0.297
c-0.23-0.047-0.461,0.09-0.518,0.316C100.039,344.018,100.178,344.252,100.411,344.301z M98.243,343.717l1.336,0.369
c0.229,0.064,0.461-0.07,0.518-0.299s-0.082-0.465-0.309-0.529l-1.325-0.365c-0.226-0.064-0.46,0.07-0.522,0.297
C97.877,343.418,98.012,343.654,98.243,343.717z M96.077,343.119l1.336,0.369c0.229,0.062,0.466-0.07,0.527-0.299
c0.062-0.227-0.072-0.463-0.299-0.525l-1.326-0.365c-0.227-0.064-0.465,0.068-0.531,0.295
C95.715,342.82,95.848,343.055,96.077,343.119z M93.923,342.479l1.323,0.41c0.23,0.064,0.469-0.068,0.537-0.295
c0.066-0.227-0.062-0.461-0.29-0.523l-1.312-0.406c-0.223-0.076-0.461,0.045-0.535,0.27
C93.575,342.156,93.698,342.402,93.923,342.479z M91.797,341.748l1.312,0.451c0.226,0.078,0.466-0.043,0.538-0.266
c0.072-0.227-0.049-0.469-0.271-0.547l-1.299-0.445c-0.223-0.076-0.467,0.041-0.547,0.264
C91.454,341.428,91.572,341.67,91.797,341.748z M89.67,341.018l1.312,0.451c0.225,0.078,0.471-0.041,0.547-0.264
c0.079-0.223-0.038-0.465-0.261-0.541l-1.298-0.445c-0.225-0.076-0.473,0.039-0.557,0.262
C89.331,340.699,89.446,340.941,89.67,341.018z M87.586,340.174l1.278,0.543c0.218,0.096,0.466-0.014,0.55-0.236
c0.083-0.219-0.027-0.465-0.242-0.559l-1.264-0.539c-0.217-0.09-0.465,0.012-0.557,0.229
C87.262,339.83,87.366,340.082,87.586,340.174z M85.514,339.297l1.278,0.543c0.22,0.092,0.47-0.01,0.56-0.229
c0.091-0.217-0.012-0.469-0.228-0.561l-1.265-0.535c-0.216-0.092-0.47,0.008-0.566,0.223
C85.196,338.953,85.295,339.203,85.514,339.297z M83.46,338.381c0.403,0.229,0.835,0.398,1.261,0.58
c0.219,0.092,0.476-0.008,0.572-0.223c0.096-0.215-0.001-0.463-0.218-0.555c-0.421-0.18-0.847-0.348-1.246-0.572
c-0.208-0.109-0.461-0.025-0.563,0.186C83.163,338.008,83.249,338.27,83.46,338.381z M81.463,337.336l1.232,0.646
c0.212,0.109,0.467,0.025,0.57-0.186c0.103-0.211,0.019-0.473-0.189-0.58l-1.216-0.637c-0.208-0.107-0.468-0.029-0.577,0.18
C81.172,336.969,81.253,337.227,81.463,337.336z M79.469,336.293l1.231,0.645c0.212,0.111,0.473,0.031,0.583-0.178
c0.109-0.209,0.029-0.465-0.178-0.574l-1.215-0.635c-0.209-0.109-0.473-0.031-0.59,0.172
C79.182,335.928,79.258,336.184,79.469,336.293z M77.545,335.125l1.168,0.754c0.197,0.137,0.472,0.045,0.588-0.156
c0.119-0.209,0.037-0.445-0.156-0.582l-1.15-0.742c-0.199-0.127-0.46-0.068-0.585,0.131
C77.284,334.729,77.346,334.996,77.545,335.125z M75.652,333.904l1.168,0.754c0.201,0.129,0.465,0.072,0.59-0.129
c0.125-0.199,0.066-0.465-0.13-0.592l-1.152-0.744c-0.197-0.127-0.465-0.072-0.598,0.123
C75.397,333.51,75.452,333.773,75.652,333.904z M73.776,332.654c0.359,0.295,0.766,0.521,1.15,0.781
c0.201,0.129,0.471,0.076,0.604-0.119s0.08-0.457-0.117-0.584c-0.379-0.254-0.781-0.479-1.135-0.768
c-0.186-0.141-0.451-0.104-0.592,0.086C73.546,332.24,73.586,332.51,73.776,332.654z M71.981,331.289l1.107,0.844
c0.189,0.143,0.459,0.107,0.598-0.082c0.141-0.189,0.104-0.459-0.083-0.602l-1.089-0.83c-0.188-0.141-0.458-0.109-0.604,0.072
C71.759,330.877,71.79,331.145,71.981,331.289z M70.256,329.836l1.057,0.906c0.182,0.156,0.449,0.133,0.597-0.051
c0.148-0.184,0.125-0.455-0.054-0.609l-1.039-0.891c-0.178-0.152-0.449-0.133-0.605,0.043S70.075,329.68,70.256,329.836z
M68.588,328.318l1.012,0.955c0.182,0.156,0.455,0.137,0.611-0.039s0.139-0.443-0.04-0.596l-0.994-0.939
c-0.169-0.164-0.438-0.158-0.603,0.012S68.417,328.152,68.588,328.318z M66.981,326.734l0.986,0.982
c0.172,0.166,0.443,0.164,0.607-0.006s0.16-0.439-0.008-0.602l-0.969-0.965c-0.158-0.174-0.426-0.184-0.598-0.023
C66.829,326.283,66.819,326.559,66.981,326.734z M65.46,325.064l0.938,1.029c0.16,0.178,0.43,0.189,0.602,0.027
c0.172-0.16,0.184-0.432,0.025-0.605l-0.921-1.01c-0.157-0.174-0.431-0.191-0.611-0.039
C65.313,324.621,65.299,324.889,65.46,325.064z M269.848,179.949c0.049-0.234-0.097-0.443-0.314-0.509l-1.287-0.344
c-0.219-0.058-0.455,0.077-0.527,0.302c-0.071,0.225,0.057,0.457,0.287,0.519l1.334,0.356
C269.569,180.34,269.799,180.177,269.848,179.949z M270.18,180.443l1.355,0.247c0.233,0.031,0.449-0.142,0.479-0.374
c0.029-0.236-0.129-0.44-0.356-0.472l-1.313-0.24c-0.225-0.041-0.447,0.114-0.496,0.344
C269.797,180.179,269.946,180.4,270.18,180.443z M272.383,180.785l1.368,0.142c0.235,0.011,0.438-0.172,0.451-0.407
c0.013-0.236-0.161-0.435-0.39-0.444l-1.33-0.138c-0.228-0.025-0.438,0.145-0.469,0.379
C271.983,180.549,272.149,180.759,272.383,180.785z M274.603,180.964l1.372,0.049c0.235-0.004,0.426-0.198,0.424-0.434
c0-0.234-0.188-0.424-0.418-0.419l-1.338-0.049c-0.229-0.009-0.426,0.173-0.44,0.409
C274.188,180.754,274.368,180.954,274.603,180.964z M276.826,181l1.372-0.032c0.234-0.016,0.412-0.219,0.4-0.455
c-0.016-0.236-0.212-0.415-0.441-0.399l-1.342,0.032c-0.229,0.003-0.416,0.198-0.416,0.432
C276.399,180.815,276.59,181.003,276.826,181z M279.043,180.912l1.367-0.102c0.232-0.027,0.402-0.238,0.377-0.473
c-0.023-0.233-0.229-0.403-0.459-0.377l-1.34,0.1c-0.229,0.016-0.404,0.219-0.391,0.455
C278.61,180.75,278.81,180.928,279.043,180.912z M281.254,180.714l1.357-0.164c0.232-0.037,0.392-0.255,0.357-0.488
c-0.035-0.233-0.246-0.394-0.476-0.358l-1.335,0.161c-0.229,0.026-0.395,0.238-0.371,0.471
C280.813,180.572,281.02,180.742,281.254,180.714z M283.45,180.42l1.35-0.218c0.23-0.044,0.383-0.268,0.338-0.5
c-0.043-0.231-0.262-0.385-0.488-0.34l-1.329,0.215c-0.228,0.036-0.384,0.253-0.351,0.487
C283.002,180.296,283.219,180.457,283.45,180.42z M285.631,180.041l1.34-0.27c0.227-0.052,0.371-0.282,0.32-0.511
c-0.052-0.23-0.275-0.375-0.501-0.324l-1.321,0.264c-0.227,0.044-0.375,0.269-0.332,0.5
C285.18,179.934,285.401,180.084,285.631,180.041z M287.795,179.583l1.33-0.313c0.227-0.06,0.362-0.293,0.305-0.522
c-0.06-0.228-0.289-0.366-0.512-0.307l-1.312,0.309c-0.225,0.051-0.365,0.281-0.314,0.511
C287.342,179.49,287.569,179.635,287.795,179.583z M289.945,179.053l1.317-0.354c0.225-0.066,0.354-0.304,0.287-0.53
c-0.064-0.227-0.298-0.358-0.52-0.292l-1.303,0.35c-0.223,0.059-0.356,0.292-0.297,0.52
C289.487,178.976,289.717,179.114,289.945,179.053z M292.075,178.46l1.305-0.393c0.225-0.072,0.346-0.313,0.273-0.538
c-0.071-0.224-0.309-0.349-0.527-0.277l-1.293,0.388c-0.221,0.065-0.348,0.302-0.283,0.529
C291.614,178.396,291.85,178.527,292.075,178.46z M294.185,177.806l1.295-0.429c0.22-0.078,0.335-0.322,0.259-0.544
c-0.079-0.223-0.318-0.341-0.536-0.263l-1.281,0.424c-0.22,0.072-0.339,0.312-0.269,0.536
C293.724,177.754,293.963,177.878,294.185,177.806z M296.278,177.095l1.283-0.465c0.217-0.083,0.328-0.329,0.242-0.55
c-0.082-0.221-0.326-0.332-0.541-0.25l-1.271,0.458c-0.218,0.078-0.331,0.321-0.253,0.544
C295.815,177.055,296.057,177.173,296.278,177.095z M298.35,176.328l1.27-0.499c0.216-0.088,0.319-0.338,0.229-0.555
c-0.089-0.218-0.334-0.325-0.549-0.237l-1.256,0.493c-0.217,0.083-0.322,0.329-0.24,0.549
C297.887,176.301,298.131,176.412,298.35,176.328z M300.403,175.509l1.256-0.529c0.213-0.092,0.311-0.342,0.217-0.558
c-0.092-0.217-0.341-0.318-0.555-0.227l-1.246,0.524c-0.213,0.088-0.314,0.335-0.227,0.555
C299.938,175.492,300.186,175.597,300.403,175.509z M302.432,174.648l1.248-0.535c0.213-0.092,0.31-0.342,0.217-0.559
c-0.094-0.216-0.344-0.317-0.557-0.226l-1.246,0.535c-0.213,0.092-0.311,0.341-0.219,0.558
C301.969,174.638,302.218,174.741,302.432,174.648z M304.452,173.778l1.244-0.547c0.213-0.094,0.309-0.345,0.213-0.56
c-0.096-0.216-0.344-0.316-0.557-0.222l-1.24,0.546c-0.213,0.093-0.309,0.344-0.215,0.559
C303.99,173.772,304.239,173.872,304.452,173.778z M306.467,172.892l1.242-0.551c0.213-0.097,0.305-0.352,0.207-0.566
c-0.098-0.215-0.348-0.31-0.557-0.213l-1.238,0.549c-0.213,0.093-0.309,0.344-0.213,0.56
C306.004,172.886,306.254,172.985,306.467,172.892z M308.477,171.985l1.234-0.572c0.211-0.098,0.301-0.351,0.199-0.563
c-0.1-0.213-0.353-0.308-0.562-0.209l-1.227,0.568c-0.211,0.098-0.303,0.351-0.205,0.566
C308.014,171.989,308.264,172.084,308.477,171.985z M310.477,171.058l1.225-0.594c0.209-0.105,0.293-0.361,0.188-0.572
c-0.104-0.211-0.356-0.299-0.563-0.195l-1.217,0.589c-0.209,0.097-0.299,0.35-0.199,0.563
C310.012,171.062,310.264,171.156,310.477,171.058z M312.458,170.086l1.217-0.61c0.209-0.105,0.291-0.36,0.182-0.57
c-0.109-0.208-0.365-0.294-0.572-0.19l-1.207,0.605c-0.207,0.104-0.29,0.359-0.187,0.571
C311.995,170.104,312.249,170.19,312.458,170.086z M314.432,169.096l1.193-0.659c0.203-0.114,0.277-0.374,0.162-0.579
c-0.114-0.206-0.371-0.283-0.572-0.17l-1.182,0.651c-0.207,0.104-0.287,0.359-0.178,0.567
C313.965,169.116,314.221,169.201,314.432,169.096z M316.366,168.026l1.19-0.664c0.206-0.113,0.272-0.371,0.153-0.574
c-0.121-0.203-0.381-0.276-0.583-0.164l-1.179,0.656c-0.202,0.112-0.273,0.372-0.16,0.578
C315.902,168.064,316.161,168.139,316.366,168.026z M318.286,166.933l1.154-0.733c0.197-0.127,0.254-0.39,0.127-0.587
c-0.129-0.198-0.391-0.258-0.584-0.134l-1.137,0.722c-0.195,0.124-0.255,0.388-0.137,0.589
C317.831,166.995,318.088,167.058,318.286,166.933z M320.155,165.743l1.15-0.74c0.188-0.142,0.229-0.412,0.094-0.604
c-0.137-0.193-0.396-0.237-0.58-0.099l-1.131,0.728c-0.195,0.124-0.249,0.385-0.121,0.583
C319.694,165.81,319.958,165.87,320.155,165.743z M321.985,164.491l1.096-0.823c0.188-0.142,0.222-0.407,0.075-0.591
c-0.147-0.185-0.415-0.223-0.599-0.084l-1.072,0.806c-0.184,0.138-0.223,0.406-0.086,0.6
C321.534,164.591,321.795,164.633,321.985,164.491z M323.76,163.156c0.377-0.259,0.707-0.581,1.041-0.896
c0.174-0.161,0.186-0.434,0.025-0.607c-0.158-0.174-0.424-0.189-0.59-0.034c-0.326,0.305-0.643,0.618-1.014,0.872
c-0.184,0.138-0.214,0.4-0.067,0.585C323.301,163.263,323.572,163.297,323.76,163.156z M325.427,161.678l1.007-0.94
c0.172-0.162,0.174-0.423,0.001-0.584c-0.173-0.161-0.447-0.166-0.615-0.01l-0.978,0.91c-0.166,0.156-0.173,0.425-0.016,0.599
C324.985,161.828,325.254,161.839,325.427,161.678z M270.2,182.958l-1.285-0.344c-0.221-0.059-0.456,0.076-0.528,0.301
c-0.071,0.225,0.057,0.457,0.286,0.519l1.333,0.356c0.228,0.068,0.458-0.095,0.507-0.324
C270.561,183.232,270.417,183.023,270.2,182.958z M272.321,183.363l-1.312-0.24c-0.223-0.042-0.445,0.113-0.496,0.342
c-0.05,0.231,0.098,0.453,0.33,0.495l1.355,0.248c0.234,0.028,0.449-0.143,0.48-0.376
C272.708,183.597,272.547,183.389,272.321,183.363z M274.474,183.587l-1.33-0.135c-0.228-0.024-0.436,0.146-0.466,0.379
c-0.031,0.235,0.134,0.445,0.368,0.469l1.368,0.139c0.234,0.01,0.438-0.174,0.45-0.409
C274.877,183.795,274.703,183.597,274.474,183.587z M276.641,183.661c-0.447,0.016-0.893-0.028-1.338-0.04
c-0.229-0.01-0.426,0.173-0.438,0.409c-0.014,0.235,0.165,0.434,0.401,0.445c0.457,0.011,0.916,0.055,1.371,0.04
c0.236-0.004,0.424-0.199,0.423-0.435C277.058,183.845,276.87,183.658,276.641,183.661z M278.813,183.604
c-0.447,0.043-0.894,0.03-1.34,0.043c-0.23,0.004-0.414,0.199-0.413,0.435c0.001,0.235,0.192,0.424,0.429,0.419
c0.457-0.013,0.915,0,1.369-0.043c0.235-0.018,0.412-0.222,0.396-0.457S279.042,183.587,278.813,183.604z M280.98,183.428
l-1.338,0.117c-0.228,0.016-0.401,0.22-0.388,0.456c0.016,0.235,0.217,0.414,0.451,0.396l1.363-0.118
c0.233-0.028,0.4-0.241,0.373-0.475S281.208,183.401,280.98,183.428z M283.139,183.148l-1.332,0.181
c-0.229,0.027-0.391,0.239-0.365,0.474c0.027,0.234,0.238,0.402,0.471,0.374l1.354-0.184c0.232-0.038,0.39-0.257,0.352-0.49
C283.581,183.271,283.366,183.112,283.139,183.148z M285.286,182.776l-1.324,0.238c-0.227,0.037-0.38,0.256-0.344,0.489
c0.037,0.233,0.255,0.391,0.486,0.354l1.344-0.242c0.23-0.047,0.379-0.272,0.332-0.503
C285.733,182.881,285.512,182.73,285.286,182.776z M287.418,182.322l-1.314,0.288c-0.226,0.046-0.371,0.271-0.324,0.502
c0.047,0.231,0.27,0.381,0.498,0.334l1.334-0.292c0.229-0.054,0.367-0.285,0.312-0.514
C287.87,182.411,287.643,182.269,287.418,182.322z M289.537,181.793l-1.306,0.335c-0.223,0.053-0.361,0.283-0.307,0.513
c0.055,0.229,0.283,0.371,0.512,0.316l1.321-0.337c0.226-0.062,0.358-0.297,0.296-0.524
C289.991,181.868,289.758,181.733,289.537,181.793z M291.637,181.197l-1.295,0.375c-0.222,0.061-0.352,0.294-0.289,0.522
c0.061,0.227,0.295,0.361,0.52,0.3l1.311-0.379c0.223-0.068,0.348-0.307,0.279-0.533
C292.094,181.259,291.858,181.129,291.637,181.197z M293.721,180.54l-1.283,0.413c-0.221,0.068-0.344,0.306-0.275,0.53
c0.068,0.226,0.306,0.354,0.529,0.286l1.297-0.418c0.223-0.074,0.34-0.316,0.265-0.539
C294.178,180.589,293.94,180.467,293.721,180.54z M295.788,179.828l-1.273,0.447c-0.219,0.073-0.334,0.314-0.261,0.538
c0.075,0.223,0.316,0.344,0.538,0.27l1.285-0.452c0.219-0.078,0.332-0.323,0.25-0.545
C296.247,179.864,296.004,179.749,295.788,179.828z M297.835,179.062l-1.261,0.479c-0.218,0.08-0.328,0.322-0.248,0.544
c0.082,0.222,0.324,0.337,0.544,0.257l1.273-0.484c0.218-0.084,0.324-0.331,0.237-0.55
C298.295,179.089,298.049,178.979,297.835,179.062z M299.866,178.25l-1.25,0.51c-0.215,0.083-0.32,0.329-0.234,0.549
s0.333,0.329,0.551,0.245l1.26-0.515c0.216-0.089,0.316-0.337,0.225-0.554C300.327,178.266,300.079,178.162,299.866,178.25z
M301.883,177.396l-1.244,0.534c-0.211,0.087-0.313,0.336-0.223,0.554c0.092,0.217,0.339,0.322,0.559,0.232l1.246-0.535
c0.213-0.091,0.311-0.342,0.217-0.559C302.346,177.407,302.098,177.305,301.883,177.396z M303.899,176.527l-1.242,0.537
c-0.213,0.092-0.311,0.343-0.219,0.559c0.094,0.217,0.344,0.318,0.557,0.226l1.245-0.537c0.214-0.094,0.31-0.344,0.216-0.56
C304.362,176.535,304.112,176.434,303.899,176.527z M305.91,175.647l-1.24,0.544c-0.212,0.093-0.308,0.344-0.214,0.561
c0.094,0.215,0.342,0.315,0.557,0.222l1.242-0.545c0.213-0.094,0.307-0.346,0.213-0.562
C306.372,175.652,306.122,175.553,305.91,175.647z M307.911,174.752l-1.233,0.554c-0.212,0.094-0.306,0.346-0.21,0.561
c0.094,0.215,0.345,0.314,0.558,0.219l1.239-0.556c0.211-0.096,0.305-0.348,0.207-0.563
C308.374,174.752,308.123,174.657,307.911,174.752z M309.905,173.838l-1.229,0.567c-0.211,0.096-0.303,0.348-0.205,0.562
c0.098,0.215,0.348,0.311,0.561,0.215l1.232-0.57c0.211-0.099,0.301-0.352,0.201-0.565
C310.366,173.834,310.114,173.74,309.905,173.838z M311.885,172.9l-1.221,0.583c-0.21,0.098-0.299,0.351-0.199,0.564
c0.1,0.213,0.353,0.306,0.564,0.207l1.226-0.585c0.21-0.101,0.297-0.356,0.192-0.568C312.346,172.891,312.093,172.8,311.885,172.9
z M313.85,171.936l-1.21,0.6c-0.208,0.101-0.294,0.355-0.192,0.566c0.104,0.212,0.357,0.302,0.566,0.201l1.219-0.605
c0.209-0.104,0.291-0.36,0.184-0.57C314.312,171.918,314.057,171.831,313.85,171.936z M315.797,170.936l-1.197,0.624
c-0.207,0.103-0.288,0.358-0.184,0.568c0.107,0.21,0.361,0.297,0.571,0.192l1.206-0.629c0.207-0.108,0.285-0.364,0.175-0.573
C316.257,170.91,316.002,170.828,315.797,170.936z M317.721,169.896l-1.182,0.65c-0.205,0.108-0.281,0.364-0.171,0.572
c0.11,0.209,0.367,0.289,0.573,0.181l1.195-0.656c0.203-0.114,0.276-0.372,0.16-0.577
C318.182,169.861,317.923,169.785,317.721,169.896z M319.616,168.81l-1.163,0.679c-0.199,0.116-0.272,0.372-0.155,0.578
c0.113,0.205,0.376,0.283,0.578,0.166l1.177-0.689c0.202-0.118,0.267-0.377,0.145-0.579S319.815,168.692,319.616,168.81z
M321.473,167.664l-1.141,0.714c-0.193,0.124-0.256,0.384-0.136,0.586c0.122,0.203,0.384,0.269,0.581,0.144l1.158-0.725
c0.199-0.122,0.25-0.391,0.121-0.589C321.927,167.597,321.669,167.544,321.473,167.664z M323.276,166.445l-1.109,0.758
c-0.189,0.129-0.238,0.394-0.109,0.591c0.129,0.198,0.391,0.251,0.586,0.119l1.129-0.772c0.189-0.142,0.229-0.411,0.089-0.6
C323.721,166.352,323.459,166.308,323.276,166.445z M324.995,165.124l-1.053,0.824c-0.185,0.137-0.221,0.402-0.081,0.593
c0.14,0.191,0.405,0.231,0.594,0.09l1.082-0.847c0.182-0.151,0.204-0.42,0.052-0.599
C325.435,165.005,325.168,164.978,324.995,165.124z M327.203,163.696c-0.171-0.163-0.442-0.167-0.604-0.011l-0.969,0.908
c-0.176,0.146-0.193,0.411-0.041,0.591c0.151,0.18,0.422,0.204,0.604,0.051l1.01-0.945
C327.374,164.125,327.374,163.859,327.203,163.696z M8.223,163.82l-1.074-0.737c-0.184-0.125-0.457-0.081-0.611,0.097
s-0.119,0.435,0.08,0.572l1.158,0.797c0.197,0.144,0.459,0.066,0.578-0.142C8.468,164.206,8.399,163.952,8.223,163.82z
M10.116,164.861l-1.184-0.629c-0.201-0.108-0.461-0.028-0.578,0.175c-0.117,0.205-0.045,0.459,0.162,0.57l1.205,0.642
c0.209,0.109,0.461,0.029,0.568-0.181C10.399,165.229,10.319,164.969,10.116,164.861z M12.065,165.918l-1.205-0.656
c-0.207-0.112-0.463-0.034-0.57,0.176c-0.107,0.21-0.033,0.469,0.168,0.578l1.174,0.639c0.203,0.106,0.46,0.035,0.58-0.16
C12.338,166.289,12.271,166.027,12.065,165.918z M13.948,167.214l-1.154-0.828c-0.2-0.143-0.461-0.094-0.582,0.108
c-0.121,0.202-0.076,0.47,0.102,0.598l1.049,0.744c0.18,0.125,0.463,0.096,0.635-0.067
C14.167,167.607,14.145,167.359,13.948,167.214z M15.53,168.799l-0.937-1.012c-0.159-0.173-0.427-0.181-0.597-0.017
c-0.17,0.164-0.176,0.438-0.014,0.614l0.945,1.021c0.16,0.175,0.427,0.181,0.592,0.012
C15.685,169.249,15.69,168.972,15.53,168.799z M17.11,170.361c-0.338-0.305-0.702-0.58-1-0.934c-0.16-0.174-0.425-0.178-0.59-0.01
c-0.165,0.168-0.168,0.447-0.006,0.622c0.297,0.355,0.674,0.641,1.021,0.953c0.181,0.159,0.455,0.144,0.612-0.033
C17.302,170.782,17.286,170.514,17.11,170.361z M18.778,171.817l-1.029-0.899c-0.175-0.154-0.445-0.136-0.602,0.041
c-0.158,0.176-0.139,0.447,0.044,0.605l1.056,0.921c0.191,0.146,0.469,0.106,0.612-0.079
C19.004,172.219,18.965,171.959,18.778,171.817z M20.575,173.123l-1.109-0.805c-0.189-0.138-0.461-0.099-0.606,0.088
c-0.146,0.185-0.104,0.451,0.089,0.593l1.133,0.822c0.195,0.141,0.461,0.097,0.594-0.097
C20.809,173.53,20.764,173.261,20.575,173.123z M22.42,174.356l-1.158-0.734c-0.189-0.137-0.453-0.091-0.588,0.103
c-0.134,0.193-0.086,0.465,0.109,0.606l1.18,0.748c0.204,0.126,0.471,0.064,0.594-0.135
C22.682,174.742,22.62,174.479,22.42,174.356z M24.315,175.52l-1.17-0.717c-0.199-0.124-0.463-0.061-0.588,0.14
c-0.125,0.2-0.06,0.464,0.145,0.59l1.191,0.73c0.212,0.112,0.477,0.035,0.59-0.17C24.598,175.885,24.522,175.629,24.315,175.52z
M26.284,176.558l-1.215-0.641c-0.208-0.109-0.471-0.032-0.586,0.175c-0.115,0.205-0.037,0.463,0.176,0.575l1.234,0.65
c0.212,0.112,0.469,0.032,0.575-0.179C26.575,176.927,26.492,176.668,26.284,176.558z M28.284,177.536l-1.247-0.58
c-0.207-0.109-0.462-0.028-0.568,0.183c-0.106,0.21-0.021,0.471,0.191,0.583l1.264,0.589c0.218,0.099,0.474,0.004,0.571-0.21
S28.497,177.633,28.284,177.536z M30.313,178.452l-1.253-0.564c-0.214-0.097-0.468-0.002-0.565,0.212
c-0.098,0.215-0.001,0.469,0.217,0.567l1.271,0.573c0.225,0.086,0.477-0.021,0.566-0.239
C30.637,178.783,30.532,178.537,30.313,178.452z M32.391,179.257l-1.283-0.497c-0.219-0.086-0.469,0.022-0.559,0.24
c-0.09,0.219,0.018,0.466,0.24,0.552l1.301,0.504c0.223,0.087,0.47-0.023,0.55-0.245C32.721,179.59,32.61,179.343,32.391,179.257z
M34.49,179.997l-1.304-0.432c-0.221-0.084-0.463,0.026-0.546,0.247c-0.08,0.222,0.034,0.472,0.257,0.557l1.324,0.438
c0.227,0.074,0.471-0.048,0.543-0.272C34.836,180.312,34.713,180.07,34.49,179.997z M36.608,180.665l-1.307-0.403
c-0.225-0.073-0.464,0.05-0.537,0.274c-0.072,0.224,0.053,0.467,0.279,0.541c0.438,0.139,0.892,0.305,1.338,0.413
c0.23,0.062,0.467-0.073,0.529-0.301C36.973,180.96,36.836,180.727,36.608,180.665z M38.771,181.245l-1.335-0.358
c-0.229-0.061-0.463,0.073-0.525,0.301c-0.062,0.228,0.072,0.462,0.303,0.524l1.34,0.359c0.23,0.062,0.465-0.074,0.523-0.301
C39.137,181.541,39,181.308,38.771,181.245z M40.94,181.797l-1.34-0.332c-0.23-0.058-0.463,0.076-0.523,0.305
c-0.059,0.227,0.078,0.465,0.309,0.522l1.348,0.334c0.232,0.058,0.465-0.082,0.521-0.312
C41.31,182.086,41.169,181.854,40.94,181.797z M43.112,182.333l-1.34-0.331c-0.229-0.057-0.462,0.083-0.519,0.312
c-0.056,0.23,0.085,0.461,0.316,0.519l1.349,0.332c0.232,0.051,0.463-0.094,0.516-0.324
C43.487,182.611,43.343,182.383,43.112,182.333z M45.297,182.81l-1.348-0.294c-0.231-0.051-0.462,0.095-0.516,0.325
c-0.053,0.229,0.094,0.456,0.326,0.508l1.357,0.296c0.232,0.051,0.461-0.095,0.509-0.326
C45.675,183.087,45.528,182.859,45.297,182.81z M47.485,183.262l-1.352-0.269c-0.231-0.051-0.457,0.094-0.507,0.326
c-0.048,0.23,0.101,0.459,0.333,0.51l1.363,0.273c0.235,0.042,0.461-0.113,0.504-0.343
C47.872,183.526,47.718,183.304,47.485,183.262z M49.684,183.658l-1.357-0.244c-0.23-0.042-0.455,0.112-0.5,0.345
c-0.045,0.23,0.111,0.453,0.346,0.495l1.369,0.246c0.234,0.043,0.455-0.111,0.494-0.344
C50.074,183.922,49.917,183.7,49.684,183.658z M51.889,183.998l-1.364-0.188c-0.231-0.042-0.451,0.112-0.489,0.346
c-0.039,0.233,0.12,0.456,0.355,0.497l1.379,0.191c0.236,0.03,0.453-0.133,0.485-0.367
C52.288,184.243,52.123,184.028,51.889,183.998z M54.1,184.287l-1.364-0.178c-0.233-0.031-0.448,0.134-0.48,0.368
c-0.032,0.234,0.135,0.448,0.372,0.479l1.381,0.181c0.236,0.03,0.447-0.135,0.472-0.369S54.334,184.318,54.1,184.287z
M56.32,184.471l-1.37-0.093c-0.236-0.013-0.445,0.157-0.47,0.39c-0.024,0.236,0.147,0.447,0.388,0.461l1.393,0.094
c0.238,0.017,0.443-0.161,0.458-0.396C56.733,184.689,56.555,184.486,56.32,184.471z M58.541,184.615l-1.37-0.087
c-0.234-0.015-0.438,0.161-0.452,0.397c-0.015,0.235,0.167,0.439,0.405,0.455l1.393,0.088c0.24-0.002,0.438-0.197,0.442-0.432
C58.961,184.801,58.774,184.611,58.541,184.615z M60.759,184.582l-1.368,0.021c-0.235,0.005-0.429,0.198-0.433,0.435
c-0.005,0.234,0.187,0.424,0.427,0.42l1.398-0.02c0.241-0.004,0.428-0.197,0.418-0.435
C61.192,184.768,60.995,184.58,60.759,184.582z M62.968,184.461c-0.45,0.059-0.9,0.123-1.358,0.109
c-0.234,0.004-0.417,0.197-0.408,0.433c0.009,0.237,0.211,0.425,0.451,0.42c0.467,0.015,0.932-0.052,1.396-0.112
c0.24-0.029,0.412-0.244,0.387-0.479C63.409,184.6,63.2,184.432,62.968,184.461z M65.662,184.555
c-0.046-0.23-0.269-0.395-0.501-0.367l-1.353,0.167c-0.231,0.029-0.397,0.244-0.372,0.477c0.024,0.236,0.239,0.4,0.479,0.371
l1.396-0.174C65.549,184.999,65.708,184.787,65.662,184.555z M7.073,167.549L6,166.812c-0.184-0.125-0.457-0.08-0.611,0.097
c-0.154,0.178-0.119,0.436,0.08,0.573l1.16,0.796c0.196,0.144,0.458,0.067,0.576-0.141C7.321,167.936,7.25,167.681,7.073,167.549z
M8.969,168.59l-1.184-0.628c-0.203-0.108-0.463-0.028-0.58,0.176c-0.117,0.205-0.045,0.459,0.162,0.57l1.207,0.64
c0.209,0.11,0.459,0.029,0.566-0.18C9.25,168.958,9.171,168.698,8.969,168.59z M10.917,169.647l-1.205-0.655
c-0.206-0.113-0.461-0.034-0.57,0.176c-0.107,0.21-0.033,0.469,0.168,0.578l1.174,0.638c0.204,0.108,0.461,0.037,0.58-0.158
C11.19,170.018,11.124,169.756,10.917,169.647z M12.799,170.944l-1.154-0.829c-0.2-0.143-0.461-0.094-0.582,0.11
c-0.121,0.201-0.076,0.469,0.102,0.596l1.051,0.745c0.178,0.125,0.462,0.095,0.633-0.067
C13.019,171.337,12.998,171.088,12.799,170.944z M14.383,172.531l-0.938-1.014c-0.16-0.173-0.428-0.182-0.598-0.018
c-0.17,0.164-0.176,0.439-0.013,0.614l0.946,1.023c0.163,0.176,0.429,0.182,0.594,0.014
C14.542,172.982,14.545,172.705,14.383,172.531z M15.969,174.096c-0.339-0.307-0.705-0.581-1.004-0.935
c-0.16-0.175-0.424-0.179-0.59-0.011s-0.168,0.446-0.006,0.622c0.299,0.356,0.677,0.642,1.023,0.956
c0.182,0.158,0.455,0.144,0.612-0.033C16.163,174.518,16.145,174.25,15.969,174.096z M17.641,175.555l-1.031-0.901
c-0.178-0.154-0.447-0.135-0.604,0.041c-0.157,0.176-0.136,0.447,0.044,0.606l1.061,0.924c0.193,0.145,0.469,0.105,0.613-0.081
C17.868,175.957,17.829,175.696,17.641,175.555z M19.44,176.863l-1.11-0.806c-0.19-0.138-0.462-0.099-0.606,0.087
c-0.145,0.186-0.104,0.451,0.09,0.593l1.135,0.825c0.195,0.141,0.462,0.098,0.595-0.097
C19.676,177.271,19.631,177.001,19.44,176.863z M21.292,178.098l-1.161-0.734c-0.19-0.138-0.454-0.093-0.588,0.101
c-0.134,0.194-0.085,0.466,0.11,0.607l1.184,0.748c0.203,0.126,0.471,0.066,0.594-0.135
C21.555,178.484,21.493,178.221,21.292,178.098z M23.192,179.262l-1.174-0.718c-0.199-0.123-0.463-0.06-0.588,0.14
c-0.125,0.201-0.059,0.465,0.146,0.591l1.194,0.73c0.213,0.112,0.477,0.036,0.592-0.171
C23.477,179.628,23.399,179.372,23.192,179.262z M25.165,180.303l-1.217-0.642c-0.209-0.11-0.471-0.033-0.586,0.173
c-0.115,0.207-0.037,0.464,0.176,0.576l1.238,0.653c0.212,0.111,0.47,0.032,0.575-0.179
C25.456,180.673,25.373,180.413,25.165,180.303z M27.17,181.28l-1.25-0.579c-0.209-0.11-0.464-0.028-0.569,0.182
c-0.106,0.21-0.021,0.472,0.191,0.583l1.269,0.588c0.218,0.1,0.475,0.005,0.57-0.21C27.48,181.631,27.385,181.378,27.17,181.28z
M29.205,182.197l-1.257-0.563c-0.213-0.098-0.468-0.002-0.566,0.212c-0.098,0.214,0,0.469,0.219,0.568l1.275,0.571
c0.223,0.087,0.477-0.02,0.566-0.238C29.532,182.528,29.425,182.282,29.205,182.197z M31.287,183.003l-1.284-0.498
c-0.221-0.085-0.471,0.023-0.561,0.242c-0.09,0.218,0.02,0.465,0.242,0.552l1.303,0.505c0.225,0.087,0.471-0.023,0.552-0.244
C31.62,183.338,31.506,183.089,31.287,183.003z M33.393,183.742l-1.311-0.429c-0.219-0.085-0.463,0.025-0.544,0.247
c-0.081,0.221,0.034,0.471,0.257,0.558l1.328,0.436c0.229,0.075,0.473-0.047,0.543-0.271
C33.739,184.058,33.616,183.816,33.393,183.742z M35.516,184.41l-1.312-0.402c-0.224-0.074-0.466,0.05-0.538,0.273
c-0.072,0.225,0.055,0.467,0.281,0.541c0.438,0.141,0.895,0.302,1.342,0.411c0.23,0.062,0.468-0.073,0.529-0.3
C35.879,184.705,35.745,184.471,35.516,184.41z M37.684,184.991l-1.338-0.358c-0.23-0.062-0.465,0.072-0.527,0.301
c-0.062,0.227,0.074,0.462,0.305,0.523l1.342,0.359c0.23,0.062,0.465-0.071,0.524-0.301
C38.049,185.287,37.913,185.053,37.684,184.991z M39.857,185.545l-1.343-0.333c-0.23-0.056-0.465,0.075-0.524,0.304
c-0.06,0.228,0.078,0.467,0.31,0.522l1.35,0.335c0.232,0.059,0.467-0.082,0.523-0.311
C40.227,185.833,40.087,185.602,39.857,185.545z M42.034,186.082l-1.343-0.33c-0.23-0.058-0.463,0.081-0.519,0.311
c-0.059,0.229,0.085,0.461,0.315,0.519l1.352,0.332c0.233,0.052,0.466-0.093,0.519-0.323
C42.411,186.36,42.266,186.133,42.034,186.082z M44.223,186.562l-1.352-0.297c-0.23-0.051-0.461,0.095-0.514,0.324
c-0.055,0.23,0.092,0.457,0.326,0.508l1.359,0.299c0.233,0.051,0.462-0.094,0.51-0.325
C44.602,186.842,44.454,186.613,44.223,186.562z M46.417,187.018l-1.355-0.271c-0.23-0.051-0.459,0.096-0.508,0.325
c-0.048,0.231,0.102,0.46,0.334,0.511l1.365,0.273c0.236,0.043,0.462-0.11,0.506-0.342
C46.801,187.281,46.649,187.06,46.417,187.018z M48.62,187.416l-1.359-0.246c-0.233-0.042-0.459,0.111-0.502,0.344
c-0.045,0.231,0.111,0.453,0.346,0.497l1.371,0.248c0.235,0.043,0.457-0.112,0.496-0.344
C49.008,187.683,48.852,187.459,48.62,187.416z M50.829,187.76l-1.365-0.189c-0.234-0.043-0.454,0.112-0.492,0.345
c-0.039,0.231,0.12,0.455,0.355,0.498l1.383,0.192c0.236,0.031,0.455-0.133,0.486-0.367
C51.227,188.005,51.063,187.79,50.829,187.76z M53.045,188.053l-1.368-0.182c-0.233-0.03-0.45,0.134-0.481,0.367
c-0.033,0.234,0.134,0.449,0.371,0.48l1.384,0.184c0.237,0.031,0.45-0.134,0.474-0.368S53.278,188.084,53.045,188.053z
M55.268,188.24l-1.373-0.096c-0.235-0.014-0.447,0.158-0.471,0.39c-0.025,0.237,0.148,0.447,0.387,0.461l1.396,0.098
c0.238,0.017,0.444-0.161,0.459-0.396C55.682,188.461,55.503,188.257,55.268,188.24z M57.495,188.389L56.12,188.3
c-0.234-0.017-0.438,0.161-0.453,0.397c-0.015,0.234,0.166,0.438,0.406,0.455l1.395,0.091c0.242-0.002,0.439-0.197,0.443-0.432
C57.915,188.575,57.729,188.387,57.495,188.389z M59.717,188.361l-1.371,0.017c-0.236,0.003-0.43,0.197-0.436,0.434
c-0.004,0.234,0.188,0.424,0.428,0.421l1.402-0.018c0.24-0.004,0.43-0.197,0.42-0.434
C60.151,188.546,59.952,188.357,59.717,188.361z M61.932,188.241c-0.451,0.06-0.902,0.124-1.363,0.108
c-0.234,0.004-0.418,0.196-0.408,0.432c0.008,0.236,0.21,0.424,0.451,0.422c0.467,0.014,0.934-0.051,1.398-0.111
c0.241-0.029,0.414-0.244,0.389-0.479C62.373,188.379,62.163,188.212,61.932,188.241z M64.129,187.971l-1.356,0.166
c-0.231,0.029-0.399,0.242-0.374,0.477c0.024,0.234,0.24,0.4,0.48,0.371l1.398-0.173c0.24-0.03,0.398-0.243,0.353-0.475
S64.36,187.941,64.129,187.971z"/>

<linearGradient id="fooGradient" gradientUnits="userSpaceOnUse" x1="166.7827" y1="4.3804" x2="166.7827" y2="364.0349">

<stop  offset="0.1" style="stop-color:#1A1A1A"/>

<stop  offset="0.3329" style="stop-color:#151414"/>

<stop  offset="0.6371" style="stop-color:#010101"/>

<stop  offset="0.65" style="stop-color:#000000"/>

<stop  offset="1" style="stop-color:#000000"/>

</linearGradient>

<path fill="url(#fooGradient)" d="M32.576,144.223c-5.776-13.293-9.161-27.923-9.474-42.419c-0.006-0.271-0.426-0.319-0.429-0.04
c-0.157,14.188,2.43,28.128,7.462,41.38c2.45,6.45,5.322,12.827,8.193,19.102c2.674,5.835,5.711,11.604,9.85,16.547
c0.887,1.06,2.525-0.326,1.635-1.388C41.901,167.958,37.438,155.415,32.576,144.223z M52.6,141.357
c-2.164-3.73-4.429-7.399-6.524-11.169c-4.497-8.093-7.618-16.941-9.698-25.949c-1.374-5.955-2.52-12.011-3.103-18.097
c-0.399-4.176-0.36-9.139,2.757-12.404c0.188-0.195-0.062-0.513-0.277-0.329c-2.533,2.178-3.812,6.484-3.896,9.698
c-0.172,6.479,0.458,12.999,1.969,19.3c1.488,6.194,3.506,12.316,6.082,18.143c1.451,3.275,3.068,6.505,4.826,9.625
c2.105,3.736,4.447,7.347,6.718,10.984c1.622,2.6,3.601,5.225,4.808,8.055c0.111,0.259,0.48,0.072,0.389-0.185
C55.683,146.326,54.036,143.832,52.6,141.357z M243.877,229.694c9.678-25.081,12.852-52.694,13.043-79.405
c0.003-0.275-0.424-0.318-0.428-0.04c-0.463,26.899-5.58,53.443-13.926,78.96C242.286,230.066,243.553,230.537,243.877,229.694z
M250.779,323.633c1.019-0.408,1.952-1.258,2.829-1.893c0.646-0.467,4.413-2.217,5.092-1.158c0.84,1.305-1.854,5.262-2.422,6.328
c-2.57,4.836-3.875,11.182-3.459,16.254c0.088,1.053,0.24,2.447,1.416,1.896c5.947-2.783,7.087-9.779,8.804-15.457
c0.122-0.406-0.442-0.611-0.614-0.229c-2.133,4.729-3.654,10.553-8.453,13.234c0.678-5.738,2.264-11.082,4.947-16.211
c1.229-2.348,3.791-7.377-0.516-8.076c-2.029-0.33-4.51,0.725-6.143,1.826c-0.529,0.357-1.031,0.756-1.552,1.127
c-1.476,1.051-3.174,0.113-3.056-1.715c0.12-1.854,1.672-3.699,2.66-5.197c3.455-5.252,7.555-11.658,8.75-17.919
c0.055-0.285-0.412-0.388-0.494-0.113c-2.079,6.997-6.814,12.771-10.93,18.644c-1.41,2.012-2.561,4.367-1.66,6.803
C246.757,323.895,248.899,324.385,250.779,323.633z M332.035,171.688c-2.782-7.52-4.741-15.333-7.455-22.889
c-3.067-8.542-6.673-16.758-9.062-25.535c-3.373-12.385-6.985-24.658-11.01-36.831c-0.823-2.867-2.482-7.358-2.667-7.893
c-4.394-12.647-10.146-25.416-20.226-34.585c-2.322-2.111-4.924-4.523-7.779-5.887c-3.912-1.868-7.897-3.593-11.807-5.488
c-8.316-4.037-16.584-8.176-24.828-12.358c-8.205-4.163-16.363-8.409-24.75-12.19c-0.057-0.188-0.184-0.362-0.412-0.488
c-2.602-1.456-5.056-3.15-7.502-4.849c-0.347-0.242-0.693-0.483-1.043-0.724c-0.594-0.413-1.405-0.931-2.139-0.619
C188.95,6.64,175.419,8.759,161.985,8.71c-5.016-0.018-10.027-0.356-14.988-1.105c-4.998-0.753-9.912-1.921-14.663-3.664
c-1.302-0.478-2.59-0.991-3.87-1.525c-0.627-0.264-1.251-0.531-1.875-0.801c-0.309-0.134-0.617-0.268-0.928-0.404
c-0.939-0.411-1.283-0.666-2.568-0.066c-0.785,0.367-1.802,1.048-2.481,1.59c-1.382,1.101-2.321,2.118-3.753,3.157
c-0.795,0.577-1.646,1.051-2.605,1.296c-0.391,0.1-0.604,0.385-0.667,0.697c-3.132,1.5-6.132,3.34-9.126,5.051
c-4.707,2.688-9.416,5.373-14.113,8.079c-13.316,7.671-27.23,13.339-40.992,20.091c-0.43,0.211-0.789,0.431-0.98,0.822
c-8.691,4.09-14.589,13.417-18.656,21.718c-2.491,5.083-4.018,10.291-5.504,15.732c-1.953,7.157-4.006,14.264-5.276,21.582
c-1.218,7.016-1.423,14.151-2.304,21.21c-0.906,7.243-3.062,13.996-5.346,20.919c-2.1,6.368-3.793,12.829-5.715,19.242
c-1.307,4.366-4.248,8.959-4.129,13.631c0.014,0.531,0.214,1.275,1.17,1.706c2.922,1.313,5.314,3.738,7.639,5.879
c2.348,2.16,4.889,4.027,7.539,5.79c5.058,3.366,10.729,5.708,16.568,7.298c4.824,1.311,9.783,2.157,14.761,2.58
c3.97,0.336,8.841,0.4,12.856-0.89c0.861-0.36,1.342-0.54,1.65-1.22c1.362-3.012,2.016-5.918,2.927-9.113
c0.681-2.383,1.198-4.767,1.442-7.198c0.004-0.01,0.011-0.018,0.016-0.026c0.82-1.774,1.462-3.582,1.951-5.407
c-0.004,0.142-0.008,0.284-0.013,0.426c-0.197,2.435-0.726,4.848-0.9,7.285c-0.127,1.773-0.118,3.556-0.052,5.342
c-2.672,8.014-2.605,17.354-2.671,25.675c-0.079,10.261,1.853,31.134,1.97,31.302c-0.422,12.395-0.872,24.789-0.781,37.199
c0.062,8.652-0.357,17.104-1.396,25.709c-1.212,10.023-2.421,19.373-2.995,29.461c-0.037,0.643,0.244,1.34,0.679,1.902
c9.936,12.875,28.421,19.27,44.278,22.227c21.645,4.035,44.019,3.234,65.917,3.109c0.03,0,0.058,0.008,0.09,0.008
c10.567-0.082,21.021-1.191,31.469-2.697c7.786-1.121,15.575-1.822,23.312-3.338c7.822-1.535,15.443-3.887,22.779-7.002
c6.369-2.705,14.633-7.895,18.184-11.768c0.788-0.861,0.523-2.15,0.188-3.188c-0.696-2.154-1.107-4.355-1.523-6.584
c-0.658-3.508-1.173-7.045-1.795-10.561c-1.243-7.045-2.871-13.943-3.615-21.077c-1.528-14.643-0.674-29.482-0.65-44.171
c0.023-14.821-1.079-29.597-0.936-44.428c0.078-8.073,0.422-16.175,0.611-24.271c0.404-10.262,0.715-17.37,0.742-17.448
c1.521,6.829,4.17,13.336,5.803,20.124c0.182,0.754,0.264,1.617,0.653,2.301c0.919,1.612,3.642,2.508,5.325,2.797
c2.184,0.375,4.424,0.196,6.623,0.075c6.182-0.338,12.304-1.759,18.223-3.51c4.648-1.376,9.279-2.835,13.779-4.651
c4.543-1.833,8.959-4.129,12.912-7.04c1.078-0.793,2.107-1.651,3.057-2.596c0.451-0.449,0.882-0.917,1.299-1.396
C331.202,173.808,332.475,172.875,332.035,171.688z M124.344,1.748c0.168-0.153,0.311-0.216,0.486-0.113
c10.425,6.049,24.248,8.693,36.96,9.133c13.754,0.476,27.837-1.76,40.569-7.042c0.957,2.774,0.385,5.742-0.723,8.48
c-10.404,5.531-23.137,7.096-34.688,7.78c-14.391,0.854-30.152-0.445-42.482-8.571C123.442,8.533,123.288,5.312,124.344,1.748z
M201.25,13.109c-0.516,1.134-1.106,2.222-1.704,3.225c-2.535,4.266-6.092,7.004-10.496,9.195
c-10.162,5.059-21.812,5.59-32.912,4.327c-10.441-1.187-27.043-7.052-31.426-17.799c11.418,8.077,27.351,9.343,40.863,8.729
c7.362-0.334,14.633-1.368,21.812-3.022C192.081,16.684,196.94,15.361,201.25,13.109z M68.096,176.123
c-0.42-6.612-3.174-13.05-6.691-18.565c-0.268-0.42-0.967-0.124-0.721,0.343c3.328,6.3,5.58,13.103,5.367,20.298
c-0.098,3.371-1.055,6.649-2.076,9.837c-0.916,2.857-1.854,5.986-2.645,8.866c-4.375,1.392-9.1,0.99-13.621,0.489
c-4.827-0.536-9.722-1.47-14.35-2.959c-5.986-1.928-11.578-4.684-16.641-8.438c-4.361-3.235-7.633-8.19-12.561-10.623
c0.055-1.896,0.869-3.88,1.439-5.635c0.787-2.415,1.631-4.81,2.283-7.265c0.756-2.831,1.188-5.737,1.94-8.575
c0.909-3.429,2.078-6.802,3.183-10.171c1.974-6.005,4.311-12.072,5.541-18.287c1.314-6.623,1.258-13.285,1.846-19.98
c0.633-7.186,2.347-14.279,4.105-21.257c1.398-5.548,2.648-11.181,4.737-16.518c3.726-9.52,10.325-19.659,19.518-24.679
c0.243-0.105,0.46-0.105,0.588,0.038c1.356,10.471,2.148,21.293,2.933,31.819c0.777,10.42,2.08,20.772,3.008,31.174
c0.398,4.435,1.014,8.794,2.433,13.03c1.501,4.481,3.492,8.757,5.265,13.131c2.013,4.968,3.778,10.041,4.473,15.373
c0.157,1.201-0.025,2.378-0.219,3.541c-2.891-6.024-6.939-11.434-10.51-17.07c-5.066-7.993-8.98-17.128-11.746-26.158
c-3.07-10.023-3.994-20.181-5.202-30.527c-0.032-0.277-0.494-0.262-0.493,0.019c0.123,19.455,5.377,38.032,14.343,55.19
c3.501,6.696,8.423,12.52,11.749,19.349C69.182,159.742,70.563,168.021,68.096,176.123z M69.223,192.373
c0.435,6.038,0.801,12.055,1.689,18.051c0.895,6.019,2.129,11.979,3.371,17.935c0.689,3.306,1.387,6.612,2.035,9.927
c2.416,12.352,4.904,24.693,6.936,37.115c0.97,5.928,2.182,11.841,2.835,17.81c0.418,3.806-0.3,10.261-2.769,8.379
c-6.725-5.13-8.352-15.396-9.809-23.335c-1.818-9.899-1.69-20.009-2.855-29.986c-0.105-0.9-1.148-9.061-1.794-15.875
C68.217,225.579,66.836,209.613,69.223,192.373z M245.309,153.849c-0.547,0.292-0.143,1.161,0.416,0.875
c6.352-3.251,11.848-8.226,15.934-14.084c0.234,1.625-0.246,3.223-0.74,4.976c-0.611,2.172-0.604,4.662-0.674,6.902
c-0.162,5.116,0.469,10.21,0.632,15.317c0.161,5.093-0.251,10.214-0.429,15.304c-0.102,2.983-0.199,5.967-0.291,8.951
c-0.205,1.384-0.416,2.759-0.629,4.123c-1.748,11.296-4.068,22.507-7.27,33.481c-2.967,10.171-5.74,20.355-8.45,30.601
c-2.384,9.016-5.13,17.982-9.074,26.454c-2.76,5.928-5.409,11.936-8.386,17.757c-0.825,1.616-1.692,3.217-2.629,4.771
c-0.152,0.25,0.214,0.512,0.373,0.262c3.221-5.076,6.352-10.206,9.226-15.484c4.45-8.177,7.778-16.681,10.368-25.623
c0.715-2.466,1.383-4.945,2.023-7.433c2.734-10.621,5.359-21.228,8.355-31.779c2.492-8.781,4.381-17.737,5.793-26.756
c-0.067,2.519-0.135,5.038-0.199,7.556c-0.377,14.83,0.711,29.586,0.691,44.406c-0.02,14.206-0.652,28.421,0.375,42.609
c0.521,7.189,1.723,14.111,3.097,21.172c0.68,3.504,1.174,7.041,1.739,10.566c0.285,1.764,0.594,3.525,0.931,5.279
c0.294,1.527,0.83,2.992,1.366,5.738c-10.814,10.408-25.835,14.283-40.189,17.064c-7.223,1.398-14.534,2.312-21.85,3.059
c-10.499,1.074-20.882,2.26-31.459,2.246c-0.035,0-0.064,0.006-0.098,0.01c-21.186,0.098-42.344,0.52-63.402-2.338
c-16.715-2.266-35.828-9.301-45.225-20.275c-0.072-1.221,0.188-4.387,0.215-4.949c0.468-9.709,1.143-15.354,2.154-25.021
c0.605-5.783,1.051-11.507,1.253-17.26c0.65,3.896,1.535,7.774,2.44,11.58c1.334,5.605,3.059,11.119,4.934,16.561
c0.901,2.613,2.117,5.877,3.061,8.475c1.037,2.848,6.011,13.184,7.732,15.777c0.941,1.416,1.886,2.83,2.785,4.273
c0.283,0.451,1.025,0.135,0.77-0.367c-0.727-1.424-1.359-2.906-2.111-4.318c-2.146-4.033-6.809-14.504-9.697-23.023
c-1.885-5.557-3.781-11.129-5.355-16.787c-1.508-5.411-2.848-10.845-3.734-16.395c-0.277-1.734-0.518-3.471-0.721-5.211
c-0.141-11.207,0.088-22.41-0.052-33.611c1.167,10.59,0.823,21.253,2.765,31.762c1.446,7.826,3.963,16.191,9.197,20.711
c0.696,0.6,1.886,1.393,2.727,1.506c5.308,0.717,3.184-11.09,2.648-14.816c-1.998-13.926-4.139-27.902-6.734-41.729
c-2.522-13.434-6.291-26.679-8.328-40.188c-0.371-2.469-0.637-4.959-0.822-7.458c0.008-0.039,0.02-0.076,0.018-0.119
c-0.479-9.97,1.062-20.067,0.234-30.026c0.274-4.558-0.408-9.161-2.027-13.65c-0.059-0.164-0.125-0.323-0.186-0.486
c-0.141-1.232,0.172-2.624,0.335-3.741c0.212-1.45,0.288-2.762,0.146-4.171c0.974,1.152,1.975,2.223,2.873,3.152
c3.459,3.576,7.47,6.869,11.826,9.288c0.586,0.325,1.199-0.508,0.607-0.867c-3.973-2.412-7.121-5.675-9.968-9.308
c-1.479-1.889-2.921-3.818-4.306-5.779c-1.135-1.604-2.168-3.128-3.174-5.049c-0.691-2.019-1.453-4.013-2.183-5.972
c-1.639-4.402-3.716-8.627-5.327-13.043c-1.725-4.73-2.427-9.565-2.988-14.542c-2.307-20.46-6.564-61.721-6.545-61.828
c0.028-0.167,0.188-0.318,0.279-0.363c13.551-6.838,27.4-12.732,40.555-20.312c7.629-4.394,15.164-8.954,22.842-13.261
C114,22.783,124.666,31.654,136.146,37.41c0.216,0.108,0.347-0.247,0.13-0.354c-10.977-5.421-21.188-15.245-21.221-28.262
c1.531-0.485,2.725-1.469,3.818-2.672c1.477-1.624,2.686-3.061,4.512-3.971c-6.205,18.234,18.428,28.274,32.529,30.037
c12.58,1.574,25.452,0.262,36.536-6.243c6.864-4.028,13.606-13.333,11.8-21.733c1.971,1.938,4.409,3.572,6.656,4.95
c0.079,0.049,0.05,0.423,0.08,0.649c1.753,13.342-10.65,23.594-21.707,27.993c-11.495,4.571-23.664,4.982-35.838,4.708
c-0.229-0.006-0.254,0.309-0.034,0.348c6.151,1.093,12.765,0.675,18.938-0.034c6.71-0.771,13.366-2.438,19.6-5.047
c10.872-4.551,22.008-15.4,20.396-28.205c-0.028-0.233-0.079-0.335-0.163-0.431c0.502,0.154,32.716,16.836,49.285,24.971
c3.643,1.788,7.27,3.586,11.016,5.14c0.617,0.255,1.228,0.57,1.83,0.92c2.027,8.285,2.346,16.473,1.285,24.956
c-1.108,8.849-2.928,17.583-3.154,26.524c-0.178,6.953-0.559,13.492-2.062,20.328c-1.787,8.119-5.22,17.806-8.012,23.349
C259.576,140.874,252.549,150,245.309,153.849z M301.93,187.598c-5.688,2.1-11.589,3.598-17.6,4.398
c-3.442,0.459-11.988,0.52-12.551-1.791c-1.714-7.035-4.455-13.803-6.309-20.806c-1.112-4.194-1.709-8.276-1.768-12.395
c3.936-9.861,10.948-17.714,16.459-26.744c2.923-4.79,5.35-9.867,7.064-15.214c1.703-5.312,2.906-10.84,2.9-16.439
c-0.005-5.983-0.574-12.621-3.215-18.075c-0.666-1.374-1.488-2.701-2.465-3.877c-0.217-0.261-0.609,0.075-0.4,0.34
c0.973,1.225,1.602,3.22,2.145,4.678c0.592,1.588,1.004,3.231,1.248,4.907c0.518,3.55,0.473,7.198,0.492,10.778
c0.043,8.131-1.259,15.738-4.375,23.276c-1.676,4.051-3.704,8.046-6.025,11.768c-4.453,7.14-10.776,14.064-13.797,22.11
c0.226-0.601,0.083-1.606,0.139-2.257c0.065-0.793,0.151-1.583,0.256-2.37c0.783-5.917,4.199-11.209,7.207-16.237
c0.902-1.508,1.81-3.014,2.687-4.537c3.93-6.823,6.927-14.545,7.749-22.421c0.523-5.019,0.129-10.289-0.23-15.309
c-0.307-4.268,0.207-8.383,0.53-12.623c0.022-0.282-0.376-0.307-0.429-0.041c-0.756,3.876-1.148,7.881-1.324,11.824
c-0.25,5.647-0.113,11.315-0.771,16.942c-0.613,5.25-1.936,10.436-3.908,15.34c-1.082,2.69-2.348,5.357-3.789,7.875
c-1.643,2.866-3.393,5.671-4.938,8.593c-1.865,3.53-3.443,7.604-4.458,11.468c0.005-0.083,0.005-0.165,0.007-0.247
c0.172-3.835,1.629-7.727,0.068-11.173c-0.104-0.229,0.867-1.686,1.003-1.954c0.337-0.664,0.667-1.328,0.991-1.998
c0.672-1.394,1.309-2.803,1.904-4.232c1.256-3.018,2.336-6.11,3.276-9.239c1.871-6.224,3.201-12.634,3.894-19.096
c0.391-3.645,0.596-7.334,0.621-11c0.119-16.645,6.813-34.821,1.025-51.069c2.61,1.726,5.027,4.131,7.076,6.182
c5.035,5.042,8.859,11.141,11.99,17.502c3.113,6.319,5.453,13,7.667,19.677c0.19,0.578,0.384,1.155,0.576,1.732
c2.243,11.465,1.097,23.655-0.884,34.999c-2.336,13.377-3.033,27.214-8.363,39.865c-0.117,0.279,0.312,0.429,0.435,0.161
c5.79-12.563,7.031-26.442,9.612-39.866c1.402-7.292,2.421-14.72,2.163-22.161c-0.056-1.572-0.115-3.156-0.207-4.738
c1.333,4.018,2.636,8.047,3.835,12.096c2.486,8.407,4.081,17.046,6.582,25.452c2.453,8.248,5.979,16.179,8.664,24.362
c1.773,5.41,3.129,10.952,5.037,16.317C322.385,180.438,311.706,183.989,301.93,187.598z"/>

<path fill="#1E1E1D" d="M123.659,2.319c-5.043,16.962,19.074,26.766,29.482,28.316c14.422,2.148,29.134,1.278,41.367-7.173
c2.707-1.871,6.746-8.703,8.46-13.35C182.11,20.427,140.622,17.677,123.659,2.319z"/>

</g>

</svg>
