<?xml version="1.0" encoding="utf-8"?>

<svg version="1.1"  width="2000px" height="2000px" viewBox="0 0 792 612" 
     preserveAspectRatio="xMinYMin meet" x="0px" y="0px"
     xmlns="http://www.w3.org/2000/svg"
     xmlns:xlink="http://www.w3.org/1999/xlink" enable-background="new
     0 0 792 612" xml:space="preserve" >

<defs>

<radialGradient   id="tvEye" cx="0.4" cy="0.5" fx="0.8" fy="0.5" r="0.6">
  <stop offset="30%"  stop-color="black" />
  <stop offset="32%"  stop-color="lightblue" />
  <stop offset="58%"  stop-color="lightblue" />
  <stop offset="60%"  stop-color="white" />
  <stop offset="80%"  stop-color="white" />
  <stop offset="100%" stop-color="pink" />
</radialGradient>

<radialGradient id="tvRad" spreadMethod="reflect">
    <stop  offset="10%" stop-color="#F15A29" />
    <stop  offset="14%" stop-color="#F15F29" />
    <stop  offset="15%" stop-color="#F68D24" />
    <stop  offset="16%" stop-color="#F9AC1C" />
    <stop  offset="17%" stop-color="#FCBF13" />
    <stop  offset="18%" stop-color="#FDC70C" />
    <stop  offset="20%" stop-color="#1C75BC" />
</radialGradient>

<linearGradient
   id            = "tvOn"
   x1            = "0"
   y1            = "200" 
   x2            = "0"
   y2            = "70"
   gradientUnits = "userSpaceOnUse"
>
    <stop  offset="0"     stop-color="#F15A29" />
    <stop  offset="0.05"  stop-color="#F15F29" />
    <stop  offset="0.17"  stop-color="#F68D24" />
    <stop  offset="0.32"  stop-color="#F9AC1C" />
    <stop  offset="0.42"  stop-color="#FCBF13" />
    <stop  offset="0.5"   stop-color="#FDC70C" />
    <stop  offset="1"     stop-color="#1C75BC" />
</linearGradient>

<linearGradient id="tvOff" x1="0" y1="0" x2="0" y2="1" >
    <stop offset="0" stop-color="#ddd" />
    <stop offset="1" stop-color="#444" />
</linearGradient>

<g id="tv">

<path id="leg1" d="M36.477,202.464c0,0-2.426,35.944-2.479,38.857c-0.054,2.912,6.047,4.252,6.613,0c0.567-4.252,4.962-38.033,4.962-38.033
L36.477,202.464z"/>

<path id="leg2" d="M186.955,202.464c0,0,2.426,35.944,2.479,38.857c0.054,2.912-6.046,4.252-6.613,0s-4.961-38.033-4.961-38.033
L186.955,202.464z"/>

<path id="tvBack" d="M204.476,197.933c-27.829,17.71-158.271,22.77-183.57,0c-25.3-22.768-28.673-107.099,0-127.337
c28.672-20.24,160.8-22.769,183.57,0S232.305,180.224,204.476,197.933z"/>

<path id="tvScreen" fill="url(#tvOn)"
d="M159.957,184.103c-21.826,13.892-102.52,17.859-122.361,0c-19.843-17.857-22.486-83.999,0-99.873
c22.489-15.874,104.504-17.858,122.361,0C177.814,102.088,181.783,170.214,159.957,184.103z"/>

<ellipse id="antennaBase" cx="103.445" cy="56.954" rx="20.669" ry="14.882"/>

<path id="antenna1" d="M93.065,42.605L39.015,10.223l-1.171,1.63l52.109,35.432C92.831,49.223,96.447,44.616,93.065,42.605z"/>

<circle id="antennaDot1" cx="37.844" cy="10.223" r="3.347"/>

<path id="antenna2" d="M109.633,44.508l25.315-41.617l1.388,0.694L113.447,46.59C112.197,48.922,108.454,46.555,109.633,44.508z"/>

<circle id="antennaDot2" cx="134.763" cy="3.994" r="3.348"/>

<circle id="dial1" fill="#FFFFFF" cx="196.842" cy="106.101" r="12.405"/>

<circle id="dial2" fill="#FFFFFF" cx="198.13" cy="137.521" r="12.404"/>

</g>

</defs>

<use xlink:href="#tv"/>

</svg>
