<?xml version="1.0" encoding="utf-8"?>

<svg version="1.1" 
xmlns="http://www.w3.org/2000/svg"
xmlns:xlink="http://www.w3.org/1999/xlink" x="0px" y="0px"
width="792px" height="612px" viewBox="0 0 792 612"
enable-background="new 0 0 792 612" xml:space="preserve">

<g>

<filter  id="F">

<feTurbulence  stitchTiles="noStitch" numOctaves="4" baseFrequency="0.01" type="fractalNoise" seed="1">

<animate  calcMode="linear" restart="always" to="40" from="1" additive="replace" dur="1s" accumulate="none" attributeName="seed" begin="0s" id="makeNoise" fill="remove" repeatCount="indefinite" attributeType="XML">

</animate>

</feTurbulence>

</filter>

<path d="M205.297,70.38c-22.771-22.769-154.898-20.24-183.57,0c-28.673,20.239-25.3,104.569,0,127.338
c25.299,22.77,155.741,17.709,183.57,0C233.126,180.008,228.068,93.149,205.297,70.38z M160.779,183.888
c-21.826,13.891-102.52,17.858-122.361,0c-19.843-17.858-22.486-84,0-99.874c22.489-15.874,104.504-17.858,122.361,0
C178.636,101.873,182.605,169.999,160.779,183.888z"/>

<path d="M37.298,202.248c0,0-2.426,35.945-2.479,38.858s6.047,4.253,6.613,0c0.567-4.253,4.962-38.032,4.962-38.032
L37.298,202.248z"/>

<path d="M187.777,202.248c0,0,2.426,35.945,2.479,38.858s-6.046,4.253-6.613,0s-4.961-38.032-4.961-38.032L187.777,202.248z"/>

<ellipse cx="104.267" cy="56.738" rx="20.669" ry="14.882"/>

<path d="M93.887,42.39L39.836,10.007l-1.171,1.63l52.109,35.432C93.653,49.008,97.269,44.4,93.887,42.39z"/>

<circle cx="38.666" cy="10.008" r="3.347"/>

<path d="M110.455,44.293L135.77,2.676l1.388,0.694l-22.889,43.005C113.019,48.707,109.276,46.339,110.455,44.293z"/>

<circle cx="135.585" cy="3.779" r="3.348"/>

<g>

<g>

<circle fill="#FFFFFF" cx="197.664" cy="105.886" r="12.405"/>

</g>

<g>

<circle fill="#FFFFFF" cx="198.952" cy="137.304" r="12.404"/>

</g>

</g>

<g>

<defs>

<path id="SVGID_1_" d="M160.779,183.888c-21.826,13.891-102.52,17.858-122.361,0c-19.843-17.858-22.486-84,0-99.874
c22.489-15.874,104.504-17.858,122.361,0C178.636,101.873,182.605,169.999,160.779,183.888z"/>

</defs>

<clipPath id="fooClip">

<use xlink:href="#SVGID_1_"  overflow="visible"/>

</clipPath>

<g clip-path="url(#fooClip)" filter="url(#F)">

<rect x="-13.684" y="66.335" fill="#7EC242" width="253.333" height="141.333"/>

</g>

</g>

</g>

</svg>
