<?xml version="1.0" encoding="utf-8"?>

<svg version="1.1" xmlns="http://www.w3.org/2000/svg"
xmlns:xlink="http://www.w3.org/1999/xlink" x="0px" y="0px"
width="1000" height="1000" viewBox="0 0 1000 1000"
enable-background="new 0 0 1000 1000" xml:space="preserve">


<path d="M 0,0 M 55,339 A 31,35 0 0 1 56,300 A 31,35 0 0 1 39,268 A 31,35 -240 0 1 50,228 A 31,35 126 0 1 45,190 A 31,35 -221 0 1 70,156 A 31,35 -221 0 1 113,127 A 31,35 -221 0 1 163,90 A 31,35 -221 0 1 199,82 A 31,35 -221 0 1 251,70 A 31,35 -221 0 1 299,52 A 31,35 -221 0 1 357,79 A 31,35 -221 0 1 408,95 A 31,35 -221 0 1 469,122 A 31,35 -221 0 1 492,172 A 31,35 -221 0 1 510,230 A 31,35 -221 0 1 580,285 A 31,35 -221 0 1 536,344 A 31,35 -221 0 1 476,392 A 31,35 -221 0 1 431,432 A 31,35 -221 0 1 346,462 A 31,35 -221 0 1 264,479 A 31,35 -221 0 1 231,446 A 31,35 -221 0 1 168,448 A 31,35 -221 0 1 113,421 A 31,35 -221 0 1 61,399 A 31,35 -221 0 1 55,340" fill="pink" fill-opacity="0.5"></path>

</svg>
