<?xml version="1.0" encoding="utf-8"?>

<svg version="1.1" 
xmlns="http://www.w3.org/2000/svg" xmlns:xlink="http://www.w3.org/1999/xlink" x="0px" y="0px" width="792px" height="612px"
viewBox="0 0 792 612" enable-background="new 0 0 792 612" xml:space="preserve">

<g>

<g id="background">

<rect opacity="0.1" fill="#6162AC" width="238.576" height="311.471" />

</g>

<g id="Waves_Pos1">

<path id="wave_2_3_" opacity="0.1" fill="#6162AC" d="M186.575,64.63c-23.334,4.441-29.999,3.376-54.683-4.441
c-24.684-7.817-39.65-63.659-57.207-41.695S0,57.956,0,57.956v253.509h238.568V50.578
C223.525,52.701,208.004,60.552,186.575,64.63z" >

</path>

<g id="wave_1_5_" opacity="0.1">

<path fill="#6162AC"
d="M238.568,227.718V91.344c-7.145-1.102-14.209-3.313-20.881-5.936
c-20.801-8.32-44.912-28.162-52.477-57.603v0.64c-7.564,6.4-16.074,24.321-23.639,33.281
c-11.819,14.081-26.948,31.361-43.967,33.282c-11.819,1.28-26.003-5.12-36.877-10.881c-17.02-10.24-30.256-28.162-43.494-45.442
C11.562,31.646,7.092,30.365,0,28.446v283.02h238.568v-0.001V227.718z"
>

</path>

</g>

</g>

<g id="Small_Pos1">

<path id="weed06" opacity="0.25" fill="#3D3F99"
d="M177.619,254.37c0,0,3.435,2.563,4.356,5.588 c0.922,3.025,2.439,3.992,0.463,7.322c-1.976,3.331-8.583,8.175-5.54,14.038c3.043,5.862,9.27,12.992,10.853,17.537 c1.582,4.544-0.861,11.82-1.813,12.609h-11.716c0,0-1.694,0.017,1.578-3.937c3.272-3.954,6.471-3.623,6.176-7.12 c-0.295-3.497-0.533-4.547-5.718-10.247c-5.187-5.699-6.374-11.836-3.954-14.992s6.573-4.455,7.019-8.539 c0.445-4.085,2.854-6.803-0.959-10.046c-3.813-3.244-6.384-5.436-4.142-4.384C176.463,253.253,177.619,254.37,177.619,254.37z"
>

<animate repeatCount="indefinite" id="weed06anim01" attributeType="XML" attributeName="d" begin="0s" dur="2s" from="1" to="1" />

<animate repeatCount="indefinite" id="weed06anim02" attributeType="XML" attributeName="d" begin="weed06anim02.end" dur="2s" from="1" to="1" />

</path>

<path id="weed07" opacity="0.25" fill="#3D3F99"
d="M175.041,221.04c0,0-4.564,4.06-5.791,8.851 c-1.226,4.792-3.241,6.322-0.615,11.597c2.626,5.275,11.407,12.948,7.363,22.232s-12.32,20.578-14.423,27.774 c-2.103,7.198,1.144,18.722,2.41,19.971h15.571c0,0,2.251,0.026-2.098-6.234c-4.35-6.262-8.601-5.738-8.209-11.276 c0.393-5.539,0.709-7.203,7.601-16.229c6.892-9.026,8.47-18.746,5.254-23.744c-3.216-4.998-8.736-7.055-9.328-13.524 c-0.591-6.469-3.793-10.773,1.275-15.911c5.068-5.137,8.484-8.608,5.505-6.942C176.577,219.271,175.041,221.04,175.041,221.04z"
>

<animate repeatCount="indefinite" id="weed07anim01" attributeType="XML" attributeName="d" begin="0s" dur="2s" from="1" to="1" />

<animate repeatCount="indefinite" id="weed07anim02" attributeType="XML" attributeName="d" begin="weed07anim02.end" dur="2s" from="1" to="1" />

</path>

<path id="weed08" opacity="0.25" fill="#3D3F99"
d="M184.747,198.202c0,0,3.435,5.084,4.357,11.086
c0.922,6.001,2.439,7.918,0.464,14.525c-1.977,6.607-8.584,16.217-5.541,27.847s9.27,25.774,10.852,34.789
c1.583,9.015-0.86,23.45-1.812,25.015H181.35c0,0-1.693,0.033,1.579-7.81c3.271-7.843,6.471-7.186,6.176-14.123
c-0.295-6.938-0.533-9.021-5.719-20.327c-5.186-11.306-6.373-23.48-3.953-29.741c2.42-6.261,6.573-8.837,7.019-16.94
s2.854-13.495-0.959-19.93c-3.813-6.435-6.384-10.783-4.143-8.696C183.592,195.985,184.747,198.202,184.747,198.202z"
>

<animate repeatCount="indefinite" id="weed08anim01" attributeType="XML" attributeName="d" begin="0s" dur="2s" from="1" to="1" />

<animate repeatCount="indefinite" id="weed08anim02" attributeType="XML" attributeName="d" begin="weed03anim08.end" dur="2s" from="1" to="1" />

</path>

<path id="weed09" opacity="0.25" fill="#3D3F99"
d="M192.485,210.959c0,0,6.047,4.512,7.671,9.838
c1.623,5.325,4.294,7.026,0.814,12.889c-3.478,5.863-15.109,14.391-9.752,24.711c5.356,10.32,16.318,22.871,19.103,30.87
c2.785,8-1.515,20.809-3.192,22.198h-20.624c0,0-2.98,0.029,2.778-6.93c5.761-6.96,11.392-6.377,10.873-12.533
c-0.521-6.155-0.939-8.005-10.067-18.037c-9.128-10.033-11.219-20.835-6.959-26.391c4.261-5.556,11.572-7.841,12.354-15.032
c0.784-7.191,5.025-11.975-1.688-17.685s-11.238-9.568-7.292-7.716C190.451,208.993,192.485,210.959,192.485,210.959z"
>

<animate repeatCount="indefinite" id="weed09anim01" attributeType="XML" attributeName="d" begin="0s" dur="2s" from="1" to="1" />

<animate repeatCount="indefinite" id="weed09anim02" attributeType="XML" attributeName="d" begin="weed09anim02.end" dur="2s" from="1" to="1" />

</path>

<path id="weed10" opacity="0.25" fill="#3D3F99"
d="M202.648,235.1c0,0,7.578,3.429,9.612,7.475
c2.035,4.046,5.381,5.339,1.022,9.793c-4.358,4.454-18.935,10.935-12.223,18.775c6.713,7.841,20.449,17.378,23.939,23.456
c3.49,6.079-1.898,15.811-4,16.866h-25.846c0,0-3.736,0.022,3.482-5.266c7.219-5.288,14.275-4.845,13.624-9.522
c-0.651-4.677-1.177-6.083-12.615-13.705c-11.438-7.623-14.059-15.832-8.721-20.052c5.338-4.221,14.501-5.958,15.482-11.422
c0.982-5.464,6.297-9.099-2.115-13.438c-8.413-4.339-14.083-7.27-9.138-5.863C200.1,233.605,202.648,235.1,202.648,235.1z"
>

<animate repeatCount="indefinite" id="weed10anim01" attributeType="XML" attributeName="d" begin="0s" dur="2s" from="1" to="1" />

<animate repeatCount="indefinite" id="weed10anim02" attributeType="XML" attributeName="d" begin="weed10anim02.end" dur="2s" from="1" to="1" />

</path>

</g>

<g id="Large_Pos1">

<path id="weed01" opacity="0.25" fill="blue" d="M48.547,202.035c0,0,6.583,4.913,8.351,10.711 c1.768,5.799,4.675,7.65,0.888,14.034s-16.451,15.669-10.619,26.905c5.832,11.235,17.768,24.901,20.8,33.611 c3.032,8.709-1.649,22.656-3.476,24.168H42.035c0,0-3.246,0.032,3.025-7.545c6.271-7.578,12.402-6.943,11.837-13.646 s-1.022-8.716-10.96-19.64c-9.939-10.923-12.215-22.685-7.577-28.734c4.638-6.049,12.599-8.537,13.452-16.366 c0.853-7.829,5.47-13.038-1.839-19.255c-7.309-6.218-12.235-10.418-7.938-8.402C46.332,199.895,48.547,202.035,48.547,202.035z"
>

<animate repeatCount="indefinite" id="weed01anim01" attributeType="XML" attributeName="d" begin="0s" dur="2s" from="1" to="1" />

<animate repeatCount="indefinite" id="weed01anim02" attributeType="XML" attributeName="d" begin="weed01anim02.end" dur="2s" from="1" to="1" />

</path>

<path id="weed02" opacity="0.25" fill="orange"
d="M43.606,138.153c0,0-8.749,7.781-11.099,16.964 c-2.35,9.184-6.214,12.117-1.181,22.227s21.864,24.815,14.113,42.611c-7.751,17.795-23.613,39.439-27.644,53.232 c-4.029,13.795,2.192,35.883,4.619,38.277h29.845c0,0,4.314,0.051-4.021-11.949c-8.336-12.002-16.484-10.997-15.732-21.611 c0.752-10.615,1.358-13.805,14.567-31.104s16.233-35.929,10.069-45.509C50.98,191.712,40.4,187.77,39.267,175.37 s-7.271-20.649,2.443-30.496s16.262-16.499,10.551-13.306C46.55,134.762,43.606,138.153,43.606,138.153z"
>

<animate repeatCount="indefinite" id="weed02anim01" attributeType="XML" attributeName="d" begin="0s" dur="2s" from="1" to="1" />

<animate repeatCount="indefinite" id="weed02anim02" attributeType="XML" attributeName="d" begin="weed02anim02.end" dur="2s" from="1" to="1" />

</path>

<path id="weed03" opacity="0.25" fill="#3D3F99"
d="M62.209,94.38c0,0,6.584,9.746,8.352,21.249s4.676,15.177,0.889,27.84
s-16.451,31.083-10.62,53.373c5.833,22.29,17.767,49.4,20.8,66.678c3.033,17.279-1.649,44.945-3.475,47.945H55.698
c0,0-3.246,0.064,3.025-14.968s12.402-13.773,11.837-27.069s-1.021-17.291-10.961-38.96
c-9.938-21.669-12.215-45.003-7.576-57.003s12.599-16.937,13.451-32.468c0.854-15.532,5.471-25.865-1.838-38.198
s-12.235-20.667-7.938-16.667S62.209,94.38,62.209,94.38z" >

<animate repeatCount="indefinite" id="weed03anim01" attributeType="XML" attributeName="d" begin="0s" dur="2s" from="1" to="1" />

<animate repeatCount="indefinite" id="weed03anim02" attributeType="XML" attributeName="d" begin="weed03anim02.end" dur="2s" from="1" to="1" />

</path>

<path id="weed04" opacity="0.25" fill="#3D3F99"
d="M77.041,118.833c0,0,11.59,8.648,14.701,18.855s8.23,13.467,1.562,24.704
c-6.666,11.237-28.959,27.582-18.692,47.361s31.276,43.836,36.614,59.167c5.337,15.333-2.904,39.883-6.119,42.545H65.579
c0,0-5.714,0.057,5.325-13.281c11.041-13.34,21.833-12.223,20.838-24.021c-0.996-11.797-1.799-15.342-19.295-34.57
c-17.494-19.229-21.502-39.934-13.337-50.582s22.179-15.029,23.679-28.812c1.502-13.783,9.631-22.951-3.235-33.896
c-12.866-10.944-21.538-18.338-13.975-14.789C73.143,115.063,77.041,118.833,77.041,118.833z"
>

<animate repeatCount="indefinite" id="weed04anim01" attributeType="XML" attributeName="d" begin="0s" dur="2s" from="1" to="1" />

<animate repeatCount="indefinite" id="weed04anim02" attributeType="XML" attributeName="d" begin="weed04anim02.end" dur="2s" from="1" to="1" />

</path>

<path id="weed05" opacity="0.25" fill="#3D3F99"
d="M96.521,165.101c0,0,14.523,6.571,18.423,14.326
s10.313,10.232,1.959,18.771c-8.354,8.537-36.291,20.957-23.426,35.985s39.194,33.308,45.884,44.956
c6.689,11.65-3.639,30.304-7.667,32.326H82.156c0,0-7.161,0.043,6.674-10.092c13.836-10.135,27.36-9.287,26.113-18.251
c-1.248-8.964-2.255-11.657-24.18-26.268c-21.924-14.61-26.945-30.343-16.714-38.433c10.231-8.091,27.794-11.42,29.675-21.892
c1.882-10.472,12.067-17.438-4.056-25.755c-16.123-8.315-26.991-13.934-17.513-11.236S96.521,165.101,96.521,165.101z"
>

<animate repeatCount="indefinite" id="weed05anim01" attributeType="XML" attributeName="d" begin="0s" dur="2s" from="1" to="1" />

<animate repeatCount="indefinite" id="weed05anim02" attributeType="XML" attributeName="d" begin="weed05anim02.end" dur="2s" from="1" to="1" />

</path>

</g>

<g id="SAND">

<g>

<g>

<path fill="#6162AC"
d="M238.566,299.51c-7.143-0.393-14.207-1.184-20.879-2.116c-20.801-2.959-44.912-10.017-52.477-20.487
v0.228c-7.564,2.276-16.074,8.65-23.639,11.837c-11.819,5.008-26.947,11.154-43.967,11.838
c-11.819,0.455-26.003-1.821-36.877-3.87c-17.02-3.642-30.256-10.017-43.494-16.162c-5.673-2.505-10.143-2.96-17.234-3.643
v34.332h238.568" >

</path>

</g>

</g>

</g>

</g>

</svg>
