<?xml version="1.0" encoding="utf-8"?>

<svg version="1.1" xmlns="http://www.w3.org/2000/svg"
     xmlns:xlink="http://www.w3.org/1999/xlink" x="0px" y="0px"
     width="792px" height="612px" xml:space="preserve">


<defs>
<filter id="F">
<feTurbulence baseFrequency="0.06" numOctaves="5" seed="1" type="fractalNoise"></feTurbulence>
</filter>

</defs>

	<g transform="translate(-280,-170)" id="foo">
		<g>
			<path d="M320.565,385.609c0,0-2.426,35.944-2.479,38.857c-0.054,2.912,6.047,4.252,6.613,0
				c0.567-4.252,4.962-38.033,4.962-38.033L320.565,385.609z"/>
			<path d="M471.044,385.609c0,0,2.426,35.944,2.479,38.857c0.054,2.912-6.046,4.252-6.613,0s-4.961-38.033-4.961-38.033
				L471.044,385.609z"/>
			<path d="M488.564,381.078c-27.829,17.71-158.271,22.77-183.57,0c-25.3-22.768-28.673-107.099,0-127.337
				c28.672-20.24,160.8-22.769,183.57,0S516.394,363.369,488.564,381.078z"/>
		</g>
		<linearGradient id="SVGID_1_" gradientUnits="userSpaceOnUse" x1="382.3804" y1="379.2002" x2="382.3804" y2="254.7158">
			<stop  offset="0" style="stop-color:#F15A29"/>
			<stop  offset="0.014" style="stop-color:#F15F29"/>
			<stop  offset="0.1797" style="stop-color:#F68D24"/>
			<stop  offset="0.3204" style="stop-color:#F9AC1C"/>
			<stop  offset="0.4292" style="stop-color:#FCBF13"/>
			<stop  offset="0.4928" style="stop-color:#FDC70C"/>
			<stop  offset="1" style="stop-color:#1C75BC"/>
		</linearGradient>
		<path fill="url(#SVGID_1_)" d="M444.046,367.248c-21.826,13.892-102.52,17.859-122.361,0c-19.843-17.857-22.486-83.999,0-99.873
			c22.489-15.874,104.504-17.858,122.361,0C461.903,285.234,465.872,353.359,444.046,367.248z"/>
		<ellipse cx="387.534" cy="240.099" rx="20.669" ry="14.882"/>
		<path d="M377.154,225.75l-54.051-32.382l-1.171,1.63l52.109,35.432C376.92,232.369,380.536,227.761,377.154,225.75z"/>
		<circle cx="321.933" cy="193.368" r="3.347"/>
		<path d="M393.722,227.654l25.315-41.617l1.388,0.694l-22.889,43.005C396.286,232.068,392.543,229.7,393.722,227.654z"/>
		<circle cx="418.852" cy="187.14" r="3.348"/>
		<g>
			<circle fill="#FFFFFF" cx="480.931" cy="289.247" r="12.405"/>
		</g>
		<g>
			<circle fill="#FFFFFF" cx="482.219" cy="320.666" r="12.404"/>
		</g>
	</g>
</svg>
