<?xml version="1.0" encoding="utf-8"?>

<svg version="1.1" 
xmlns="http://www.w3.org/2000/svg" xmlns:xlink="http://www.w3.org/1999/xlink" x="0px" y="0px" width="792px" height="612px"
viewBox="0 0 792 612" enable-background="new 0 0 792 612" xml:space="preserve">

<g>

<pattern  width="144" height="144" patternUnits="userSpaceOnUse" id="New_Pattern_4" viewBox="143.731 -159.309 144 144" overflow="visible">

<g>

<polygon fill="none" points="143.731,-159.309 287.731,-159.309 287.731,-15.309 143.731,-15.309 "/>

<g>

<polygon fill="#ED1F24" points="276.522,-11.301 264.432,-21.861 252.5,-11.449 240.565,-21.861 228.705,-11.504 
216.691,-21.988 204.516,-11.355 192.504,-21.844 180.362,-11.246 168.103,-21.955 156.007,-11.395 144,-21.881 144,-10.633 
156.007,-0.149 168.103,-10.709 180.362,0 192.504,-10.598 204.516,-0.109 216.691,-10.743 228.705,-0.257 240.565,-10.615 
252.5,-0.203 264.432,-10.615 276.522,-0.055 288.541,-10.551 288.541,-21.797 "/>

</g>

<g>

<polygon fill="#ED1F24" points="132.522,-11.301 120.432,-21.861 108.5,-11.449 96.565,-21.861 84.705,-11.504 72.691,-21.988 
60.516,-11.355 48.504,-21.844 36.362,-11.246 24.103,-21.955 12.007,-11.395 0,-21.881 0,-10.633 12.007,-0.149 
24.103,-10.709 36.362,0 48.504,-10.598 60.516,-0.109 72.691,-10.743 84.705,-0.257 96.565,-10.615 108.5,-0.203 
120.432,-10.615 132.522,-0.055 144.541,-10.551 144.541,-21.797 "/>

</g>

<g>

<polygon fill="#ED1F24" points="276.522,-155.301 264.432,-165.861 252.5,-155.449 240.565,-165.861 228.705,-155.504 
216.691,-165.988 204.516,-155.355 192.504,-165.844 180.362,-155.246 168.103,-165.955 156.007,-155.395 144,-165.881 
144,-154.633 156.007,-144.149 168.103,-154.709 180.362,-144 192.504,-154.598 204.516,-144.109 216.691,-154.743 
228.705,-144.257 240.565,-154.615 252.5,-144.203 264.432,-154.615 276.522,-144.055 288.541,-154.551 288.541,-165.797 
"/>

<polygon fill="#69BD45" points="276.522,-142.3 264.432,-152.86 252.5,-142.448 240.565,-152.86 228.705,-142.503 
216.691,-152.988 204.516,-142.354 192.504,-152.843 180.362,-142.245 168.103,-152.954 156.007,-142.395 144,-152.88 
144,-141.633 156.007,-131.149 168.103,-141.708 180.362,-131 192.504,-141.597 204.516,-131.108 216.691,-141.743 
228.705,-131.257 240.565,-141.614 252.5,-131.202 264.432,-141.614 276.522,-131.054 288.541,-141.55 288.541,-152.796 
"/>

<polygon fill="#3953A4" points="276.522,-129.3 264.432,-139.86 252.5,-129.449 240.565,-139.86 228.705,-129.502 
216.691,-139.989 204.516,-129.354 192.504,-139.843 180.362,-129.246 168.103,-139.955 156.007,-129.395 144,-139.88 
144,-128.633 156.007,-118.149 168.103,-128.708 180.362,-118 192.504,-128.596 204.516,-118.109 216.691,-128.743 
228.705,-118.256 240.565,-128.615 252.5,-118.202 264.432,-128.615 276.522,-118.053 288.541,-128.55 288.541,-139.795 
"/>

<polygon fill="#ED1F24" points="276.522,-116.3 264.432,-126.86 252.5,-116.449 240.565,-126.86 228.705,-116.502 
216.691,-126.989 204.516,-116.354 192.504,-126.843 180.362,-116.246 168.103,-126.955 156.007,-116.395 144,-126.88 
144,-115.633 156.007,-105.149 168.103,-115.708 180.362,-105 192.504,-115.596 204.516,-105.109 216.691,-115.743 
228.705,-105.256 240.565,-115.615 252.5,-105.202 264.432,-115.615 276.522,-105.053 288.541,-115.55 288.541,-126.795 
"/>

<polygon fill="#69BD45" points="276.522,-103.302 264.432,-113.861 252.5,-103.45 240.565,-113.861 228.705,-103.504 
216.691,-113.989 204.516,-103.355 192.504,-113.845 180.362,-103.247 168.103,-113.956 156.007,-103.396 144,-113.882 
144,-102.634 156.007,-92.149 168.103,-102.71 180.362,-92.001 192.504,-102.598 204.516,-92.11 216.691,-102.743 
228.705,-92.257 240.565,-102.616 252.5,-92.203 264.432,-102.616 276.522,-92.055 288.541,-102.552 288.541,-113.797 "/>

<polygon fill="#3953A4" points="276.522,-90.302 264.432,-100.861 252.5,-90.45 240.565,-100.861 228.705,-90.504 
216.691,-100.989 204.516,-90.355 192.504,-100.845 180.362,-90.247 168.103,-100.956 156.007,-90.396 144,-100.882 
144,-89.634 156.007,-79.15 168.103,-89.71 180.362,-79.001 192.504,-89.598 204.516,-79.11 216.691,-89.744 228.705,-79.258 
240.565,-89.616 252.5,-79.203 264.432,-89.616 276.522,-79.055 288.541,-89.552 288.541,-100.797 "/>

<polygon fill="#ED1F24" points="276.522,-77.302 264.432,-87.862 252.5,-77.45 240.565,-87.862 228.705,-77.505 
216.691,-87.989 204.516,-77.356 192.504,-87.845 180.362,-77.247 168.103,-87.956 156.007,-77.396 144,-87.882 144,-76.634 
156.007,-66.151 168.103,-76.71 180.362,-66.001 192.504,-76.599 204.516,-66.11 216.691,-76.745 228.705,-66.259 
240.565,-76.616 252.5,-66.204 264.432,-76.616 276.522,-66.056 288.541,-76.552 288.541,-87.798 "/>

<polygon fill="#69BD45" points="276.522,-64.301 264.432,-74.862 252.5,-64.45 240.565,-74.862 228.705,-64.504 
216.691,-74.99 204.516,-64.356 192.504,-74.844 180.362,-64.247 168.103,-74.956 156.007,-64.396 144,-74.881 144,-63.634 
156.007,-53.15 168.103,-63.709 180.362,-53.001 192.504,-63.598 204.516,-53.11 216.691,-63.744 228.705,-53.257 
240.565,-63.616 252.5,-53.204 264.432,-63.616 276.522,-53.055 288.541,-63.551 288.541,-74.797 "/>

<polygon fill="#3953A4" points="276.522,-51.301 264.432,-61.862 252.5,-51.45 240.565,-61.862 228.705,-51.504 
216.691,-61.99 204.516,-51.356 192.504,-61.844 180.362,-51.247 168.103,-61.956 156.007,-51.396 144,-61.881 144,-50.634 
156.007,-40.151 168.103,-50.709 180.362,-40.001 192.504,-50.598 204.516,-40.11 216.691,-50.745 228.705,-40.258 
240.565,-50.616 252.5,-40.204 264.432,-50.616 276.522,-40.055 288.541,-50.551 288.541,-61.797 "/>

<polygon fill="#ED1F24" points="276.522,-38.302 264.432,-48.861 252.5,-38.45 240.565,-48.861 228.705,-38.504 
216.691,-48.99 204.516,-38.355 192.504,-48.845 180.362,-38.247 168.103,-48.956 156.007,-38.396 144,-48.882 144,-37.635 
156.007,-27.15 168.103,-37.71 180.362,-27.002 192.504,-37.598 204.516,-27.11 216.691,-37.744 228.705,-27.258 
240.565,-37.616 252.5,-27.203 264.432,-37.616 276.522,-27.055 288.541,-37.552 288.541,-48.797 "/>

<polygon fill="#69BD45" points="276.522,-25.303 264.432,-35.863 252.5,-25.451 240.565,-35.863 228.705,-25.506 
216.691,-35.99 204.516,-25.357 192.504,-35.846 180.362,-25.248 168.103,-35.957 156.007,-25.396 144,-35.883 144,-24.635 
156.007,-14.151 168.103,-24.711 180.362,-14.002 192.504,-24.6 204.516,-14.111 216.691,-24.745 228.705,-14.259 
240.565,-24.617 252.5,-14.205 264.432,-24.617 276.522,-14.057 288.541,-24.553 288.541,-35.799 "/>

</g>

<g>

<polygon fill="#ED1F24" points="132.522,-155.301 120.432,-165.861 108.5,-155.449 96.565,-165.861 84.705,-155.504 
72.691,-165.988 60.516,-155.355 48.504,-165.844 36.362,-155.246 24.103,-165.955 12.007,-155.395 0,-165.881 0,-154.633 
12.007,-144.149 24.103,-154.709 36.362,-144 48.504,-154.598 60.516,-144.109 72.691,-154.743 84.705,-144.257 
96.565,-154.615 108.5,-144.203 120.432,-154.615 132.522,-144.055 144.541,-154.551 144.541,-165.797 "/>

<polygon fill="#69BD45" points="132.522,-142.3 120.432,-152.86 108.5,-142.448 96.565,-152.86 84.705,-142.503 
72.691,-152.988 60.516,-142.354 48.504,-152.843 36.362,-142.245 24.103,-152.954 12.007,-142.395 0,-152.88 0,-141.633 
12.007,-131.149 24.103,-141.708 36.362,-131 48.504,-141.597 60.516,-131.108 72.691,-141.743 84.705,-131.257 
96.565,-141.614 108.5,-131.202 120.432,-141.614 132.522,-131.054 144.541,-141.55 144.541,-152.796 "/>

<polygon fill="#3953A4" points="132.522,-129.3 120.432,-139.86 108.5,-129.449 96.565,-139.86 84.705,-129.502 
72.691,-139.989 60.516,-129.354 48.504,-139.843 36.362,-129.246 24.103,-139.955 12.007,-129.395 0,-139.88 0,-128.633 
12.007,-118.149 24.103,-128.708 36.362,-118 48.504,-128.596 60.516,-118.109 72.691,-128.743 84.705,-118.256 
96.565,-128.615 108.5,-118.202 120.432,-128.615 132.522,-118.053 144.541,-128.55 144.541,-139.795 "/>

<polygon fill="#ED1F24" points="132.522,-116.3 120.432,-126.86 108.5,-116.449 96.565,-126.86 84.705,-116.502 
72.691,-126.989 60.516,-116.354 48.504,-126.843 36.362,-116.246 24.103,-126.955 12.007,-116.395 0,-126.88 0,-115.633 
12.007,-105.149 24.103,-115.708 36.362,-105 48.504,-115.596 60.516,-105.109 72.691,-115.743 84.705,-105.256 
96.565,-115.615 108.5,-105.202 120.432,-115.615 132.522,-105.053 144.541,-115.55 144.541,-126.795 "/>

<polygon fill="#69BD45" points="132.522,-103.302 120.432,-113.861 108.5,-103.45 96.565,-113.861 84.705,-103.504 
72.691,-113.989 60.516,-103.355 48.504,-113.845 36.362,-103.247 24.103,-113.956 12.007,-103.396 0,-113.882 0,-102.634 
12.007,-92.149 24.103,-102.71 36.362,-92.001 48.504,-102.598 60.516,-92.11 72.691,-102.743 84.705,-92.257 96.565,-102.616 
108.5,-92.203 120.432,-102.616 132.522,-92.055 144.541,-102.552 144.541,-113.797 "/>

<polygon fill="#3953A4" points="132.522,-90.302 120.432,-100.861 108.5,-90.45 96.565,-100.861 84.705,-90.504 
72.691,-100.989 60.516,-90.355 48.504,-100.845 36.362,-90.247 24.103,-100.956 12.007,-90.396 0,-100.882 0,-89.634 
12.007,-79.15 24.103,-89.71 36.362,-79.001 48.504,-89.598 60.516,-79.11 72.691,-89.744 84.705,-79.258 96.565,-89.616 
108.5,-79.203 120.432,-89.616 132.522,-79.055 144.541,-89.552 144.541,-100.797 "/>

<polygon fill="#ED1F24" points="132.522,-77.302 120.432,-87.862 108.5,-77.45 96.565,-87.862 84.705,-77.505 72.691,-87.989 
60.516,-77.356 48.504,-87.845 36.362,-77.247 24.103,-87.956 12.007,-77.396 0,-87.882 0,-76.634 12.007,-66.151 
24.103,-76.71 36.362,-66.001 48.504,-76.599 60.516,-66.11 72.691,-76.745 84.705,-66.259 96.565,-76.616 108.5,-66.204 
120.432,-76.616 132.522,-66.056 144.541,-76.552 144.541,-87.798 "/>

<polygon fill="#69BD45" points="132.522,-64.301 120.432,-74.862 108.5,-64.45 96.565,-74.862 84.705,-64.504 72.691,-74.99 
60.516,-64.356 48.504,-74.844 36.362,-64.247 24.103,-74.956 12.007,-64.396 0,-74.881 0,-63.634 12.007,-53.15 
24.103,-63.709 36.362,-53.001 48.504,-63.598 60.516,-53.11 72.691,-63.744 84.705,-53.257 96.565,-63.616 108.5,-53.204 
120.432,-63.616 132.522,-53.055 144.541,-63.551 144.541,-74.797 "/>

<polygon fill="#3953A4" points="132.522,-51.301 120.432,-61.862 108.5,-51.45 96.565,-61.862 84.705,-51.504 72.691,-61.99 
60.516,-51.356 48.504,-61.844 36.362,-51.247 24.103,-61.956 12.007,-51.396 0,-61.881 0,-50.634 12.007,-40.151 
24.103,-50.709 36.362,-40.001 48.504,-50.598 60.516,-40.11 72.691,-50.745 84.705,-40.258 96.565,-50.616 108.5,-40.204 
120.432,-50.616 132.522,-40.055 144.541,-50.551 144.541,-61.797 "/>

<polygon fill="#ED1F24" points="132.522,-38.302 120.432,-48.861 108.5,-38.45 96.565,-48.861 84.705,-38.504 72.691,-48.99 
60.516,-38.355 48.504,-48.845 36.362,-38.247 24.103,-48.956 12.007,-38.396 0,-48.882 0,-37.635 12.007,-27.15 
24.103,-37.71 36.362,-27.002 48.504,-37.598 60.516,-27.11 72.691,-37.744 84.705,-27.258 96.565,-37.616 108.5,-27.203 
120.432,-37.616 132.522,-27.055 144.541,-37.552 144.541,-48.797 "/>

<polygon fill="#69BD45" points="132.522,-25.303 120.432,-35.863 108.5,-25.451 96.565,-35.863 84.705,-25.506 72.691,-35.99 
60.516,-25.357 48.504,-35.846 36.362,-25.248 24.103,-35.957 12.007,-25.396 0,-35.883 0,-24.635 12.007,-14.151 
24.103,-24.711 36.362,-14.002 48.504,-24.6 60.516,-14.111 72.691,-24.745 84.705,-14.259 96.565,-24.617 108.5,-14.205 
120.432,-24.617 132.522,-14.057 144.541,-24.553 144.541,-35.799 "/>

</g>

<g>

<polygon fill="#69BD45" points="276.522,-169.303 264.432,-179.863 252.5,-169.451 240.565,-179.863 228.705,-169.506 
216.691,-179.99 204.516,-169.357 192.504,-179.846 180.362,-169.248 168.103,-179.957 156.007,-169.396 144,-179.883 
144,-168.635 156.007,-158.151 168.103,-168.711 180.362,-158.002 192.504,-168.6 204.516,-158.111 216.691,-168.745 
228.705,-158.259 240.565,-168.617 252.5,-158.205 264.432,-168.617 276.522,-158.057 288.541,-168.553 288.541,-179.799 
"/>

</g>

<g>

<polygon fill="#69BD45" points="132.522,-169.303 120.432,-179.863 108.5,-169.451 96.565,-179.863 84.705,-169.506 
72.691,-179.99 60.516,-169.357 48.504,-179.846 36.362,-169.248 24.103,-179.957 12.007,-169.396 0,-179.883 0,-168.635 
12.007,-158.151 24.103,-168.711 36.362,-158.002 48.504,-168.6 60.516,-158.111 72.691,-168.745 84.705,-158.259 
96.565,-168.617 108.5,-158.205 120.432,-168.617 132.522,-158.057 144.541,-168.553 144.541,-179.799 "/>

</g>

</g>

</pattern>

<path d="M204.978,70.452c-22.771-22.769-154.898-20.24-183.57,0c-28.673,20.239-25.3,104.569,0,127.338
c25.299,22.77,155.741,17.709,183.57,0C232.807,180.08,227.749,93.221,204.978,70.452z M160.459,183.96
c-21.826,13.891-102.52,17.858-122.361,0c-19.843-17.858-22.486-84,0-99.874c22.489-15.874,104.504-17.858,122.361,0
C178.317,101.945,182.286,170.07,160.459,183.96z"/>

<path d="M36.979,202.319c0,0-2.426,35.945-2.479,38.858s6.047,4.253,6.613,0c0.567-4.253,4.962-38.032,4.962-38.032
L36.979,202.319z"/>

<path d="M187.458,202.319c0,0,2.426,35.945,2.479,38.858s-6.046,4.253-6.613,0s-4.961-38.032-4.961-38.032L187.458,202.319z"/>

<ellipse cx="103.947" cy="56.81" rx="20.669" ry="14.882"/>

<path d="M93.568,42.461L39.517,10.079l-1.171,1.63l52.109,35.432C93.333,49.08,96.95,44.472,93.568,42.461z"/>

<circle cx="38.346" cy="10.079" r="3.347"/>

<path d="M110.135,44.365l25.315-41.617l1.388,0.694L113.95,46.446C112.7,48.779,108.957,46.411,110.135,44.365z"/>

<circle cx="135.266" cy="3.851" r="3.348"/>

<g>

<g>

<circle fill="#FFFFFF" cx="197.345" cy="105.958" r="12.405"/>

</g>

<g>

<circle fill="#FFFFFF" cx="198.633" cy="137.376" r="12.404"/>

</g>

</g>

<path fill="url(#New_Pattern_4)" d="M160.459,183.96c-21.826,13.891-102.52,17.858-122.361,0c-19.843-17.858-22.486-84,0-99.874
c22.489-15.874,104.504-17.858,122.361,0C178.317,101.945,182.286,170.07,160.459,183.96z"/>

</g>

</svg>
