<?xml version="1.0" encoding="utf-8"?>

<svg version="1.1" 
xmlns="http://www.w3.org/2000/svg"
xmlns:xlink="http://www.w3.org/1999/xlink" x="0px" y="0px"
width="792px" height="612px" viewBox="0 0 792 612"
enable-background="new 0 0 792 612" xml:space="preserve">

<g>

<g>

<path d="M37.912,202.679c0,0-2.426,35.944-2.479,38.857c-0.054,2.912,6.047,4.252,6.613,0c0.567-4.252,4.962-38.033,4.962-38.033
L37.912,202.679z"/>

<path d="M188.391,202.679c0,0,2.426,35.944,2.479,38.857c0.054,2.912-6.046,4.252-6.613,0s-4.961-38.033-4.961-38.033
L188.391,202.679z"/>

<path d="M205.911,198.148c-27.829,17.71-158.271,22.77-183.57,0c-25.3-22.768-28.673-107.099,0-127.337
c28.672-20.24,160.8-22.769,183.57,0S233.74,180.439,205.911,198.148z"/>

</g>

<g>

<defs>

<path id="SVGID_1_" d="M161.393,184.318c-21.826,13.892-102.52,17.859-122.361,0c-19.843-17.857-22.486-83.999,0-99.873
c22.489-15.874,104.504-17.858,122.361,0C179.25,102.304,183.219,170.429,161.393,184.318z"/>

</defs>

<clipPath id="fooClip">

<use xlink:href="#SVGID_1_"  overflow="visible"/>

</clipPath>

<g transform="matrix(1 0 0 1 9.536743e-07 3.814697e-06)" clip-path="url(#fooClip)">

<image width="435" height="576" xlink:href="x_newspaper.jpg" transform="scale(0.5) translate(0,120) skewX(-5) rotate(-5)">

</image>

</g>

</g>

<ellipse cx="104.88" cy="57.169" rx="20.669" ry="14.882"/>

<path d="M94.501,42.82L40.45,10.438l-1.171,1.63L91.389,47.5C94.267,49.438,97.883,44.831,94.501,42.82z"/>

<circle cx="39.279" cy="10.438" r="3.347"/>

<path d="M111.068,44.724l25.315-41.617l1.388,0.694l-22.889,43.005C113.633,49.138,109.89,46.77,111.068,44.724z"/>

<circle cx="136.199" cy="4.21" r="3.348"/>

<g>

<circle fill="#FFFFFF" cx="198.278" cy="106.316" r="12.405"/>

</g>

<g>

<circle fill="#FFFFFF" cx="199.566" cy="137.736" r="12.404"/>

</g>

<linearGradient id="fooGradient" gradientUnits="userSpaceOnUse" x1="99.7271" y1="196.2705" x2="99.727" y2="71.7847">

<stop  offset="0" style="stop-color:#F15A29;stop-opacity:0.5"/>

<stop  offset="0.014" style="stop-color:#F15F29;stop-opacity:0.5028"/>

<stop  offset="0.1797" style="stop-color:#F68D24;stop-opacity:0.5365"/>

<stop  offset="0.3204" style="stop-color:#F9AC1C;stop-opacity:0.565"/>

<stop  offset="0.4292" style="stop-color:#FCBF13;stop-opacity:0.5871"/>

<stop  offset="0.4928" style="stop-color:#FDC70C;stop-opacity:0.6"/>

<stop  offset="1" style="stop-color:#1C75BC;stop-opacity:0.8"/>

</linearGradient>

<path fill="url(#fooGradient)" d="M161.393,184.318c-21.826,13.892-102.52,17.859-122.361,0c-19.843-17.857-22.486-83.999,0-99.873
c22.489-15.874,104.504-17.858,122.361,0C179.25,102.304,183.219,170.429,161.393,184.318z"/>

</g>

</svg>
